{"glyphs":{"0":{"ha":269,"x_min":-39,"x_max":269,"o":"m 153 474 q 163 466 160 472 q 164 449 167 460 q 164 441 163 443 q 174 440 165 439 q 175 440 174 440 q 265 338 249 440 q 236 185 269 268 q 149 43 203 101 q 40 -17 89 -18 q 26 -15 32 -17 q 14 -10 21 -14 l 14 -10 q -14 28 -6 0 q 60 324 -39 110 q 149 472 125 463 q 153 474 151 474 m 160 406 q 157 406 158 406 q 135 406 142 407 q 124 401 128 406 q 115 383 121 396 q 110 371 114 378 q 14 129 39 229 q 10 108 13 121 q 8 86 8 96 q 29 18 3 28 q 42 15 36 15 q 58 18 47 15 q 140 76 96 26 q 197 164 174 114 q 233 358 254 285 q 220 383 229 371 q 200 399 211 394 q 192 403 196 401 q 180 405 188 404 q 160 406 172 406 z "},"1":{"ha":124,"x_min":-75,"x_max":158,"o":"m -72 -15 q -63 13 -69 -7 q -49 50 -57 32 q -4 149 -39 74 q 69 304 31 224 q 93 353 83 335 q 97 365 97 361 q 90 364 97 368 q 46 349 61 340 q 53 361 39 353 q 113 422 74 376 q 130 442 122 433 q 140 453 138 451 q 156 446 149 458 q 157 444 156 446 q 158 440 158 443 q 157 433 158 438 q 151 417 156 428 q 138 390 146 407 q 117 343 129 372 q 110 329 113 336 q 78 261 96 300 q 44 193 60 222 q -6 87 13 124 q -35 31 -24 50 q -60 -7 -46 11 q -72 -15 -75 -29 z "},"2":{"ha":260,"x_min":-96,"x_max":278,"o":"m 194 464 q 257 408 236 464 q 224 254 278 344 q 185 202 208 229 q 113 125 161 175 q 65 76 83 96 q 60 71 63 74 q 52 61 53 65 q 60 51 51 57 q 138 17 83 31 q 228 6 193 3 q 210 -5 218 -3 q 193 -8 203 -7 q 178 -10 186 -8 q 172 -10 175 -10 q 115 -4 135 -7 q 81 4 96 -1 q 47 21 67 10 q 42 24 44 22 q 25 32 32 31 q 6 24 18 33 q -89 8 -69 -32 q -85 43 -96 25 q -49 72 -74 61 q -35 76 -42 75 q -17 78 -29 78 q 0 77 -8 78 q 13 75 8 76 q 27 77 19 72 q 40 86 35 82 q 78 124 50 94 q 134 183 106 153 q 172 225 163 214 q 232 331 215 279 q 237 358 236 343 q 235 385 238 372 q 226 407 233 394 q 211 425 219 419 q 156 424 190 439 q 94 372 122 408 q 87 359 90 365 q 82 351 83 353 q 82 346 81 347 q 88 344 83 344 q 85 331 103 343 q 57 339 58 314 q 84 395 58 363 q 143 447 110 428 q 171 459 156 454 q 194 464 186 464 m -25 54 q -47 49 -36 54 q -61 35 -57 43 q -58 30 -62 31 q -46 31 -53 29 q -32 36 -39 32 q -24 43 -28 39 q -19 51 -19 47 q -25 54 -18 54 z "},"3":{"ha":250,"x_min":-79,"x_max":263,"o":"m -19 -32 q -55 -15 -43 -24 q -71 1 -67 -7 q -76 15 -75 8 q -79 24 -76 19 q -67 15 -74 19 q -35 -3 -50 4 q 82 13 24 -11 q 181 83 140 36 q 186 92 183 88 q 206 117 199 106 q 217 143 213 128 q 215 191 224 167 q 192 228 207 215 q 151 252 178 238 q 107 274 124 267 q 89 276 96 276 q 82 278 85 276 q 79 282 79 279 q 78 286 78 285 q 78 290 78 288 q 82 296 79 293 q 87 302 85 300 q 93 306 89 304 q 107 312 97 308 q 133 319 117 315 q 210 357 188 336 q 228 382 228 372 q 214 403 229 392 q 191 412 207 407 q 158 419 175 417 q 135 420 150 421 q 109 418 121 419 q 93 414 97 417 q 88 417 90 411 q 101 439 83 429 q 153 450 122 450 q 214 439 185 450 q 253 376 263 418 q 167 301 239 333 q 161 299 164 300 q 146 290 146 293 q 163 278 146 286 q 244 164 254 235 q 201 71 240 121 q 165 33 189 54 q 125 1 142 11 q -19 -32 49 -43 z "},"4":{"ha":329,"x_min":0,"x_max":329,"o":"m 111 -36 q 144 57 110 -21 q 167 108 158 88 q 186 158 175 128 q 189 168 188 163 q 191 178 193 175 q 183 181 189 181 q 172 181 176 181 q 115 178 149 178 q 56 182 81 179 q 8 215 0 190 q 16 224 10 218 q 31 238 22 231 q 200 381 97 286 q 279 450 242 419 q 326 482 317 481 q 327 478 329 482 q 321 468 325 475 q 314 458 318 464 q 275 419 307 450 q 196 346 243 389 q 169 321 183 333 q 121 276 149 301 q 72 236 93 251 q 56 219 56 225 q 65 210 56 213 q 88 207 75 208 q 99 207 93 207 q 163 207 131 206 q 199 214 189 208 q 214 238 208 219 q 254 358 246 343 q 257 365 256 363 q 260 374 258 372 q 267 376 263 376 q 276 370 275 376 q 276 351 278 364 q 271 330 275 347 q 261 290 267 313 q 250 249 256 268 q 247 219 243 228 q 269 210 250 210 q 297 211 285 210 q 313 211 307 211 q 319 208 319 211 q 306 201 318 207 q 279 190 294 196 q 253 183 264 185 q 227 174 235 183 q 214 150 219 165 q 213 146 214 149 q 165 28 185 69 q 122 -33 146 -14 q 113 -38 115 -37 q 111 -36 111 -39 z "},"5":{"ha":296,"x_min":0,"x_max":296,"o":"m 75 -31 q 33 7 38 -22 q 61 61 32 39 q 86 72 86 79 q 83 56 88 68 q 71 32 78 44 q 65 19 67 24 q 65 10 64 14 q 97 0 69 -6 q 156 38 128 8 q 193 104 183 68 q 169 201 207 169 q 122 216 149 217 q 54 199 96 215 q 37 192 44 194 q 26 189 29 189 q 13 190 19 188 q 4 197 7 193 q 1 213 0 203 q 13 242 3 222 q 44 301 24 263 q 68 344 60 328 q 81 370 76 361 q 88 383 86 379 q 88 389 89 388 q 92 399 88 394 q 99 408 94 400 q 110 425 104 415 q 124 451 117 438 q 139 474 132 465 q 147 485 146 483 q 149 483 149 485 q 150 476 150 481 q 140 439 151 469 q 136 422 139 429 q 135 411 133 414 q 149 408 136 408 q 197 412 171 411 q 245 413 224 413 q 271 413 267 414 q 289 408 282 411 q 296 404 296 406 q 289 397 296 401 q 271 390 282 393 q 217 386 256 388 q 146 386 179 385 q 124 385 129 389 q 111 367 118 382 q 111 367 111 367 q 95 337 106 357 q 74 294 85 317 q 46 243 56 261 q 38 225 35 226 q 54 229 42 224 q 58 231 56 229 q 167 235 121 256 q 219 181 204 221 q 215 79 236 132 q 142 -11 193 26 q 122 -22 129 -19 q 101 -28 115 -25 q 85 -30 93 -29 q 75 -31 78 -31 z "},"6":{"ha":272,"x_min":-39,"x_max":272,"o":"m 247 474 q 260 475 254 475 q 265 473 263 475 q 269 468 267 471 q 272 463 272 465 q 271 457 272 461 q 268 449 269 453 q 264 444 267 446 q 250 433 260 439 q 235 426 240 428 q 231 426 231 425 q 238 435 232 428 q 244 442 242 439 q 246 447 246 446 q 235 443 244 449 q 215 429 226 438 q 194 413 203 421 q 75 253 131 353 q 60 226 68 242 q 47 199 53 211 q 45 184 42 186 q 58 185 49 182 q 82 188 68 188 q 118 190 100 190 q 146 186 136 189 q 194 90 217 165 q 176 54 189 74 q 149 21 163 35 q 92 -11 121 -3 q 73 -15 79 -14 q 58 -15 67 -17 l 58 -15 q -7 128 -36 -6 q -7 129 -7 128 q -7 137 -6 135 q -18 138 -8 139 q -33 142 -39 133 q -28 147 -32 143 q -17 156 -24 151 q -10 161 -14 158 q 5 172 -1 165 q 14 189 11 178 q 94 333 44 263 q 190 442 143 404 q 247 474 222 467 m 43 153 q 28 145 33 150 q 22 126 24 140 q 69 13 -3 14 q 110 26 90 14 q 151 67 135 43 q 168 115 167 90 q 113 160 171 158 q 78 159 97 161 q 43 153 58 157 z "},"7":{"ha":303,"x_min":-53,"x_max":303,"o":"m -51 -37 q -51 -31 -53 -36 q -48 -21 -50 -26 q -43 -11 -46 -15 q -34 1 -40 -7 q -21 18 -28 8 q 0 42 -12 28 q 24 71 13 57 q 40 92 31 81 q 71 131 58 114 q 90 153 81 142 q 106 172 100 165 q 118 195 122 192 q 96 197 114 199 q 79 196 88 196 q 14 197 33 194 q -7 213 -25 204 q 21 217 -1 214 q 71 222 43 219 q 119 226 99 225 q 151 232 140 224 q 174 256 163 240 q 181 264 176 260 q 267 389 260 363 q 267 403 269 397 q 256 411 264 408 q 227 416 249 415 q 179 415 206 417 q 132 410 153 414 q 106 406 119 408 q 85 404 93 404 q 73 404 76 404 q 67 405 69 404 q 63 408 65 406 q 65 425 56 415 q 74 429 68 428 q 90 432 79 431 q 108 434 99 433 q 122 436 117 435 q 174 444 140 440 q 224 447 207 447 q 294 421 283 446 q 285 366 303 401 q 210 261 267 331 q 196 242 201 249 q 187 227 186 231 q 206 221 188 224 q 221 218 215 219 q 228 216 226 217 q 228 214 229 215 q 219 210 228 213 q 198 204 210 207 q 176 201 186 201 q 158 193 165 200 q 143 178 150 186 q 139 172 142 175 q 89 111 119 147 q 8 11 32 40 q -25 -24 -17 -18 q -35 -31 -29 -28 q -46 -36 -42 -35 q -51 -37 -50 -37 z "},"8":{"ha":229,"x_min":-107,"x_max":229,"o":"m 138 464 q 174 451 157 465 q 188 431 181 444 q 200 401 196 417 q 201 353 206 379 q 185 313 196 328 q 178 307 181 308 q 175 307 176 306 q 174 351 167 310 q 175 370 175 363 q 174 386 175 378 q 164 415 171 401 q 149 433 157 428 q 90 408 126 443 q 47 349 63 381 q 31 293 31 318 q 36 267 31 279 q 56 239 42 254 q 63 229 60 233 q 69 222 67 224 q 76 221 72 219 q 88 226 79 222 q 90 229 89 228 q 164 278 128 249 q 204 288 229 335 q 154 233 192 261 q 136 221 147 228 q 114 208 125 214 q 110 206 113 207 q 98 197 103 201 q 99 186 93 193 q 110 47 149 117 q 49 -9 89 13 q -32 -31 10 -31 l -32 -31 q -100 -1 -81 -29 q -106 9 -104 4 q -107 24 -107 14 q 24 190 -106 107 q 28 193 26 192 q 40 203 38 197 q 33 218 43 208 q 15 242 21 233 q 4 261 8 251 q 65 422 -17 333 q 138 464 106 463 m 83 153 q 65 176 72 174 q 38 164 57 179 q 15 149 26 157 q -3 138 3 142 q -71 53 -53 97 q -46 1 -92 10 q -14 1 -33 -1 q 19 8 6 3 q 35 16 26 11 q 51 26 44 21 q 83 153 119 81 z "},"9":{"ha":265,"x_min":-49,"x_max":265,"o":"m -21 -31 q -35 -31 -29 -32 q -40 -29 -37 -31 q -46 -25 -43 -28 q -49 -19 -49 -22 q -47 -12 -49 -17 q -44 -6 -46 -10 q -40 0 -42 -3 q -24 10 -35 4 q -7 18 -14 15 q -3 17 -3 18 q -10 8 -4 15 q -17 1 -14 4 q -19 -3 -19 -3 q -8 1 -18 -4 q 15 14 1 6 q 38 31 28 22 q 128 129 83 67 q 131 133 129 132 q 163 188 156 169 q 162 204 168 201 q 140 207 156 207 q 82 213 118 206 q 33 269 43 225 q 38 353 24 314 q 58 390 43 371 q 89 422 72 410 q 151 454 118 446 q 172 459 164 458 q 188 460 179 460 l 188 460 q 256 408 242 456 q 247 293 265 361 q 243 282 246 290 q 235 264 239 274 q 232 247 232 254 q 238 240 232 240 q 254 240 250 243 q 256 233 258 238 q 249 229 254 232 q 238 223 244 226 q 226 217 232 219 q 219 214 222 215 q 206 207 211 211 q 194 190 201 203 q 138 96 168 135 q 42 1 99 42 q -21 -31 7 -24 m 181 236 q 200 256 190 240 q 217 290 210 272 q 226 317 225 307 q 176 431 254 429 q 131 417 153 429 q 95 392 113 408 q 65 350 78 376 q 57 285 53 318 q 94 236 61 251 q 137 230 110 231 q 181 236 164 229 z "},"\u0000":{"ha":444,"x_min":-8,"x_max":367,"o":"m 367 939 l 367 0 l -8 0 l -8 939 l 367 939 m 286 908 l 83 908 l 83 875 l 164 875 l 164 840 l 82 840 l 82 807 l 286 807 l 286 840 l 206 840 l 206 875 l 286 875 l 286 908 m 206 782 l 82 782 l 82 681 l 286 681 l 286 714 l 206 714 l 206 782 m 164 749 l 164 714 l 122 714 l 122 749 l 164 749 m 286 654 l 82 654 l 82 622 l 164 622 l 164 586 l 82 586 l 82 554 l 206 554 l 206 622 l 286 622 l 286 654 m 286 596 l 246 596 l 246 532 l 82 532 l 82 499 l 286 499 l 286 596 m 286 478 l 164 478 l 164 424 l 206 424 l 206 446 l 246 446 l 246 400 l 122 400 l 122 478 l 82 478 l 82 368 l 286 368 l 286 478 m 286 310 l 82 310 l 82 200 l 286 200 l 286 310 m 246 278 l 246 232 l 122 232 l 122 278 l 246 278 m 286 176 l 82 176 l 82 144 l 168 144 l 82 99 l 82 67 l 286 67 l 286 99 l 161 99 l 247 144 l 286 144 l 286 176 z "}," ":{"ha":236,"x_min":0,"x_max":0,"o":""},"!":{"ha":210,"x_min":24,"x_max":289,"o":"m 42 1 q 46 39 24 7 q 72 56 63 63 q 76 47 76 53 q 69 29 75 42 q 42 1 57 -3 m 113 138 q 144 215 122 169 q 163 254 151 231 q 187 300 175 278 q 204 331 199 322 q 217 353 207 336 q 239 393 226 371 q 263 435 254 421 q 277 453 272 449 q 285 454 282 457 q 288 442 289 450 q 282 419 288 435 q 260 376 275 406 q 232 324 246 347 q 218 300 228 318 q 197 261 208 282 q 151 181 174 218 q 117 132 128 143 l 108 124 l 113 138 z "},"\"":{"ha":289,"x_min":193,"x_max":326,"o":"m 199 344 q 202 356 200 351 q 208 369 204 361 q 221 389 213 376 q 236 414 229 401 q 247 432 243 426 q 263 446 258 451 q 260 431 264 443 q 249 402 257 418 q 232 371 242 386 q 215 348 225 360 q 199 331 204 336 l 193 328 l 199 344 m 261 346 q 265 358 263 353 q 271 370 267 363 q 283 390 275 378 q 299 415 292 403 q 310 433 306 428 q 325 447 321 453 q 323 432 326 444 q 312 403 319 419 q 294 372 304 388 q 277 349 288 361 q 261 332 267 338 l 256 329 l 261 346 z "},"#":{"ha":472,"x_min":8,"x_max":458,"o":"m 442 322 q 444 311 446 322 q 442 300 444 306 q 435 286 440 294 q 413 250 426 272 q 386 208 399 228 q 397 188 371 185 q 419 189 407 188 q 444 192 433 192 q 457 190 456 193 q 458 188 458 189 q 456 185 458 188 q 417 172 444 179 q 364 160 390 164 q 347 153 353 158 q 335 138 342 149 q 322 119 326 125 q 318 113 318 114 q 321 111 318 111 q 324 108 326 111 q 317 104 322 106 q 310 101 314 104 q 301 92 307 99 q 283 69 294 85 q 185 -43 222 -7 q 167 -58 174 -51 q 158 -64 160 -64 q 176 -31 154 -64 q 233 44 199 1 q 240 51 235 46 q 253 65 246 57 q 264 79 260 72 q 265 88 268 86 q 247 85 261 90 q 221 80 236 82 q 192 76 206 78 q 189 75 190 75 q 170 72 178 75 q 156 56 163 68 q 122 11 144 42 q 85 -39 103 -15 q 60 -72 67 -62 q 40 -94 51 -82 q 19 -114 29 -106 q 8 -122 10 -122 q 9 -119 8 -122 q 13 -111 10 -115 l 13 -111 q 36 -70 19 -96 q 88 3 53 -44 q 122 53 108 33 q 126 57 124 54 q 132 69 133 65 q 114 69 131 72 q 80 65 97 67 q 53 61 63 63 q 25 63 19 54 q 65 81 32 72 q 144 96 99 89 q 161 106 154 97 q 174 124 168 114 q 175 126 175 125 q 184 142 185 139 q 171 143 183 144 q 154 142 164 142 q 134 140 142 140 q 122 141 126 140 q 117 144 118 142 q 113 154 111 149 q 122 163 115 160 q 149 165 131 164 q 181 168 164 167 q 222 192 204 172 q 254 235 239 211 q 260 242 257 238 q 288 281 276 265 q 305 303 299 296 q 315 313 311 310 q 321 315 318 315 q 320 293 332 315 q 265 211 308 271 q 249 178 244 183 q 286 175 253 172 q 290 175 288 175 q 327 184 307 176 q 360 210 347 192 q 390 254 372 228 q 424 306 408 281 q 442 322 435 322 m 304 135 q 304 136 304 135 q 315 153 315 150 q 303 153 315 156 q 286 151 297 151 q 260 149 274 150 q 238 147 246 147 q 219 143 225 146 q 207 129 213 140 q 202 121 206 126 q 196 110 199 115 q 194 101 193 104 q 204 100 196 99 q 210 100 206 100 q 228 103 217 101 q 251 106 239 106 q 304 135 286 104 z "},"$":{"ha":282,"x_min":-1,"x_max":275,"o":"m 264 447 q 267 444 265 447 q 270 440 269 443 q 269 428 271 436 q 260 402 267 418 q 246 372 253 386 q 242 365 244 368 q 240 357 239 360 q 247 351 242 354 q 253 349 250 351 q 267 333 261 343 q 275 314 272 324 q 275 306 275 311 q 274 294 275 300 q 273 285 274 289 q 272 282 272 282 q 268 286 271 282 q 260 299 265 290 q 260 299 260 299 q 238 325 249 319 q 225 325 229 329 q 218 313 221 321 q 211 299 215 306 q 204 286 208 294 q 188 253 197 271 q 169 221 178 235 q 158 207 164 214 q 145 185 150 196 q 144 161 140 175 q 153 106 153 128 q 144 67 154 85 q 79 51 115 17 q 68 51 74 57 q 58 38 63 46 q 41 11 53 28 q 18 -19 29 -6 q 4 -37 7 -33 q 0 -39 -1 -43 l 0 -39 q 14 -5 1 -32 q 42 51 26 22 q 46 57 44 54 q 53 73 50 65 q 53 89 56 81 q 56 124 50 110 q 59 128 57 129 q 67 119 61 128 q 78 116 74 111 q 88 131 83 121 q 96 147 92 140 q 99 151 97 149 q 112 177 107 163 q 113 215 117 192 q 124 292 108 258 q 158 333 136 315 q 204 357 181 351 q 221 365 217 360 q 229 383 225 371 q 240 404 235 393 q 249 424 244 415 q 255 437 251 431 q 260 444 258 443 q 264 447 263 447 m 189 301 q 195 326 199 319 q 169 317 192 332 q 153 301 161 311 q 142 285 146 292 q 135 272 138 278 q 131 256 132 265 q 134 223 126 228 q 158 250 142 218 q 175 277 167 263 q 189 301 183 292 m 129 128 q 124 145 126 144 q 117 136 121 146 q 106 121 113 129 q 91 94 94 103 q 89 80 88 85 q 96 71 90 75 q 110 67 103 67 q 122 74 117 68 q 129 128 133 89 z "},"%":{"ha":400,"x_min":0,"x_max":407,"o":"m 0 -25 q 14 -5 1 -22 q 42 34 26 13 q 71 71 58 56 q 101 107 79 82 q 149 160 124 132 q 336 372 281 308 q 372 413 360 400 q 392 430 385 426 q 403 431 399 433 q 407 425 407 429 q 402 413 407 421 q 385 389 397 404 q 345 338 367 364 q 286 269 324 311 q 258 237 272 253 q 238 214 244 221 q 146 113 197 168 q 71 35 94 58 q 38 5 54 19 q 10 -19 21 -10 q 0 -25 0 -28 m 286 86 q 299 83 292 86 q 319 73 313 79 q 328 58 325 67 q 317 14 333 38 q 269 -25 300 -10 q 253 -31 263 -29 q 234 -33 243 -33 q 221 -32 225 -33 q 206 -14 210 -26 q 207 9 203 -6 q 221 39 211 24 l 231 51 l 221 54 q 214 57 217 56 q 211 60 211 58 q 217 65 213 61 q 228 72 222 68 q 242 78 235 75 q 253 81 246 79 q 269 85 261 83 q 286 86 279 86 m 254 50 l 247 38 q 242 23 244 31 q 238 8 239 15 q 238 0 236 1 q 242 -3 239 -1 q 248 -6 244 -6 q 256 -6 251 -7 l 267 0 q 279 9 275 3 q 288 22 283 15 q 289 25 289 24 q 289 46 297 39 q 269 50 286 50 l 254 50 m 190 433 q 235 393 231 431 q 199 336 233 361 q 132 317 165 311 q 108 335 115 321 q 112 366 104 347 q 135 400 119 385 q 140 404 139 403 q 141 407 142 406 q 139 410 140 408 q 137 416 133 413 q 154 425 140 419 q 190 433 174 433 m 169 401 q 163 400 165 401 q 160 394 161 399 q 149 376 154 388 q 142 356 143 364 q 142 351 140 351 q 150 350 143 350 q 160 351 156 350 q 169 353 165 351 q 187 366 179 358 q 196 381 194 374 q 176 400 200 399 q 169 401 172 401 z "},"&":{"ha":471,"x_min":21,"x_max":544,"o":"m 240 -125 q 301 -24 251 -100 q 315 -1 318 1 q 200 -74 261 -49 q 60 -82 108 -108 q 29 13 21 -57 q 33 29 31 21 q 42 57 35 38 q 59 93 51 79 q 81 124 67 107 q 158 196 113 165 q 300 258 214 233 l 319 264 l 301 272 q 249 322 249 292 q 292 388 249 354 q 403 442 335 421 q 474 451 439 453 q 495 451 489 451 q 508 447 501 450 q 543 413 539 435 q 542 392 544 404 q 536 372 540 381 q 510 336 526 353 q 498 327 504 332 q 485 318 492 322 q 478 314 479 314 q 493 335 474 314 q 502 347 497 340 q 511 361 507 354 q 513 418 535 399 q 499 425 506 424 q 481 426 492 426 q 469 426 475 426 q 317 379 393 429 q 317 290 235 324 q 344 282 329 286 q 365 278 358 278 q 372 274 369 278 q 372 267 374 271 q 363 258 371 263 q 335 249 354 254 q 275 231 299 239 q 228 214 251 224 q 92 99 136 172 q 71 57 81 82 q 58 15 61 32 q 96 -71 46 -57 q 200 -54 138 -79 q 245 -31 222 -44 q 307 10 268 -17 l 338 32 l 364 74 q 396 128 389 113 q 401 138 400 135 q 401 142 401 142 q 399 143 401 143 q 375 142 396 143 q 331 138 354 140 q 296 135 308 136 q 275 134 288 135 q 251 133 263 133 q 235 134 240 133 q 227 135 229 135 q 225 138 225 136 q 223 143 222 140 q 228 149 224 146 q 231 151 229 150 q 239 152 233 151 q 254 153 244 153 q 283 153 265 153 q 321 156 301 154 q 358 158 339 157 q 389 161 378 160 q 410 162 400 161 q 422 164 419 163 q 432 165 429 167 q 440 164 432 164 q 458 164 447 164 q 491 162 472 163 q 524 160 510 161 q 542 158 539 160 q 544 158 543 158 q 543 156 544 157 q 528 153 542 156 q 495 149 514 151 q 460 146 476 147 q 440 144 449 144 q 431 143 432 143 q 421 129 429 142 q 401 100 413 117 q 379 67 390 83 q 367 47 374 57 q 354 28 360 36 q 351 22 353 25 q 331 -8 343 10 q 308 -44 319 -26 q 292 -68 296 -61 q 269 -97 281 -82 q 249 -122 258 -111 q 239 -132 240 -132 q 239 -130 239 -132 q 240 -125 239 -128 z "},"'":{"ha":194,"x_min":178,"x_max":249,"o":"m 183 344 q 187 356 185 351 q 193 369 189 361 q 206 389 197 376 q 221 414 214 401 q 232 432 228 426 q 247 446 243 451 q 245 431 249 443 q 234 402 242 418 q 217 371 226 386 q 199 348 210 360 q 183 331 189 336 l 178 328 l 183 344 z "},"(":{"ha":218,"x_min":-1,"x_max":322,"o":"m 317 558 q 288 524 310 549 q 236 465 265 499 q 124 317 160 379 q 64 186 89 254 q 33 -40 28 78 q 35 -90 35 -64 q 34 -131 33 -112 q 39 -160 35 -150 q 40 -168 42 -168 q 34 -164 39 -168 q 26 -151 29 -160 q 0 -10 1 -96 q 68 276 -1 144 q 289 543 143 418 q 303 555 297 550 q 312 563 308 560 q 317 567 315 565 q 320 569 319 568 q 321 568 321 569 q 321 565 322 568 q 317 558 319 563 z "},")":{"ha":224,"x_min":-106,"x_max":217,"o":"m -100 -158 q -72 -123 -93 -149 q -21 -65 -50 -97 q 92 84 57 22 q 151 215 128 146 q 182 440 189 324 q 182 490 182 464 q 181 531 182 513 q 178 560 181 550 q 176 569 174 568 q 182 565 178 569 q 190 551 186 560 q 217 411 214 496 q 149 125 217 257 q -72 -142 72 -17 q -86 -153 -81 -149 q -96 -162 -92 -158 q -101 -167 -100 -165 q -104 -168 -103 -168 q -106 -168 -106 -168 q -104 -165 -106 -167 q -100 -158 -103 -162 z "},"*":{"ha":219,"x_min":101,"x_max":242,"o":"m 133 258 q 135 268 133 261 q 140 282 138 275 q 143 292 142 288 q 144 298 144 297 q 138 292 143 299 q 126 282 133 288 q 112 272 118 276 q 104 267 106 267 q 103 272 101 267 q 110 283 106 276 q 119 297 114 290 q 128 307 122 300 q 142 321 135 314 q 144 325 143 324 q 155 338 154 335 q 142 343 156 342 q 118 346 132 344 q 107 354 103 346 q 123 363 111 360 q 149 364 135 365 q 158 365 156 363 q 159 370 160 367 q 158 378 158 374 q 157 383 157 381 q 154 410 153 403 q 163 421 156 418 q 172 419 168 424 q 178 400 175 414 q 181 384 179 386 q 186 387 183 382 q 192 399 189 392 q 194 404 193 401 q 202 421 199 413 q 207 435 206 429 q 211 443 210 440 q 215 447 213 446 q 229 447 225 454 q 230 438 232 444 q 221 415 228 431 q 218 408 219 413 q 214 399 215 403 q 214 394 213 394 q 222 400 215 394 q 236 411 232 408 q 242 413 240 414 q 233 398 242 410 q 210 369 225 386 q 204 364 207 365 q 201 360 201 361 q 208 357 201 358 q 223 353 215 356 q 235 347 231 350 q 233 344 236 346 q 221 340 231 342 q 201 339 211 339 q 193 338 194 339 q 193 331 192 336 q 194 328 193 329 q 194 292 199 304 q 192 287 193 289 q 190 285 190 285 q 186 288 189 285 q 181 294 183 290 q 176 301 178 297 q 172 306 174 306 q 169 303 171 306 q 167 299 168 301 q 165 296 165 297 q 153 276 160 286 q 142 260 147 267 q 133 253 136 253 q 133 254 133 253 q 133 258 133 256 z "},"+":{"ha":313,"x_min":61,"x_max":269,"o":"m 108 4 q 128 68 111 21 q 135 91 131 79 q 142 110 139 103 q 145 126 146 121 q 140 132 144 131 q 129 132 136 133 q 121 132 125 132 q 98 133 111 132 q 74 136 85 135 q 63 139 64 138 q 61 140 61 139 q 61 144 61 142 q 67 149 61 147 q 87 152 72 151 q 128 153 101 153 q 155 157 149 151 q 165 175 161 163 q 167 179 165 178 q 174 199 169 189 q 181 217 178 210 q 184 223 182 218 q 188 233 186 228 q 192 244 190 240 q 196 250 194 249 q 199 251 197 251 q 185 182 207 249 q 182 172 183 176 q 178 159 178 164 q 188 154 179 154 q 242 151 217 154 q 264 149 258 150 q 267 146 269 149 q 253 142 265 144 q 224 138 240 140 q 194 135 208 135 q 172 131 176 135 q 161 110 167 126 q 131 33 147 67 q 122 16 126 25 q 113 1 117 7 q 108 -4 110 -4 q 108 -2 108 -4 q 108 4 108 0 z "},",":{"ha":126,"x_min":-32,"x_max":51,"o":"m -28 -39 q 11 1 -24 -28 q 30 22 25 14 q 33 33 35 29 q 34 38 33 38 q 38 39 35 39 q 49 31 46 39 q 46 11 51 24 q 40 -1 44 4 q 28 -15 36 -6 q 13 -28 19 -24 q -4 -37 6 -33 q -26 -46 -21 -46 l -32 -46 l -28 -39 z "},"-":{"ha":236,"x_min":54,"x_max":210,"o":"m 65 133 q 56 142 54 136 q 62 146 56 144 q 86 147 68 147 q 108 148 96 147 q 131 149 121 149 q 166 148 147 149 q 197 146 185 147 q 210 143 210 144 q 201 140 208 142 q 182 135 193 138 q 158 131 171 133 q 135 129 146 129 q 104 131 125 129 q 79 131 90 131 q 65 133 68 132 z "},".":{"ha":113,"x_min":15,"x_max":54,"o":"m 19 7 q 17 11 18 8 q 15 15 15 14 q 22 27 15 22 q 37 34 29 32 q 50 32 44 36 q 52 20 54 26 q 43 8 50 14 q 28 3 36 3 q 24 4 26 3 q 19 7 21 6 z "},"/":{"ha":199,"x_min":0,"x_max":311,"o":"m 0 -64 q 10 -40 0 -60 q 31 4 19 -21 q 53 44 43 29 q 76 86 60 57 q 111 146 93 115 q 254 388 213 314 q 282 432 272 417 q 297 451 292 447 q 307 451 303 456 q 310 446 310 450 q 307 432 311 442 q 294 406 303 422 q 265 347 281 376 q 219 269 249 317 q 198 233 208 251 q 183 207 188 215 q 113 93 153 156 q 56 6 74 31 q 30 -30 43 -14 q 8 -56 17 -46 q 0 -64 0 -65 z "},":":{"ha":169,"x_min":43,"x_max":175,"o":"m 47 7 q 44 11 46 8 q 43 15 43 14 q 50 27 43 22 q 65 34 57 32 q 78 32 72 36 q 80 20 82 26 q 71 8 78 14 q 56 3 64 3 q 51 4 54 3 q 47 7 49 6 m 139 192 q 136 196 138 193 q 135 200 135 199 q 142 212 135 207 q 157 218 149 217 q 169 215 165 219 q 173 204 175 211 q 164 192 171 197 q 149 188 157 188 q 144 189 146 188 q 139 192 142 190 z "},";":{"ha":181,"x_min":13,"x_max":174,"o":"m 17 -39 q 56 1 21 -28 q 74 22 69 14 q 78 33 79 29 q 78 38 78 38 q 82 39 79 39 q 93 31 90 39 q 90 11 96 24 q 85 -1 89 4 q 72 -15 81 -6 q 57 -28 64 -24 q 40 -37 50 -33 q 18 -46 24 -46 l 13 -46 l 17 -39 m 138 192 q 135 196 136 193 q 133 200 133 199 q 140 211 133 206 q 156 218 147 217 q 168 215 164 219 q 171 204 174 211 q 162 192 168 197 q 147 188 156 188 q 142 188 144 188 q 138 192 140 189 z "},"<":{"ha":322,"x_min":26,"x_max":303,"o":"m 176 31 q 151 40 169 33 q 111 51 132 46 q 69 65 83 60 q 48 73 54 69 q 39 82 42 76 q 56 119 26 100 q 70 128 63 124 q 91 140 78 133 q 126 157 104 146 q 170 178 144 165 q 217 201 196 190 q 239 213 238 211 q 245 216 240 214 q 258 222 250 218 q 283 233 272 229 q 299 236 294 236 q 302 232 303 235 q 297 228 301 229 q 285 221 294 226 q 264 207 276 215 q 209 174 238 189 q 125 132 181 158 q 79 108 99 119 q 58 93 60 97 q 59 90 57 92 q 67 87 61 89 q 84 81 72 85 q 115 72 96 78 q 183 50 158 60 q 232 25 207 40 q 243 15 246 17 q 230 17 242 15 q 203 24 218 19 q 176 31 188 28 z "},"=":{"ha":274,"x_min":6,"x_max":247,"o":"m 72 214 q 90 216 76 215 q 119 218 103 217 q 157 219 144 219 q 185 217 169 218 q 213 213 199 215 q 236 207 226 210 q 247 203 246 204 q 232 199 247 200 q 194 196 217 197 q 151 196 172 194 q 124 197 139 196 q 97 197 110 197 q 67 199 75 197 q 60 204 60 200 q 72 214 58 211 m 181 86 q 164 85 178 86 q 133 83 150 83 q 96 82 108 82 q 68 85 83 82 q 40 89 54 86 q 17 94 26 92 q 7 99 7 97 q 21 102 6 100 q 58 106 36 104 q 103 106 81 107 q 129 105 114 106 q 156 104 144 104 q 185 103 178 104 q 193 97 193 101 q 181 86 194 90 z "},">":{"ha":326,"x_min":28,"x_max":303,"o":"m 153 219 q 179 210 161 217 q 219 199 197 204 q 260 185 246 190 q 281 177 275 181 q 290 168 288 174 q 274 131 303 150 q 259 122 267 126 q 239 110 251 117 q 203 93 226 104 q 159 72 185 85 q 113 49 133 60 q 90 38 93 39 q 85 35 90 38 q 72 28 79 32 q 47 17 58 21 q 32 14 36 14 q 28 18 28 15 q 32 22 28 21 q 44 29 35 24 q 67 43 54 35 q 121 76 92 61 q 206 118 150 92 q 251 142 231 131 q 272 157 271 154 q 270 160 272 158 q 263 163 268 161 q 245 169 257 165 q 215 178 233 172 q 148 200 172 190 q 97 225 124 210 q 86 235 85 233 q 101 233 89 235 q 127 226 113 231 q 153 219 142 222 z "},"?":{"ha":313,"x_min":103,"x_max":374,"o":"m 111 -14 q 104 -3 106 -10 q 107 9 103 3 q 118 15 111 15 q 135 3 135 15 q 119 -14 136 -8 q 115 -14 118 -14 q 111 -14 113 -14 m 156 103 q 153 125 147 108 q 176 164 160 142 q 207 200 183 174 q 263 264 226 222 q 306 322 292 297 q 328 368 319 346 q 329 372 328 369 q 339 401 338 392 q 335 414 340 411 q 292 413 322 421 q 247 395 267 406 q 200 365 226 385 q 183 353 186 354 q 186 358 181 351 q 274 426 222 400 q 354 444 326 453 q 372 417 372 438 q 373 406 374 410 q 369 394 372 401 q 361 374 367 388 q 326 312 349 344 q 251 218 304 279 q 188 135 192 147 q 185 128 186 132 q 186 119 185 124 q 187 113 188 115 q 185 107 186 110 q 170 100 178 101 q 156 103 163 99 z "},"@":{"ha":586,"x_min":61,"x_max":524,"o":"m 393 331 q 460 315 429 329 q 488 297 475 308 q 506 272 500 285 q 489 156 524 228 q 408 49 456 89 q 325 15 360 8 q 301 46 301 19 q 303 59 301 50 q 308 76 306 68 q 313 88 310 85 q 319 101 315 93 q 325 119 322 110 q 328 133 328 128 q 324 135 328 138 q 310 121 321 133 q 288 99 303 111 q 258 83 272 88 q 239 89 244 78 q 268 147 240 108 q 333 193 300 193 q 365 175 365 196 q 364 171 365 174 q 363 168 364 169 q 364 165 363 167 q 363 163 364 165 q 360 158 363 161 q 357 153 358 156 q 356 149 356 150 q 356 147 356 149 q 354 138 356 143 q 349 122 353 132 q 336 92 346 111 q 327 58 329 74 q 326 36 325 42 q 331 35 328 36 q 339 33 335 33 q 347 32 343 32 q 406 68 368 36 q 444 112 428 88 q 479 175 460 136 q 488 204 483 186 q 494 235 493 222 q 472 283 496 263 q 411 310 449 303 q 323 300 372 315 q 226 257 274 285 q 113 125 135 199 q 109 86 108 108 q 114 49 110 64 q 254 -54 140 -42 q 435 -21 322 -61 q 490 1 471 -7 q 510 10 503 8 l 518 11 l 511 6 q 461 -25 494 -7 q 404 -53 428 -43 q 369 -63 390 -58 q 329 -71 349 -68 q 279 -74 308 -74 q 231 -71 250 -74 l 231 -71 q 89 49 117 -51 q 217 275 61 172 q 393 331 308 332 m 343 174 q 346 175 344 175 q 347 176 347 175 q 342 175 346 176 q 340 175 342 175 q 272 114 308 172 q 269 108 269 108 q 275 113 269 107 q 285 123 278 115 q 299 139 292 131 q 343 174 325 169 z "},"A":{"ha":415,"x_min":-108,"x_max":508,"o":"m 488 446 q 497 444 493 446 q 507 435 504 442 q 507 433 507 435 q 508 431 507 432 q 508 427 508 429 q 508 425 508 425 q 508 424 508 425 q 507 424 508 424 q 507 424 507 424 q 507 422 507 422 q 507 422 507 422 q 507 421 507 421 q 504 417 506 419 q 494 400 500 411 q 463 342 483 379 q 438 299 451 322 q 360 161 403 236 q 332 111 346 136 q 322 96 328 101 q 316 81 314 85 q 340 79 318 76 q 414 79 399 82 q 340 63 383 69 q 311 56 321 60 q 296 46 301 53 q 283 25 290 39 q 275 8 281 18 q 253 -32 264 -12 q 224 -87 239 -60 q 186 -159 203 -129 q 163 -193 169 -189 q 167 -166 158 -193 q 192 -98 175 -139 q 231 -19 208 -57 q 253 19 240 -1 q 261 36 258 29 q 267 51 271 49 q 239 49 264 53 q 236 49 238 49 q 171 42 203 44 q 164 42 167 42 q 116 35 133 39 q 84 19 99 32 q 47 -21 69 7 q 38 -31 46 -22 q 19 -54 31 -40 q 6 -72 14 -62 q -1 -81 3 -76 q 1 -79 0 -81 q 4 -78 3 -79 q -3 -96 1 -89 q -17 -110 -8 -103 q -37 -135 -25 -118 q -67 -165 -56 -150 q -69 -169 -68 -167 q -71 -169 -69 -169 q -71 -171 -71 -171 q -72 -171 -71 -171 q -83 -186 -79 -182 q -86 -189 -85 -187 q -87 -189 -86 -189 q -87 -190 -87 -189 q -87 -190 -87 -190 q -90 -192 -89 -190 q -90 -192 -90 -192 q -92 -192 -90 -192 q -92 -192 -92 -192 q -94 -192 -93 -192 q -95 -193 -94 -193 q -96 -193 -96 -193 q -97 -192 -96 -193 q -99 -192 -97 -192 q -101 -191 -100 -192 q -103 -190 -103 -190 q -103 -190 -103 -190 q -105 -187 -104 -189 q -106 -185 -106 -186 q -107 -185 -107 -185 q -107 -184 -107 -185 q -108 -183 -107 -183 q -108 -181 -108 -182 q -108 -181 -108 -181 q -108 -180 -108 -181 q -108 -179 -108 -179 q -108 -178 -108 -179 q -108 -178 -108 -178 q -108 -176 -108 -176 q -107 -174 -107 -175 q -107 -174 -107 -174 q -106 -172 -107 -172 q -106 -171 -106 -171 q -99 -164 -103 -168 q -94 -158 -96 -161 q -93 -157 -93 -157 q -92 -156 -93 -157 q -49 -101 -75 -135 q -44 -94 -46 -97 q 0 -39 -21 -64 q 3 -35 1 -36 q 29 -3 21 -11 q 42 11 36 6 q 58 31 61 28 q 21 31 54 33 q -57 31 -37 26 q 46 51 -42 40 q 83 60 71 54 q 114 89 96 67 q 263 250 181 163 q 411 396 346 338 q 464 436 442 424 q 485 444 475 443 q 488 446 486 446 m 468 407 q 453 397 465 406 q 428 376 442 389 q 281 229 364 318 q 219 168 250 197 q 133 78 174 121 q 126 65 124 67 q 140 64 129 63 q 147 64 143 64 q 235 72 192 68 q 242 72 239 72 q 272 76 261 74 q 290 89 282 79 q 307 119 297 99 q 324 147 315 135 q 340 175 332 160 q 399 275 372 229 q 439 346 421 313 q 446 356 442 351 q 459 380 453 368 q 468 399 465 392 q 468 407 471 407 z "},"B":{"ha":400,"x_min":-86,"x_max":539,"o":"m 271 450 q 288 440 281 450 q 279 392 292 418 q 278 389 278 390 q 251 326 267 360 q 276 328 213 263 q 343 383 297 347 q 435 439 389 418 q 506 438 482 460 q 506 337 539 393 q 418 235 474 281 q 267 121 342 171 q 258 115 263 118 q 239 103 249 108 q 175 56 199 75 q 163 35 160 42 q 182 24 167 28 q 194 19 188 22 q 251 -4 225 13 q 268 -7 260 -11 q 285 6 276 -3 q 330 42 304 22 q 372 72 356 61 q 395 84 381 76 q 423 98 410 92 q 440 106 436 104 q 442 105 443 107 q 433 97 440 103 q 424 88 429 92 q 415 81 419 83 q 410 76 413 78 q 407 72 407 74 q 401 68 406 72 q 389 60 396 64 q 304 -6 336 21 q 299 -10 301 -7 q 287 -22 289 -17 q 296 -40 285 -28 q 301 -69 304 -54 q 288 -102 300 -85 q 260 -133 276 -119 q 222 -158 240 -150 q 192 -162 203 -165 q 175 -137 174 -157 q 229 -49 176 -107 q 231 -23 244 -32 q 192 -8 218 -14 q 146 11 164 0 q 146 63 126 33 q 208 111 168 90 q 251 140 228 124 q 338 203 290 167 q 424 271 385 239 q 464 317 442 286 q 494 379 486 349 q 476 425 501 410 q 414 403 458 432 q 324 338 369 375 q 258 282 279 301 q 193 203 225 253 q 182 186 188 194 q 121 58 150 119 q 93 -1 107 28 q 82 -28 89 -11 q 47 -104 68 -61 q 3 -179 26 -147 q -42 -212 -19 -211 q -81 -164 -75 -203 q -64 -75 -86 -128 q -7 27 -44 -25 q 111 168 31 79 q 113 169 111 169 q 201 290 164 221 q 219 329 210 310 q 253 399 236 368 q 258 417 258 410 q 246 424 258 425 q 211 408 231 419 q 172 382 192 396 q 132 357 149 367 q 181 402 153 379 q 238 439 210 425 q 253 447 244 443 q 271 450 263 450 m 126 149 q 96 125 117 149 q -46 -78 -8 11 q -60 -142 -56 -108 q -44 -186 -64 -175 q -22 -172 -35 -189 q 2 -133 -10 -154 q 18 -101 14 -111 q 30 -74 25 -85 q 39 -54 35 -64 q 51 -28 44 -43 q 69 11 58 -14 q 108 92 86 46 q 122 121 115 107 q 126 149 136 150 m 267 -44 q 247 -60 260 -44 q 232 -77 239 -68 q 219 -92 225 -86 q 203 -119 211 -104 q 196 -137 196 -133 q 197 -141 196 -140 q 201 -142 197 -142 q 207 -140 203 -142 q 215 -137 211 -139 q 264 -99 244 -124 q 281 -58 283 -75 q 267 -44 272 -44 z "},"C":{"ha":447,"x_min":-54,"x_max":642,"o":"m 414 465 q 493 421 469 465 q 478 243 526 356 q 419 159 451 182 q 374 168 386 136 q 404 276 363 199 q 413 295 408 283 q 421 317 418 307 q 431 342 426 336 q 443 344 436 347 q 450 342 447 342 q 457 344 453 342 q 468 348 464 349 q 476 340 472 347 l 482 333 l 483 340 q 484 367 485 350 q 479 394 483 383 q 419 433 467 432 q 398 434 407 435 q 376 429 389 433 q 104 199 219 375 q 33 26 44 100 q 33 -11 31 8 q 39 -43 35 -31 q 174 -140 72 -117 q 349 -132 260 -151 q 394 -125 372 -129 q 557 -86 497 -103 q 632 -69 611 -72 l 642 -68 l 635 -72 q 604 -83 626 -75 q 535 -106 582 -90 q 442 -133 472 -125 q 378 -150 411 -142 q 349 -158 363 -154 q 331 -162 336 -161 q 288 -170 308 -168 q 235 -174 267 -172 q 169 -171 185 -175 q 72 -125 115 -160 q 75 199 -54 -26 q 289 422 160 343 q 414 465 361 465 m 456 317 q 447 301 449 307 q 447 294 444 294 q 451 298 449 293 q 456 317 454 303 m 472 293 q 463 279 471 293 q 442 253 450 260 q 426 247 435 246 q 419 247 421 249 q 414 239 417 246 q 401 214 407 228 q 394 190 396 200 q 393 184 393 186 q 394 181 393 182 q 396 181 394 181 q 400 182 397 181 q 406 186 403 183 q 464 268 438 208 q 472 293 474 293 z "},"D":{"ha":504,"x_min":-7,"x_max":524,"o":"m 454 454 q 463 454 458 454 q 514 399 500 447 q 504 294 524 354 q 449 164 485 233 q 393 64 422 113 q 358 13 374 33 q 321 -46 339 -12 q 300 -74 310 -61 q 186 -178 231 -164 q 144 -175 163 -186 q 126 -142 128 -162 q 146 -99 126 -117 q 188 -67 163 -81 q 263 -28 228 -43 q 281 -18 272 -22 q 347 40 321 -1 q 426 176 389 104 q 479 301 461 243 q 493 390 499 360 q 465 432 483 429 q 437 430 454 433 q 400 414 419 426 q 235 236 325 360 q 214 201 224 221 q 199 161 204 181 q 146 26 172 92 q 69 -144 104 -79 q 42 -190 54 -175 q 42 -190 42 -190 q 35 -197 39 -194 q 26 -203 32 -200 q 19 -203 24 -203 q 13 -200 15 -203 q 4 -192 7 -196 q 8 -117 -7 -162 q 51 -10 22 -69 q 169 185 99 85 q 203 251 192 214 q 206 261 204 257 q 261 431 242 360 q 235 422 250 431 q 208 406 221 414 q 198 399 203 401 q 192 396 193 396 q 192 398 192 396 q 195 403 193 400 q 201 412 197 407 q 214 424 206 417 q 257 451 238 447 q 268 451 263 451 q 278 447 274 451 q 285 436 283 442 q 285 425 286 431 q 250 313 272 378 q 244 287 242 288 q 258 303 246 286 q 263 307 261 306 q 386 428 328 388 q 454 454 422 454 m 146 101 q 144 101 144 101 q 139 97 143 101 q 129 83 135 93 q 115 61 122 72 q 68 -22 88 17 q 26 -125 39 -81 q 24 -142 25 -133 q 26 -154 24 -150 q 34 -154 29 -158 q 47 -132 39 -150 q 122 36 79 -69 q 136 74 129 54 q 146 101 147 103 m 282 -49 q 282 -49 282 -49 q 274 -47 279 -47 q 261 -49 268 -46 q 199 -82 229 -64 q 160 -112 174 -97 q 151 -129 153 -121 q 149 -142 149 -137 q 151 -149 149 -147 q 157 -153 154 -151 q 158 -153 157 -153 q 165 -155 161 -154 q 178 -153 169 -156 q 216 -129 193 -149 q 274 -65 239 -110 q 282 -52 279 -56 q 282 -49 285 -49 z "},"E":{"ha":344,"x_min":-42,"x_max":607,"o":"m 51 -174 q -37 -118 -21 -164 q -41 -108 -40 -112 q -42 -97 -42 -103 q -42 -79 -42 -90 q -36 -44 -40 -58 q -21 -6 -32 -29 q 94 128 13 61 q 96 129 96 129 q 125 152 114 143 q 152 172 136 161 q 201 207 168 183 q 204 208 203 207 q 272 258 246 238 q 299 283 297 278 q 279 296 299 289 q 229 306 260 303 q 206 310 217 307 q 192 314 194 313 q 182 326 185 318 q 182 340 179 333 q 201 363 186 353 q 256 389 215 372 q 428 443 368 436 q 456 442 447 444 q 468 428 464 439 q 468 397 476 411 q 431 361 460 382 q 419 351 424 356 q 413 344 414 346 q 408 342 410 339 q 406 354 406 344 q 413 370 406 361 q 431 389 421 379 q 436 394 433 392 q 442 406 444 401 q 432 413 439 411 q 419 413 425 414 q 415 411 417 413 q 382 404 397 408 q 331 388 360 399 q 278 367 301 376 q 264 361 269 364 q 258 358 261 360 q 239 348 247 353 q 232 338 231 343 q 249 329 233 333 q 276 322 263 325 q 318 311 306 318 q 328 301 325 306 q 329 286 331 296 q 279 232 315 254 q 243 204 263 221 l 163 146 q -1 -24 38 56 q -18 -94 -25 -69 q 31 -137 -11 -119 q 143 -153 74 -156 q 192 -148 165 -151 q 260 -139 218 -144 q 410 -117 313 -131 q 515 -101 461 -110 q 581 -91 556 -94 q 601 -90 607 -87 q 519 -112 581 -97 q 393 -140 457 -126 q 51 -174 154 -189 z "},"F":{"ha":403,"x_min":-49,"x_max":622,"o":"m 358 588 q 367 581 365 588 q 365 556 369 574 q 362 538 364 546 q 360 528 360 531 q 357 526 356 522 q 351 504 360 540 q 328 435 339 464 q 326 428 328 432 q 322 415 321 418 q 328 412 324 411 q 340 414 333 413 q 342 414 340 414 q 485 435 411 436 q 518 434 506 435 q 546 431 531 433 q 598 415 575 424 q 622 401 621 407 q 606 400 621 400 q 573 402 592 400 q 539 407 554 404 q 396 407 476 419 q 366 402 378 404 q 342 396 354 400 q 317 386 324 393 q 306 368 310 379 q 304 363 304 365 q 278 308 293 339 q 250 250 264 276 q 240 231 242 236 q 242 226 239 226 q 251 229 244 226 q 263 232 256 231 q 394 259 322 249 q 525 271 465 269 q 517 257 600 276 q 473 249 504 254 q 415 239 442 243 q 244 206 325 226 q 222 193 229 201 q 208 171 215 185 q 199 153 204 163 q 183 122 192 140 q 168 93 175 106 q 135 32 150 60 q 101 -29 118 1 q 60 -104 81 -68 q 38 -144 47 -126 q 7 -190 22 -172 q -15 -207 -8 -207 q -19 -206 -17 -207 q -24 -204 -21 -206 l -24 -204 q -31 -181 -33 -200 q -17 -6 -14 -96 q -21 92 -15 54 q -22 93 -22 92 q -24 101 -22 97 q -27 106 -25 104 q -33 106 -29 107 q -39 103 -36 104 q -40 103 -40 103 q -43 103 -42 103 q -46 104 -44 103 q -48 107 -47 106 q -49 110 -49 108 q -47 114 -49 113 q -42 119 -46 117 q -31 125 -37 125 q -21 121 -25 125 q -21 121 -21 121 q -21 121 -21 121 q -19 121 -19 121 q -18 122 -18 122 q -17 122 -18 122 q 6 135 -8 128 q 168 203 75 171 q 199 219 189 210 q 214 242 208 229 q 226 264 219 250 q 229 269 228 267 q 274 363 260 329 q 276 374 279 374 q 263 369 272 374 q 230 356 249 364 q 200 342 211 347 q 169 324 179 331 q 147 311 158 318 q 135 304 140 307 q 129 301 131 301 q 134 306 129 301 q 147 317 139 310 q 258 383 193 353 q 261 383 260 383 q 280 393 272 388 q 293 410 288 399 q 338 547 311 457 q 349 580 344 572 q 358 588 353 588 m 179 186 q 167 182 176 186 q 151 177 158 179 q 138 174 143 175 q 3 119 85 156 q -3 118 0 118 q -14 110 -11 114 q -12 93 -17 106 q -7 -6 -6 54 q -11 -115 -7 -65 q -12 -154 -12 -137 q -11 -171 -14 -169 q 0 -156 -8 -172 q 24 -115 10 -140 q 44 -76 29 -103 q 74 -21 58 -50 q 102 32 89 8 q 119 64 115 56 q 130 84 124 72 q 142 106 136 96 q 155 130 147 115 q 169 157 163 144 q 176 172 174 167 q 182 183 181 179 q 179 186 183 186 z "},"G":{"ha":514,"x_min":-6,"x_max":479,"o":"m 394 450 q 431 440 417 450 q 446 411 444 429 q 424 340 447 378 q 356 254 396 290 q 310 222 328 233 q 304 219 307 221 q 316 236 313 231 q 324 247 319 242 q 338 265 328 253 q 370 307 353 283 q 400 353 388 331 q 419 408 421 389 q 414 419 419 417 q 393 424 410 424 q 257 365 339 421 q 108 231 175 310 q 28 86 42 151 q 35 32 24 54 q 88 -8 49 7 q 179 3 119 -22 q 311 76 244 32 q 397 139 358 108 q 422 158 411 150 q 439 174 433 167 q 447 182 443 178 q 457 188 453 186 q 472 188 465 192 q 479 175 479 185 q 478 172 478 174 q 404 36 440 96 q 399 26 401 31 q 394 13 392 15 q 411 11 396 11 q 419 11 415 11 q 443 6 431 10 q 465 -1 456 3 q 422 -10 447 -10 q 406 -11 414 -10 q 374 -17 383 -10 q 353 -47 364 -25 q 338 -71 346 -60 q 200 -181 271 -162 q 163 -175 178 -186 q 153 -143 149 -161 q 200 -65 160 -106 q 335 4 250 -17 q 339 4 338 4 q 356 10 349 7 q 368 25 363 14 q 415 108 390 63 q 415 110 415 108 q 423 127 425 126 q 399 113 421 128 q 322 60 364 88 q 189 -14 256 15 q 71 -28 122 -43 q 11 19 28 -12 q 3 89 -6 50 q 88 246 18 165 q 242 386 157 328 q 394 450 326 446 m 317 -56 q 329 -39 324 -46 q 342 -17 344 -21 q 308 -26 340 -14 q 258 -52 283 -36 q 215 -83 232 -68 q 178 -143 179 -121 q 178 -151 176 -147 q 181 -154 179 -154 q 185 -156 181 -156 q 196 -154 189 -157 q 317 -56 251 -143 z "},"H":{"ha":489,"x_min":-26,"x_max":600,"o":"m 272 -268 q 283 -200 275 -236 q 297 -137 292 -164 q 317 -77 304 -114 q 339 -15 329 -40 q 456 222 385 100 q 464 239 463 233 q 463 244 465 244 q 454 240 460 243 q 442 232 449 236 q 438 229 440 231 q 231 147 349 171 q 211 144 219 144 q 191 143 203 143 q 158 143 179 143 q 138 143 146 143 q 117 142 125 144 q 101 122 110 139 q 31 -29 60 44 q -4 -139 1 -103 q -4 -145 -4 -143 q -3 -148 -4 -147 q -1 -149 -3 -149 q 8 -149 3 -149 q 16 -151 13 -150 q 19 -154 19 -153 q 13 -161 19 -157 q -1 -168 7 -165 q -8 -169 -6 -169 q -15 -167 -11 -168 q -24 -158 -22 -164 q -25 -139 -26 -151 q 6 -37 -21 -106 q 72 111 32 32 q 85 136 79 126 q 86 147 89 144 q 76 151 83 150 q 69 153 74 151 q 65 154 67 154 q 63 154 63 154 q 58 154 61 153 q 49 158 54 156 q 39 164 43 161 q 35 167 35 167 q 35 170 35 168 q 36 174 35 172 q 44 178 39 178 q 56 176 49 179 q 65 174 58 175 q 79 171 71 172 q 101 169 94 165 q 111 185 107 174 q 115 190 113 188 q 148 245 128 213 q 181 297 168 278 q 191 315 182 301 q 211 347 200 329 q 250 411 235 388 q 274 448 265 435 q 287 466 282 461 q 294 472 292 471 q 299 474 297 474 q 304 472 301 474 q 307 469 306 471 q 308 462 308 467 q 306 449 307 457 q 300 425 304 440 q 298 422 299 418 q 297 438 297 426 l 299 453 l 285 431 q 272 408 279 421 q 260 388 264 396 q 168 238 228 335 q 139 189 150 210 q 128 167 128 172 q 146 163 129 163 q 174 163 160 163 q 197 164 189 163 q 233 170 214 167 q 264 176 251 174 q 326 197 293 185 q 385 222 360 210 q 438 254 413 236 q 447 263 442 258 q 508 321 483 288 q 549 383 531 357 q 575 419 567 410 q 596 419 586 429 q 599 416 599 418 q 599 410 600 414 q 581 370 596 397 q 544 319 565 343 q 535 307 540 315 q 524 292 529 299 q 517 282 518 285 q 476 215 504 267 q 421 108 447 163 q 360 -22 383 36 q 319 -147 338 -79 q 274 -279 283 -269 q 272 -268 272 -282 z "},"I":{"ha":218,"x_min":0,"x_max":310,"o":"m 0 -203 q 6 -160 0 -193 q 18 -89 11 -126 q 29 -32 25 -51 q 171 274 64 108 q 195 313 186 299 q 210 335 204 326 q 222 354 215 344 q 233 372 232 369 q 228 367 233 374 q 205 342 218 357 q 178 312 192 326 q 160 289 165 297 q 122 222 125 244 q 115 219 121 207 q 179 344 99 249 q 244 420 214 386 q 278 458 274 454 q 299 464 289 468 q 304 444 310 457 q 285 408 303 438 q 219 308 267 379 q 112 124 150 201 q 53 -35 74 46 q 44 -65 49 -46 q 33 -100 39 -83 q 25 -131 29 -117 q 19 -149 21 -144 q 15 -167 18 -156 q 8 -190 11 -179 q 1 -204 4 -200 q 1 -207 1 -207 q 0 -203 0 -207 z "},"J":{"ha":443,"x_min":-56,"x_max":504,"o":"m 456 451 q 415 447 436 454 q 324 403 371 433 q 240 343 276 372 q 192 300 203 314 q 168 268 174 282 q 167 260 168 264 q 169 251 167 256 q 188 250 175 243 q 215 272 201 257 q 232 296 229 288 q 203 274 222 286 q 210 281 210 281 q 210 282 210 282 q 210 282 210 282 q 210 282 210 282 q 214 288 211 285 q 251 325 224 301 q 254 326 253 326 q 331 383 288 354 q 380 410 354 397 q 425 428 406 422 q 448 428 435 429 q 468 418 461 426 q 472 403 471 415 q 468 372 472 390 q 436 278 460 333 q 300 42 386 164 q 129 -142 214 -82 q 56 -171 88 -169 q 4 -142 26 -172 q -18 -56 -29 -92 q 26 13 -10 -15 q 119 47 67 38 q 204 36 171 57 q 115 55 171 57 q 17 29 60 53 q -42 -47 -28 1 q -17 -156 -56 -97 q 58 -196 14 -196 q 144 -164 100 -194 q 322 26 235 -99 q 460 267 408 150 q 493 365 483 322 q 489 432 504 406 q 456 451 475 449 z "},"K":{"ha":231,"x_min":-24,"x_max":710,"o":"m 299 465 q 306 464 301 465 q 311 444 317 457 q 289 408 308 438 q 219 308 269 379 q 190 267 204 286 q 174 240 176 246 q 178 236 172 233 q 197 246 185 239 q 210 254 203 250 q 460 376 303 307 q 710 447 618 446 q 653 422 708 443 q 578 390 621 410 q 337 285 461 342 q 176 204 213 229 q 172 201 175 203 q 140 179 156 192 q 115 147 124 167 q 54 15 78 79 q 51 10 53 13 q 47 -8 47 0 q 54 -24 46 -17 q 171 -96 101 -67 q 306 -146 240 -125 q 374 -169 344 -158 q 274 -153 339 -171 q 146 -108 210 -135 q 50 -56 82 -81 q 47 -54 49 -54 q 38 -47 42 -47 q 32 -51 35 -46 q 25 -69 29 -56 q 15 -100 19 -85 q 5 -131 10 -117 q -1 -149 0 -144 q -7 -167 -3 -156 q -15 -190 -11 -179 q -22 -204 -19 -200 q -24 -207 -24 -207 q -24 -203 -24 -207 q -17 -161 -24 -193 q -2 -94 -10 -129 q 11 -37 6 -58 q 7 1 19 -18 q 1 56 -3 28 q 56 144 11 101 q 93 176 72 161 q 94 178 93 178 q 138 226 121 196 q 169 274 153 250 q 196 313 186 299 q 212 335 206 326 q 225 354 218 344 q 236 372 235 369 q 231 367 238 374 q 206 342 221 357 q 178 312 192 326 q 158 289 165 297 q 118 222 122 244 q 111 219 117 207 q 181 344 96 249 q 249 420 218 386 q 285 458 279 454 q 299 465 293 465 m 68 106 q 79 128 79 125 q 61 113 79 132 q 28 51 33 81 q 26 38 26 46 q 27 25 26 31 q 30 20 28 19 q 36 32 32 21 q 68 106 50 68 z "},"L":{"ha":324,"x_min":-56,"x_max":594,"o":"m 172 463 q 222 434 204 461 q 242 372 239 407 q 211 165 244 283 q 168 19 199 115 q 161 0 164 8 q 155 -32 151 -22 q 189 -43 158 -42 q 446 -111 322 -62 q 489 -137 456 -115 q 555 -185 522 -158 q 594 -231 588 -212 q 563 -215 585 -228 q 515 -185 542 -201 q 435 -137 468 -153 q 185 -69 315 -90 q 167 -67 174 -68 q 147 -65 154 -64 q 137 -72 140 -65 q 128 -94 133 -79 q 124 -106 126 -100 q 67 -225 92 -190 q 76 -186 67 -219 q 100 -106 85 -153 q 106 -90 103 -97 q 109 -61 114 -67 q 75 -56 104 -56 q 58 -56 68 -56 q -26 -79 11 -56 q -35 -101 -39 -89 q -22 -128 -32 -112 q -6 -160 -11 -143 q -36 -131 -22 -149 q -56 -96 -50 -112 q -44 -65 -56 -78 q -17 -46 -33 -53 q 72 -33 18 -33 q 94 -33 86 -33 q 115 -33 108 -35 q 126 -22 122 -31 q 136 4 131 -14 q 140 17 138 10 q 172 116 158 74 q 185 172 185 158 q 214 369 217 290 q 161 461 213 429 q 172 463 165 463 z "},"M":{"ha":461,"x_min":-62,"x_max":611,"o":"m 599 475 q 608 469 604 475 q 606 456 611 463 q 523 336 575 415 q 422 161 471 257 q 378 63 404 128 q 336 -69 353 -3 q 331 -172 319 -135 q 322 -108 315 -171 q 351 35 328 -46 q 403 172 374 117 q 525 378 465 292 q 532 396 535 393 q 508 383 529 399 q 408 282 461 339 q 293 152 346 215 q 213 53 240 89 q 203 47 208 47 q 195 51 199 47 q 193 63 192 56 q 222 157 206 106 q 282 400 268 278 q 276 409 282 407 q 264 404 271 411 q 178 274 228 354 q 86 118 128 192 q 32 17 44 44 q 16 -18 28 7 q -8 -71 4 -43 q -32 -121 -22 -100 q -39 -135 -36 -129 q -39 -135 -39 -135 q -42 -139 -40 -137 q -42 -139 -42 -139 q -42 -140 -42 -139 q -43 -142 -42 -140 q -43 -142 -43 -142 q -44 -142 -43 -142 q -44 -143 -44 -143 q -46 -143 -46 -144 q -45 -143 -44 -143 q -46 -144 -46 -143 q -47 -144 -46 -144 q -49 -146 -47 -144 q -50 -146 -50 -147 q -50 -145 -49 -146 q -53 -144 -51 -144 q -56 -144 -56 -144 q -57 -144 -57 -144 q -59 -144 -58 -144 q -60 -142 -60 -143 q -62 -139 -61 -140 q -62 -137 -62 -137 q -62 -137 -62 -137 q -62 -137 -62 -137 q -62 -135 -62 -136 q -62 -135 -62 -135 q -62 -133 -62 -133 q -62 -132 -62 -132 q -62 -131 -62 -132 q -61 -131 -61 -131 q -18 -28 -51 -97 q 4 22 -7 -4 q 53 131 28 74 q 119 290 90 213 q 158 421 149 368 q 146 415 150 417 q 100 389 126 407 q 67 362 82 376 q 38 326 51 347 q 42 346 36 335 q 56 368 47 357 q 101 407 75 389 q 147 436 126 426 q 165 442 157 440 q 170 441 168 442 q 175 439 172 440 q 181 433 179 436 q 181 425 182 429 q 138 275 174 367 q 160 286 82 144 q 247 418 210 367 q 278 454 264 442 q 278 454 278 454 q 285 459 282 457 q 294 461 289 461 q 300 458 297 460 q 304 454 303 457 q 307 444 307 449 q 290 296 310 371 q 246 153 271 221 q 244 133 240 138 q 265 150 249 129 q 393 299 318 217 q 510 415 456 365 q 596 475 560 464 q 599 475 597 475 z "},"N":{"ha":438,"x_min":-46,"x_max":507,"o":"m 497 481 q 497 481 497 481 q 503 479 501 481 q 504 475 504 478 q 506 456 507 465 q 499 429 504 443 q 472 354 490 399 q 381 147 436 264 q 328 40 365 114 q 250 -107 292 -33 q 182 -211 208 -181 q 219 -124 185 -193 q 292 19 253 -56 q 333 103 315 67 q 357 153 351 139 q 449 358 413 269 q 475 431 467 403 q 474 453 481 450 q 447 450 468 456 q 354 393 407 438 q 183 217 269 322 q 56 43 110 125 q 43 18 49 32 q 28 -11 35 1 q -8 -74 6 -50 q -19 -90 -15 -83 q -19 -90 -19 -90 q -22 -93 -21 -92 q -25 -96 -22 -94 q -25 -97 -25 -96 q -29 -99 -26 -99 q -37 -100 -32 -100 q -42 -98 -40 -100 q -44 -94 -44 -96 q -46 -92 -46 -93 q -46 -89 -46 -90 q -46 -89 -46 -89 q -40 -69 -44 -79 q -26 -43 -35 -58 q 18 32 -10 -11 q 26 43 22 38 q 35 53 31 49 q 43 69 39 61 q 97 181 72 124 q 144 343 143 286 q 132 372 144 368 q 111 376 121 376 q 85 372 101 375 q 82 371 82 371 q 138 395 110 393 q 171 350 165 397 q 144 235 171 303 q 128 188 126 194 q 165 229 131 182 q 340 411 251 336 q 497 481 428 489 z "},"O":{"ha":486,"x_min":-50,"x_max":483,"o":"m 244 529 q 258 522 254 529 q 264 494 263 515 q 265 468 264 482 q 265 443 265 454 l 264 415 l 276 415 q 315 411 290 415 q 357 403 340 407 q 433 361 404 389 q 463 218 483 304 q 352 12 432 115 q 186 -139 272 -92 q 57 -164 113 -178 q 6 -135 26 -157 q -19 56 -50 -81 q 15 168 -8 106 q 67 285 38 231 q 69 292 68 289 q 78 313 75 303 q 76 328 82 322 q 69 347 69 336 q 74 368 68 358 q 117 396 83 385 q 141 412 132 401 q 158 436 150 422 q 213 509 194 489 q 244 529 232 529 m 244 499 q 204 451 238 499 q 194 438 199 443 q 183 416 179 421 q 222 415 188 411 l 257 417 l 257 431 q 254 447 256 436 q 251 469 253 458 q 248 489 250 481 q 246 499 246 497 q 244 499 244 499 m 251 388 q 243 388 249 388 q 228 386 238 388 q 201 385 215 386 q 176 381 186 383 q 175 381 175 381 q 156 375 164 379 q 142 358 149 371 q 142 357 142 357 q 130 333 132 343 q 146 315 128 322 q 226 288 169 307 q 270 273 247 281 q 310 258 293 265 q 331 249 328 251 q 332 248 332 247 q 328 249 332 249 q 315 249 325 249 q 211 266 265 253 q 124 296 157 279 q 106 297 111 301 q 97 283 100 293 q 90 268 94 276 q 18 88 43 176 q -1 -54 -7 0 q 22 -114 3 -94 q 67 -135 39 -131 q 125 -133 96 -140 q 350 46 238 -111 q 439 268 442 179 q 435 309 440 292 q 415 340 431 326 q 285 386 376 379 q 267 387 272 388 q 263 383 261 386 q 263 385 261 385 q 258 387 261 386 q 251 388 256 388 z "},"P":{"ha":411,"x_min":-96,"x_max":446,"o":"m 261 481 q 328 479 297 486 q 425 401 404 460 q 424 271 446 343 q 240 25 376 118 q 94 -6 172 -11 q 78 -3 85 -6 q 56 -2 65 0 q 40 -22 47 -4 q 18 -74 29 -49 q -7 -129 4 -106 q -25 -168 -17 -151 q -33 -183 -31 -178 q -36 -190 -35 -187 q -43 -204 -39 -199 q -58 -211 -47 -210 q -59 -210 -58 -211 q -61 -206 -60 -208 q -63 -203 -62 -204 q -64 -201 -64 -201 q -60 -174 -65 -189 q -46 -136 -54 -157 q -6 -39 -29 -93 q 6 -8 4 -18 q 3 6 8 1 q -14 14 -1 10 q -42 25 -25 17 q -83 53 -68 38 q -93 72 -90 61 q -92 96 -96 83 q -46 131 -79 119 q -18 138 -36 135 q 17 140 0 140 q 42 135 35 140 q 13 128 26 131 q -39 115 -6 126 q -51 108 -47 111 q -58 101 -56 104 q -60 97 -60 97 q -60 97 -60 97 q -62 92 -61 96 q -62 85 -62 89 q -58 76 -61 81 q -24 54 -49 65 q -21 53 -22 53 q 24 40 11 35 q 51 89 36 46 q 58 106 56 97 q 72 139 68 126 q 140 357 125 268 q 132 419 149 400 q 131 419 131 419 q 122 418 126 418 q 117 419 119 418 q 113 421 115 419 q 110 426 111 422 q 109 433 108 429 q 110 439 110 436 q 115 446 113 443 q 115 446 115 446 q 128 457 121 453 q 146 463 136 463 q 152 460 150 463 q 157 456 154 458 q 161 457 158 457 q 190 465 174 461 q 261 481 224 475 m 258 449 q 192 435 224 444 q 182 433 186 435 q 165 427 171 432 q 160 406 160 422 q 146 319 156 360 q 122 231 136 278 q 115 207 118 219 q 140 265 128 236 q 172 340 158 306 q 193 393 186 374 q 199 401 194 397 q 204 406 201 404 q 210 408 207 408 q 218 408 215 410 q 222 407 221 407 q 224 406 222 406 q 227 400 226 404 q 228 390 228 396 q 228 389 228 389 q 217 361 226 379 q 207 340 211 351 q 208 348 207 343 q 208 360 208 353 q 210 371 210 365 q 211 378 211 376 q 210 377 211 381 q 206 363 208 374 q 145 219 182 304 q 69 49 108 135 q 74 27 64 33 q 97 21 85 21 q 219 42 169 14 q 328 139 278 78 q 399 265 379 200 q 404 381 419 331 q 315 450 385 431 q 258 449 292 454 z "},"Q":{"ha":515,"x_min":-21,"x_max":501,"o":"m 381 467 q 444 439 418 467 q 468 354 468 404 q 451 250 468 304 q 438 211 446 229 q 432 203 435 207 q 426 189 428 196 q 431 174 424 182 q 450 101 447 136 q 364 -81 449 -8 q 346 -108 335 -107 q 389 -101 357 -110 q 440 -90 414 -94 q 486 -87 467 -85 q 486 -87 486 -87 q 489 -87 488 -87 q 493 -87 490 -87 q 499 -93 496 -89 q 501 -100 501 -97 q 501 -106 501 -104 q 499 -108 500 -107 q 499 -108 499 -108 q 496 -112 497 -111 q 490 -118 493 -115 q 488 -121 489 -119 q 456 -135 474 -132 q 470 -123 464 -129 q 478 -112 476 -117 q 40 -235 253 -137 q 23 -236 29 -236 q 13 -235 17 -236 q 7 -233 10 -235 q 3 -232 6 -233 q 32 -211 8 -225 q 65 -197 49 -204 q 100 -185 83 -190 q 118 -178 110 -181 q 143 -165 143 -169 q 104 -154 143 -161 q 21 -87 51 -139 q 19 108 -21 0 q 139 308 60 215 q 303 446 218 401 q 381 467 343 467 m 381 439 q 315 421 351 439 q 161 290 238 381 q 46 99 83 200 q 46 -74 10 -1 q 178 -135 89 -144 q 270 -111 222 -132 q 356 -58 318 -90 q 429 93 431 4 q 426 113 428 101 q 421 132 424 124 q 412 152 417 149 q 394 138 407 156 q 358 110 379 119 q 311 111 338 101 q 328 117 319 114 q 362 132 346 122 q 389 164 378 142 q 396 185 394 172 q 392 206 397 197 q 322 283 367 244 q 311 291 317 288 q 301 293 306 294 q 293 279 296 292 q 290 268 292 274 q 286 246 289 257 q 281 261 283 254 q 274 293 274 275 q 276 310 274 303 q 276 311 276 311 q 278 315 276 313 q 283 321 279 318 q 293 324 288 324 q 301 321 299 322 q 393 236 360 279 q 410 221 403 224 q 426 235 418 218 q 431 249 429 242 q 433 258 432 254 q 449 354 449 310 q 429 424 447 401 q 407 436 419 433 q 381 439 394 439 l 381 439 z "},"R":{"ha":433,"x_min":-32,"x_max":468,"o":"m 275 458 q 439 367 400 454 q 439 217 468 301 q 318 57 410 133 q 242 13 293 36 q 190 -4 219 4 q 176 -8 183 -7 q 161 -16 163 -12 q 168 -29 160 -19 q 176 -39 172 -33 q 260 -137 217 -100 q 303 -157 282 -154 q 325 -158 310 -158 q 356 -156 340 -158 q 379 -150 371 -154 q 343 -178 358 -171 q 300 -185 328 -186 q 244 -161 269 -181 q 154 -58 194 -118 q 138 -39 149 -49 q 114 -31 128 -29 q 79 -37 96 -35 q 74 -39 76 -39 q 60 -42 65 -39 q 50 -57 54 -46 q 21 -118 36 -87 q 1 -161 11 -139 q -12 -176 -4 -172 q -26 -176 -21 -181 q -28 -161 -32 -172 q 21 -57 -3 -110 q 24 -53 22 -56 q 26 -42 26 -46 q 17 -36 26 -37 q -1 -24 7 -32 q -10 -6 -8 -17 q 4 43 -12 15 q 30 65 14 57 q 58 74 46 74 q 74 74 69 74 q 80 73 78 72 q 84 77 82 74 q 89 89 86 81 q 94 100 92 93 q 193 317 143 206 q 197 325 194 319 q 201 334 199 329 q 203 341 203 339 q 201 341 204 343 q 192 332 199 339 q 185 326 189 329 q 169 313 176 318 q 161 304 163 307 l 174 329 q 185 347 181 339 q 203 374 193 361 q 231 399 213 386 q 253 407 250 411 q 250 385 257 403 q 118 92 179 225 q 114 82 117 88 q 105 60 107 71 q 114 42 103 50 q 128 24 121 33 q 142 11 135 13 q 165 17 150 10 q 225 38 196 26 q 272 61 251 50 q 301 79 293 72 q 410 222 385 149 q 411 350 436 294 q 326 421 388 401 q 168 410 265 440 q 143 403 153 407 q 135 395 133 399 q 158 390 138 392 q 165 390 161 390 q 181 388 172 389 q 149 378 168 381 q 117 381 131 375 q 106 404 104 386 q 114 418 108 413 q 126 426 119 424 q 238 457 188 451 q 275 458 257 458 m 53 49 q 24 35 42 50 q 17 19 19 28 q 17 2 15 10 q 28 -8 19 -6 q 44 -6 39 -11 q 53 10 49 0 q 58 21 54 15 q 60 26 58 24 q 65 42 65 35 q 53 49 65 49 m 100 14 q 99 15 99 14 q 88 23 92 24 q 79 7 85 22 q 75 -7 74 -4 q 90 -6 76 -10 q 108 1 106 -3 q 100 14 110 4 z "},"S":{"ha":349,"x_min":-24,"x_max":407,"o":"m 375 451 q 403 436 393 451 q 405 429 404 432 q 406 423 406 426 q 407 413 407 419 q 403 384 407 399 q 390 349 400 369 q 365 294 382 328 q 328 224 349 260 q 288 149 301 176 q 269 107 274 122 q 265 79 264 92 q 264 69 264 74 q 264 65 264 65 q 261 69 263 67 q 259 77 260 72 q 258 86 258 82 q 269 134 258 104 q 311 224 281 164 q 335 274 324 250 q 351 308 347 299 q 385 401 378 365 q 378 424 388 422 q 349 414 368 425 q 272 365 308 394 q 185 288 235 336 q 54 126 96 197 q 36 35 4 53 q 49 29 42 32 q 71 23 57 26 q 110 15 85 19 q 170 1 149 7 q 203 -8 192 -4 q 219 -7 213 -11 q 235 4 226 -3 q 238 7 236 6 q 283 43 257 24 q 325 74 308 63 q 347 85 332 78 q 374 99 361 93 q 392 107 388 106 q 393 106 394 107 q 386 97 392 104 q 376 89 382 93 q 368 82 371 85 q 363 77 365 79 q 358 74 360 75 q 352 69 357 72 q 342 61 347 65 q 257 -4 288 21 q 251 -8 254 -6 q 239 -22 242 -15 q 247 -40 236 -28 q 254 -68 256 -53 q 240 -101 251 -83 q 211 -133 229 -118 q 173 -157 192 -149 q 143 -161 154 -165 q 126 -137 126 -157 q 181 -47 128 -106 q 182 -46 182 -46 q 192 -31 192 -36 q 176 -22 193 -25 q 113 -8 151 -15 q 44 8 67 0 q 14 28 22 17 q 40 158 -24 64 q 160 302 88 229 q 294 415 232 375 q 333 436 311 425 q 363 450 354 447 q 375 451 369 451 m 232 -57 q 217 -44 224 -42 q 199 -58 210 -46 q 184 -76 192 -67 q 172 -90 176 -85 q 155 -117 163 -103 q 147 -136 147 -132 q 149 -140 147 -139 q 153 -140 150 -140 q 160 -140 156 -140 q 168 -136 164 -139 q 217 -99 197 -122 q 232 -57 236 -75 z "},"T":{"ha":276,"x_min":3,"x_max":863,"o":"m 86 542 q 91 540 89 542 q 94 539 93 539 q 101 529 99 535 q 106 524 104 526 q 115 509 111 514 q 127 502 119 504 q 151 497 135 500 q 222 492 189 493 q 264 490 254 490 q 506 492 417 490 q 700 497 596 494 q 808 501 747 500 l 863 500 q 773 479 810 483 q 696 474 736 475 q 643 472 672 474 q 453 468 546 469 q 415 460 428 468 q 389 422 401 451 q 276 226 333 331 q 178 35 218 121 q 151 -19 169 17 q 111 -90 133 -54 q 68 -150 89 -126 q 44 -167 58 -161 q 29 -167 38 -169 q 17 -160 21 -165 l 15 -160 l 15 -158 q 22 -61 3 -124 q 24 -51 24 -56 q 69 93 43 21 q 115 233 96 163 q 129 376 133 304 q 101 464 121 433 q 99 471 100 467 q 92 482 96 476 q 81 489 88 488 q 61 508 67 496 q 69 536 58 522 q 77 540 72 539 q 86 542 82 542 m 143 474 q 138 474 140 474 q 122 476 124 476 q 125 471 121 475 q 138 439 132 463 q 149 385 144 417 q 138 260 156 328 q 96 122 121 193 q 47 -53 63 31 q 40 -140 32 -119 q 42 -144 43 -136 q 41 -144 42 -144 q 38 -143 40 -143 q 49 -135 40 -143 q 88 -81 65 -117 q 126 -11 108 -46 q 153 42 144 24 q 251 233 193 129 q 363 429 308 338 q 375 464 381 458 q 335 467 369 469 q 333 467 335 467 q 260 465 304 465 q 216 467 250 465 q 143 474 182 468 z "},"U":{"ha":414,"x_min":-94,"x_max":522,"o":"m 299 -187 q 290 -183 293 -185 q 283 -180 286 -182 q 274 -174 279 -178 q 247 -129 254 -157 q 244 -51 240 -101 q 307 179 250 43 q 315 197 314 193 q 312 199 315 201 q 303 190 308 196 q 293 176 299 183 q 200 63 243 113 q -11 -111 51 -112 q -35 -108 -25 -112 q -56 -94 -46 -104 q -89 4 -86 -65 q 7 361 -94 146 q 69 474 50 451 q 78 481 75 478 q 83 483 81 483 q 88 483 85 483 q 101 467 101 481 q 95 442 101 461 q 78 396 89 422 q 49 311 54 340 q 47 298 47 303 q 44 293 46 293 q 43 297 44 292 q 42 309 42 301 q 42 324 42 317 q 58 394 46 349 q 64 413 63 406 q 65 419 65 419 q 60 410 65 419 q 47 385 54 400 q -64 6 -69 153 q -36 -79 -60 -58 q -27 -84 -31 -83 q -14 -85 -24 -85 q 34 -66 6 -86 q 108 0 63 -46 q 165 61 139 32 q 232 140 190 90 q 426 413 344 278 q 448 445 439 432 q 460 460 457 458 q 473 457 467 463 q 476 444 479 451 q 467 427 476 442 q 444 392 458 413 q 336 181 376 278 q 328 164 332 172 q 322 151 325 156 q 302 95 314 131 q 283 32 290 60 q 274 -11 276 10 q 269 -58 271 -32 q 271 -119 267 -99 q 288 -151 275 -139 q 324 -171 301 -165 q 389 -165 346 -176 q 453 -144 425 -157 q 521 -122 485 -128 q 508 -131 522 -124 q 473 -149 494 -139 q 431 -169 451 -160 q 394 -185 410 -179 q 299 -187 329 -203 z "},"V":{"ha":367,"x_min":-1,"x_max":529,"o":"m 54 -161 q 0 -18 -1 -146 q 3 19 0 -4 q 14 93 6 43 q 25 163 19 131 q 33 208 31 194 q 53 293 44 251 q 65 351 63 335 q 67 364 67 361 q 64 363 67 367 q 61 353 63 360 q 60 339 60 347 q 58 326 58 332 q 57 321 57 321 q 53 328 56 321 q 50 343 51 335 q 49 357 49 351 q 56 382 50 368 q 69 408 61 396 q 83 424 78 421 q 91 426 89 426 q 96 422 93 426 q 100 419 99 421 q 101 412 101 417 q 100 397 101 407 q 67 231 96 351 q 40 93 51 165 q 29 -14 29 21 q 114 -111 29 -186 q 271 128 172 -64 q 467 464 367 313 q 489 478 529 560 q 475 451 482 464 q 465 431 468 438 q 451 406 461 424 q 431 365 442 388 q 405 318 419 344 q 379 272 390 292 q 354 227 368 253 q 329 179 340 201 q 268 65 290 107 q 231 -1 246 24 q 200 -47 217 -25 q 83 -160 135 -146 q 71 -163 75 -162 q 63 -164 67 -164 q 54 -161 58 -164 z "},"W":{"ha":500,"x_min":-72,"x_max":547,"o":"m 208 450 q 226 438 219 447 q 228 385 236 418 q 164 260 214 335 q 110 179 139 222 q 58 101 83 142 q -26 -49 3 19 q -42 -106 -40 -82 q -32 -139 -42 -128 q -32 -139 -32 -139 q -32 -139 -32 -139 q -31 -139 -32 -139 q -29 -139 -31 -139 q -12 -129 -24 -137 q 15 -106 -1 -122 q 47 -72 32 -90 q 182 107 111 1 q 256 231 224 172 q 293 296 275 267 q 297 303 294 300 q 329 354 318 336 q 339 369 335 364 q 340 371 339 369 q 340 372 340 372 q 342 373 342 372 q 344 374 342 374 q 349 376 346 375 q 350 376 349 376 q 353 376 351 376 q 356 375 354 375 q 357 375 357 375 q 358 374 357 375 q 361 372 360 374 q 363 369 363 371 q 364 368 364 368 q 364 368 364 368 q 365 367 364 368 q 365 365 365 365 q 365 364 365 364 l 365 361 q 365 358 365 360 q 365 357 365 357 q 364 357 364 357 l 364 356 l 364 356 q 347 321 360 346 q 319 268 335 299 q 243 110 283 197 q 179 -46 201 22 q 173 -103 167 -83 q 224 -103 179 -122 q 293 -44 256 -85 q 438 147 371 35 q 515 333 503 257 q 513 369 517 353 q 503 394 508 386 q 487 410 494 406 q 467 421 479 415 q 457 425 463 422 q 500 428 483 435 q 525 411 517 422 q 539 338 547 382 q 457 131 525 246 q 307 -68 389 14 q 229 -128 267 -108 q 157 -137 190 -149 l 156 -137 l 154 -137 q 142 -118 144 -131 q 140 -96 139 -108 q 153 -37 142 -71 q 203 89 171 19 q 197 92 218 125 q 61 -96 126 -18 q 3 -153 29 -133 q -24 -165 -10 -162 q -51 -161 -37 -169 l -53 -160 l -53 -158 q -69 -104 -72 -136 q -53 -39 -67 -74 q 35 117 -21 33 q 88 196 61 157 q 140 275 115 238 q 200 390 189 350 q 200 392 200 390 q 203 410 203 401 q 199 421 204 418 q 182 415 194 424 q 138 392 163 408 q 160 425 146 411 q 189 449 175 439 q 208 450 199 451 z "},"X":{"ha":471,"x_min":-150,"x_max":660,"o":"m -137 -365 q -146 -373 -142 -371 q -150 -375 -150 -375 q -132 -352 -150 -374 q -87 -300 -114 -331 q -33 -240 -60 -269 q 10 -190 -7 -210 q 49 -149 24 -175 q 99 -97 74 -122 q 126 -68 107 -87 q 190 -6 156 -42 q 249 60 225 29 q 265 97 267 82 q 244 136 264 111 q 183 231 211 182 q 158 278 172 249 q 129 338 143 308 q 94 386 103 399 q 91 386 92 385 q 92 390 90 388 q 94 396 93 393 q 100 399 97 399 q 110 396 103 399 q 156 332 125 389 q 274 142 213 222 q 281 132 278 136 q 297 115 292 115 q 317 131 303 115 q 325 140 321 135 q 350 164 338 151 q 372 185 363 176 q 381 194 381 193 q 403 216 382 196 q 454 265 424 236 q 519 328 494 306 q 560 370 543 351 q 599 414 576 389 q 624 441 615 432 q 638 453 633 450 q 647 454 643 456 q 649 424 660 451 q 642 406 646 414 q 634 394 638 399 q 629 390 631 389 q 630 393 629 390 q 631 399 631 396 q 632 403 632 400 q 635 419 636 418 q 624 404 633 419 q 621 401 622 403 q 566 337 594 368 q 489 258 538 306 q 442 214 471 242 q 388 161 414 186 q 350 124 367 139 q 343 117 346 119 q 322 88 322 99 q 343 53 321 76 q 419 -33 372 18 q 492 -112 457 -74 q 535 -158 526 -150 q 566 -193 543 -167 q 610 -246 589 -219 q 638 -279 632 -272 q 640 -282 640 -282 q 635 -279 639 -282 q 561 -217 607 -258 q 481 -142 515 -176 q 343 10 422 -79 q 318 36 328 25 q 299 55 307 50 q 281 52 292 60 q 251 22 271 44 q 199 -32 222 -7 q 81 -156 156 -81 q -43 -278 6 -232 q -50 -285 -44 -281 q -61 -296 -56 -290 q -99 -331 -75 -310 q -137 -365 -122 -353 z "},"Y":{"ha":349,"x_min":-68,"x_max":386,"o":"m 35 432 q 46 437 39 435 q 58 436 53 439 q 64 428 63 433 q 65 417 65 422 q 60 388 64 406 q 25 207 22 261 q 33 167 26 179 q 51 153 40 154 q 115 174 74 147 q 204 247 158 201 q 319 388 272 318 q 342 418 332 406 q 354 435 349 428 q 356 439 356 438 q 359 442 357 440 q 364 449 361 444 q 365 449 364 449 q 367 451 365 450 q 375 454 369 453 q 381 453 378 454 q 385 449 385 451 q 386 445 386 447 q 386 442 386 443 q 385 438 386 439 q 385 435 385 436 q 383 433 385 435 l 383 433 l 383 433 q 303 244 342 343 q 257 135 279 189 q 251 122 254 128 q 241 84 236 93 q 279 65 246 75 q 300 7 306 49 q 261 39 288 31 q 219 44 232 51 q 193 3 207 36 q 118 -114 158 -67 l 118 -114 l 118 -114 q 7 -190 54 -183 q -56 -158 -40 -197 q -44 -67 -68 -121 q 46 35 -19 -12 q 165 76 96 68 q 183 78 176 78 q 197 79 192 78 q 206 88 201 81 q 218 110 211 94 q 232 139 225 124 q 279 251 256 194 q 286 269 283 260 q 296 290 292 281 q 278 294 332 364 q 261 274 271 285 q 221 231 242 251 q 124 150 172 181 q 38 124 75 118 q -3 197 -1 133 q 26 368 -6 254 q 29 378 28 372 q 33 390 32 385 q 34 398 35 396 q 30 396 33 400 q 18 379 26 392 q 3 345 8 365 q -3 317 -3 325 l -7 325 q -6 338 -7 331 q 1 379 -4 358 q 18 417 6 400 q 35 432 26 425 m 119 39 q 56 13 79 28 q -19 -72 0 -29 q -28 -142 -37 -115 q 11 -162 -19 -167 q 100 -99 43 -158 q 100 -99 100 -99 q 161 -6 132 -61 q 174 18 168 8 q 183 44 186 38 q 147 44 181 51 q 119 39 133 43 z "},"Z":{"ha":383,"x_min":-81,"x_max":425,"o":"m 385 433 q 400 431 393 432 q 411 428 406 429 q 413 428 411 428 q 417 425 414 426 q 422 418 419 424 q 424 401 425 408 q 419 388 422 394 q 401 358 413 375 q 335 275 376 325 q 253 181 299 232 q 242 164 240 167 q 257 161 243 161 q 261 161 258 161 q 356 143 310 160 q 228 131 297 135 q 206 125 215 129 q 189 108 197 121 q 139 51 164 79 q -28 -146 31 -68 q -35 -156 -32 -151 q -45 -173 -47 -171 q -22 -168 -43 -175 q -12 -165 -18 -167 q 113 -138 38 -150 q 256 -123 188 -126 q 353 -131 324 -119 q 301 -144 342 -137 q 207 -157 261 -150 q 67 -176 135 -165 q -32 -203 -1 -187 q -61 -211 -49 -211 q -69 -210 -65 -211 q -76 -204 -72 -208 q -80 -195 -79 -200 q -81 -186 -81 -190 q -69 -160 -79 -172 q -49 -126 -61 -144 q 121 74 13 -47 q 139 94 131 85 q 143 99 142 97 q 163 122 163 118 q 142 125 163 126 q 118 125 132 125 q 53 121 85 122 q 47 119 44 121 q 57 114 49 117 q 74 107 64 111 q 42 113 50 107 q 35 126 33 119 q 42 139 36 133 q 54 144 49 144 q 111 151 82 147 q 160 157 135 154 q 165 157 163 157 q 191 163 179 158 q 217 182 203 167 q 317 296 272 243 q 381 378 358 346 q 386 397 389 392 q 367 404 383 403 q 276 407 329 407 q 178 403 225 406 q 153 401 163 401 q 127 397 133 403 q 126 361 121 390 q 112 383 119 368 q 105 410 104 397 q 124 425 106 424 q 176 432 144 429 q 276 436 224 436 q 368 435 329 438 l 368 435 q 385 433 378 433 z "},"[":{"ha":358,"x_min":-7,"x_max":433,"o":"m 404 503 q 404 490 433 500 q 369 482 389 485 q 321 481 350 479 q 269 463 282 482 q 253 417 257 443 q 246 392 250 404 q 240 374 243 383 q 171 178 217 300 q 140 103 153 132 q 119 50 128 75 q 81 -46 103 4 q 39 -122 63 -85 q 22 -149 31 -136 q 22 -151 22 -150 q 26 -151 22 -151 q 36 -151 29 -151 q 55 -149 43 -150 q 78 -146 67 -147 q 124 -142 103 -143 q 154 -140 146 -140 q 163 -144 160 -142 q 163 -147 165 -146 q 149 -151 161 -149 q 122 -158 136 -154 q 99 -162 107 -161 q 42 -169 68 -167 q 8 -169 17 -172 q 6 -142 -7 -164 q 10 -133 7 -139 q 17 -121 14 -128 q 63 -28 42 -78 q 117 111 85 22 q 133 156 122 126 q 157 217 144 186 q 183 289 174 263 q 201 338 193 315 q 221 396 210 361 q 239 446 232 428 q 251 473 246 464 q 263 489 257 482 q 275 497 268 494 q 296 500 282 499 q 336 501 310 501 q 371 503 356 503 q 389 504 386 503 q 396 504 392 504 q 404 503 400 504 z "},"\\":{"ha":538,"x_min":124,"x_max":433,"o":"m 433 -64 q 425 -56 433 -65 q 404 -30 417 -46 q 378 6 392 -14 q 321 93 360 31 q 251 207 282 156 q 235 233 246 215 q 214 269 225 251 q 169 347 186 317 q 139 406 153 376 q 127 432 131 422 q 124 446 124 442 q 128 451 124 450 q 138 451 132 456 q 153 432 143 447 q 179 388 163 417 q 322 146 222 314 q 358 86 342 115 q 382 44 375 57 q 402 4 390 29 q 424 -40 414 -21 q 433 -64 433 -60 z "},"]":{"ha":256,"x_min":-99,"x_max":342,"o":"m -68 -169 q -69 -157 -99 -167 q -34 -149 -53 -151 q 15 -147 -15 -147 q 65 -130 53 -149 q 82 -85 78 -111 q 89 -58 85 -71 q 94 -42 92 -50 q 164 154 118 33 q 194 231 182 201 q 215 283 207 258 q 254 379 232 329 q 296 456 272 417 q 313 482 304 469 q 313 484 314 483 q 309 485 313 485 q 299 483 306 485 q 280 482 292 483 q 258 479 268 481 q 210 474 232 476 q 181 474 189 472 q 172 476 175 475 q 172 481 169 478 q 187 484 174 481 q 214 490 200 488 q 236 494 228 493 q 293 502 268 500 q 326 503 318 504 q 329 475 342 497 q 324 466 328 472 q 318 454 321 460 q 272 361 293 411 q 218 222 250 311 q 201 177 213 207 q 179 117 190 147 q 151 44 161 71 q 134 -5 142 18 q 114 -62 126 -28 q 96 -113 103 -96 q 83 -140 89 -131 q 72 -156 78 -150 q 60 -164 67 -161 q 39 -167 53 -167 q -1 -169 25 -168 q -35 -170 -21 -169 q -54 -171 -50 -171 q -61 -171 -57 -171 q -68 -169 -65 -171 z "},"^":{"ha":279,"x_min":71,"x_max":247,"o":"m 226 297 q 196 385 196 315 q 194 410 199 407 q 179 406 189 414 q 160 385 169 397 q 147 372 154 379 q 121 344 135 360 q 104 324 111 332 q 89 307 94 313 q 79 300 83 301 q 72 301 74 299 q 71 310 71 304 q 86 333 72 315 q 119 374 100 351 q 154 413 139 396 q 207 436 188 446 q 213 426 211 435 q 215 399 215 418 q 219 352 215 369 q 235 318 224 335 q 246 290 247 299 q 244 290 246 290 q 240 290 242 290 q 238 291 239 290 q 235 293 236 292 q 226 297 233 294 z "},"_":{"ha":486,"x_min":56,"x_max":378,"o":"m 303 -24 q 338 -24 318 -24 q 367 -28 357 -25 l 378 -29 l 368 -32 q 322 -42 354 -36 q 257 -50 289 -47 q 167 -53 218 -54 q 89 -46 115 -51 q 57 -33 60 -40 q 56 -29 56 -31 q 62 -27 57 -28 q 80 -26 67 -26 q 115 -28 93 -26 q 232 -26 171 -29 q 278 -24 258 -25 q 303 -24 297 -24 z "},"`":{"ha":188,"x_min":56,"x_max":125,"o":"m 106 401 q 98 406 103 403 q 88 411 93 408 q 79 417 83 414 q 72 419 75 419 q 69 422 71 421 q 64 426 67 424 q 59 440 56 433 q 74 446 63 447 q 90 438 79 444 q 111 422 101 431 q 122 411 118 417 q 124 403 125 406 q 117 400 122 400 q 106 401 113 400 z "},"a":{"ha":174,"x_min":-47,"x_max":219,"o":"m 99 161 q 122 142 115 160 q 125 133 124 139 q 127 121 126 126 q 128 111 128 115 q 128 107 128 107 q 124 112 126 108 q 118 121 121 115 q 97 139 107 140 q 83 133 89 138 q 69 124 76 129 q 68 122 69 122 q 67 121 68 121 q 32 90 50 107 q 3 61 14 74 q -3 54 0 57 q -6 48 -4 51 q -9 43 -8 44 q -8 42 -10 42 q 0 47 -6 43 q 4 51 1 49 q 21 67 8 56 q 47 93 33 79 q 71 117 60 106 q 86 131 82 128 q 101 133 94 138 q 110 118 107 129 q 101 97 110 113 q 78 60 92 81 q 72 49 75 54 q 67 36 67 39 q 82 39 68 33 q 122 58 99 46 q 164 81 146 72 l 175 86 q 201 99 189 93 q 217 106 213 104 q 218 105 219 107 q 211 97 217 103 q 201 88 206 93 q 193 81 196 83 q 186 76 189 78 q 183 72 183 74 q 122 32 153 49 q 72 13 100 21 q 69 11 71 11 q 57 8 64 10 q 44 8 50 6 q 38 18 39 10 q 47 47 39 35 q 56 60 51 53 q 57 63 56 61 q 61 71 60 68 q 60 73 63 74 q 53 67 58 72 q 46 60 50 64 q 26 40 33 47 q 13 28 18 32 q 0 18 7 24 q -35 17 -25 3 q -11 79 -47 35 q 41 131 13 107 q 89 160 69 154 q 94 161 92 161 q 99 161 96 161 l 99 161 z "},"b":{"ha":242,"x_min":-39,"x_max":303,"o":"m 285 451 q 299 447 293 453 q 302 440 301 443 q 303 432 303 436 q 300 417 303 425 q 247 317 289 381 q 54 103 182 215 q 46 92 51 97 q 31 66 38 79 q 28 39 24 53 q 43 26 32 29 q 70 26 56 24 q 96 38 85 29 q 113 56 108 46 q 110 79 118 65 q 100 135 93 111 q 113 153 103 146 q 135 156 122 160 q 158 129 153 147 q 157 92 163 111 q 153 79 154 85 q 149 72 150 75 q 153 65 149 68 q 167 57 157 61 q 214 72 192 58 q 233 82 224 78 l 244 88 q 269 100 258 94 q 285 107 281 106 q 286 105 288 107 q 279 97 285 103 q 269 89 275 93 q 261 82 264 85 q 256 77 258 79 q 251 74 253 75 q 239 64 246 69 q 165 36 196 31 q 147 39 153 38 q 136 41 140 42 q 126 36 132 40 q 110 21 121 32 q 108 19 110 21 q 38 6 75 -4 q 8 29 18 11 q 3 53 3 39 q 3 61 4 60 q -6 58 1 63 q -28 47 -18 50 q -39 48 -39 43 q -24 68 -39 53 l 0 88 q 17 103 4 92 q 43 125 29 114 q 104 224 69 171 q 204 367 158 303 q 243 417 228 397 q 267 443 258 436 q 281 451 274 449 q 285 451 283 451 l 285 451 m 282 428 q 274 422 279 426 q 265 410 269 417 q 261 404 263 407 q 222 354 244 383 q 122 211 176 290 q 118 204 121 208 q 100 176 110 192 q 104 171 88 157 q 171 245 133 200 q 229 321 208 290 q 232 326 231 324 q 258 365 244 344 q 279 403 271 386 q 285 426 288 421 q 283 428 285 428 q 282 428 283 428 m 126 136 q 126 135 126 136 q 125 135 125 135 q 125 135 125 135 q 121 128 124 135 q 125 97 118 118 q 131 88 128 89 q 136 97 133 88 q 138 124 140 114 q 128 135 135 133 l 128 135 q 126 136 126 136 q 126 136 126 136 z "},"c":{"ha":168,"x_min":-28,"x_max":219,"o":"m 103 158 q 124 132 128 157 q 113 109 121 122 q 96 88 104 96 q 89 81 92 82 q 82 79 86 79 q 65 88 68 79 q 64 92 64 90 q 65 97 64 94 q 72 102 68 100 q 81 103 76 104 q 84 105 82 103 q 90 113 86 107 q 101 133 101 128 q 94 135 101 139 q 75 126 86 132 q 48 104 63 118 q 22 75 33 90 q -4 26 -6 39 q 15 15 -3 13 q 56 28 33 17 q 101 49 83 42 q 124 60 113 54 q 165 81 146 72 l 176 86 q 201 99 190 93 q 217 106 213 104 q 218 105 219 107 q 211 97 217 103 q 201 88 207 92 q 193 81 196 83 q 188 76 190 78 q 183 72 185 74 q 138 44 165 60 q 79 17 110 29 q 42 3 67 11 q -4 -2 17 -4 q -28 22 -25 0 q 3 84 -25 47 q 65 143 31 121 q 86 155 78 151 q 103 158 94 158 z "},"d":{"ha":217,"x_min":-22,"x_max":339,"o":"m 318 453 q 333 447 326 453 q 339 432 339 440 q 331 401 339 418 q 276 310 315 364 q 128 121 211 217 q 117 74 118 92 q 118 61 117 65 q 122 56 119 57 q 160 58 132 47 q 183 69 172 64 q 208 82 194 76 l 219 88 q 245 100 233 94 q 261 107 257 106 q 263 106 264 107 q 254 97 261 104 q 245 89 250 93 q 236 82 240 85 q 231 77 233 79 q 228 74 228 75 q 168 38 200 51 q 110 38 133 24 q 96 68 96 49 q 96 71 96 69 q 94 76 96 76 q 89 71 93 76 q 82 65 86 69 q 15 14 40 22 q -14 15 0 7 q -21 28 -19 21 q -21 42 -22 35 q 19 104 -15 69 q 103 157 50 133 q 126 172 119 164 q 139 200 133 181 q 169 264 151 231 q 251 392 210 338 q 286 433 271 418 q 302 447 294 442 q 318 453 310 453 m 314 426 q 301 418 311 428 q 268 379 288 404 q 189 253 229 325 q 172 215 172 222 q 199 244 172 208 q 258 322 232 285 q 311 410 296 376 q 315 421 314 415 q 314 426 317 426 m 108 135 q 97 129 107 135 q 35 88 58 110 q 3 46 10 64 q 1 34 0 36 q 14 38 3 32 q 81 97 36 49 q 96 115 89 106 q 99 119 97 117 q 103 125 101 122 q 108 132 107 129 q 108 135 110 135 z "},"e":{"ha":136,"x_min":-46,"x_max":182,"o":"m 35 150 q 72 163 51 158 q 106 154 92 167 q 110 137 114 146 q 97 122 106 128 q 57 99 81 111 q 21 76 36 86 q 15 74 18 75 q -6 58 3 67 q -4 36 -15 49 q 13 30 3 31 q 33 33 24 29 q 47 39 42 36 q 138 88 93 58 q 163 100 151 94 q 179 107 175 106 q 181 105 182 107 q 172 97 179 103 q 163 89 168 93 q 154 82 158 85 q 149 77 151 79 q 144 74 146 75 q 28 8 93 29 q 15 6 24 7 q -1 6 7 6 q -14 10 -10 7 q -25 85 -46 42 q 35 150 -4 128 m 71 131 q 80 138 76 135 q 82 143 83 142 q 72 143 81 144 q 47 132 61 140 q 21 113 31 122 q 16 101 14 104 q 28 106 18 99 q 57 122 43 115 q 71 131 64 126 z "},"f":{"ha":151,"x_min":-115,"x_max":339,"o":"m 283 436 q 307 447 293 443 q 333 447 321 451 q 333 427 339 440 q 317 399 328 414 q 297 372 307 383 q 292 363 293 367 q 210 261 257 315 q 43 92 122 160 q 31 74 35 82 q 31 74 31 74 q 29 74 31 74 q -72 -124 -25 -15 q -76 -136 -75 -132 q -78 -140 -78 -140 q -75 -137 -78 -140 q -68 -129 -74 -136 q -56 -114 -62 -122 q -41 -94 -50 -106 q -25 -72 -32 -82 q -3 -42 -12 -54 q 18 -15 8 -29 q 39 21 28 -1 q 38 28 40 26 q 32 31 35 31 q 20 34 29 31 q 1 42 11 38 q -15 52 -8 47 q -21 58 -22 57 q -19 63 -21 60 q -14 68 -17 65 q -10 72 -11 71 l 24 67 l 49 57 q 87 58 61 49 q 136 81 113 67 l 147 88 q 172 100 160 94 q 188 106 183 106 q 189 105 190 107 q 182 97 188 103 q 172 88 176 93 q 164 81 167 83 q 158 76 160 78 q 154 74 156 74 q 150 69 151 72 q 110 41 129 53 q 64 26 90 29 q 47 -8 61 13 q 17 -51 33 -29 q 3 -71 10 -61 q -31 -119 -18 -100 q -53 -148 -44 -137 q -67 -164 -62 -158 q -75 -172 -72 -169 q -81 -175 -78 -174 q -82 -175 -82 -175 q -91 -179 -87 -179 q -99 -176 -94 -179 l -99 -176 q -94 -119 -115 -168 q -3 63 -62 -39 q -7 61 -4 61 q -14 60 -11 61 q -35 47 -26 51 q -44 47 -44 43 q -29 68 -44 51 l -6 88 q 9 101 -3 90 q 35 122 21 111 q 172 313 100 222 q 283 436 243 404 m 310 433 q 288 415 301 428 q 251 375 275 401 q 107 189 179 293 q 94 168 90 167 q 111 183 99 169 q 194 274 154 226 q 275 375 242 328 q 310 433 299 408 z "},"g":{"ha":182,"x_min":-78,"x_max":231,"o":"m 110 161 q 133 143 126 160 q 136 133 135 139 q 138 122 138 128 q 140 112 139 115 q 139 108 140 108 q 135 113 138 108 q 131 122 133 117 q 111 139 119 142 q 111 138 107 138 q 115 135 113 138 q 117 128 117 132 q 118 121 118 124 q 103 89 110 101 q 89 61 96 76 q 89 60 89 60 q 84 47 86 53 q 85 40 82 42 q 99 42 88 38 q 131 58 113 49 q 175 82 156 72 l 186 88 q 212 100 200 94 q 228 107 224 106 q 229 105 231 107 q 222 97 228 103 q 212 88 217 93 q 204 82 207 83 q 197 76 200 79 q 194 74 194 74 q 101 18 153 40 q 88 14 94 14 q 72 9 79 13 q 61 -4 65 6 q 43 -46 53 -22 q -15 -156 21 -107 q -32 -165 -22 -162 q -53 -160 -42 -167 q -73 -120 -68 -149 q -69 -67 -78 -92 q -25 -6 -60 -39 q 26 19 -4 11 q 44 31 36 24 q 56 43 53 39 q 63 60 60 51 q 58 61 65 68 q 37 40 44 47 q 24 28 29 32 q 11 19 18 24 q -22 17 -14 3 q 1 81 -35 36 q 53 132 24 108 q 100 161 82 156 q 106 161 103 161 q 110 161 108 161 m 103 136 q 81 124 99 136 q 8 54 40 93 q 5 49 7 51 q 3 44 3 46 q 4 42 3 42 q 11 49 6 43 q 44 79 28 63 q 58 93 51 86 q 83 117 72 107 q 97 132 94 128 q 103 136 104 138 m 33 0 q 17 -4 29 0 q -14 -24 6 -8 q -49 -70 -42 -46 q -51 -117 -57 -94 q -40 -136 -49 -132 q -19 -124 -32 -140 q -1 -92 -14 -117 q 22 -40 11 -68 q 26 -31 24 -37 q 32 -17 29 -24 q 35 -5 35 -10 q 33 0 36 0 z "},"h":{"ha":217,"x_min":-49,"x_max":294,"o":"m 278 451 q 290 447 285 453 q 294 439 293 443 q 294 432 294 435 q 292 415 294 425 q 239 317 281 381 q 68 122 179 225 q 65 115 64 115 q 74 122 65 114 q 92 138 82 132 q 110 146 101 144 q 119 142 115 146 q 124 138 122 140 q 125 129 125 135 q 125 120 125 124 q 123 108 125 117 q 117 82 121 100 q 126 51 113 56 q 163 56 140 47 q 210 82 185 65 l 221 88 q 245 100 233 94 q 261 107 257 106 q 263 105 264 107 q 256 97 261 103 q 245 88 250 93 q 238 81 240 83 q 231 76 233 79 q 228 74 228 74 q 124 28 175 26 q 97 51 103 31 q 99 99 90 72 q 103 115 101 108 q 104 122 104 121 q 92 115 101 124 q 68 91 82 106 q 39 60 54 76 q 25 40 32 50 q 17 28 21 33 q 13 21 15 25 q 6 10 10 15 q -4 4 3 6 q -10 6 -7 4 q -14 10 -12 7 q -17 14 -15 11 q -18 24 -19 17 q -14 36 -17 31 q -4 58 -11 46 l -4 58 q -4 58 -4 58 q -4 58 -4 58 q -4 58 -4 58 q -6 58 -6 58 q -19 51 -11 54 q -33 47 -28 49 q -47 47 -46 43 q -32 68 -49 50 l -8 88 q 8 101 -4 90 q 35 125 21 113 q 96 224 61 169 q 196 367 150 303 q 235 417 219 397 q 258 443 250 436 q 274 451 265 449 q 278 451 275 451 l 278 451 m 274 428 q 266 422 271 426 q 257 410 261 417 q 253 403 254 407 q 214 353 236 383 q 114 211 168 290 q 110 204 113 208 q 92 176 101 192 q 87 166 85 168 q 96 171 89 164 q 163 244 125 199 q 221 321 200 290 q 224 326 222 324 q 249 365 236 343 q 271 403 263 386 q 276 426 279 421 q 275 428 276 428 q 274 428 275 428 z "},"i":{"ha":129,"x_min":-42,"x_max":171,"o":"m 68 146 q 70 146 69 146 q 72 144 71 146 q 76 139 76 142 q 70 128 75 136 q 57 110 65 119 q 33 74 42 88 q 17 46 24 60 q 20 37 13 36 q 43 44 28 38 q 76 61 58 51 q 117 82 99 72 l 128 88 q 153 100 142 94 q 169 106 165 106 q 170 105 171 107 q 163 97 169 103 q 153 88 158 93 q 144 81 149 83 q 139 76 142 78 q 135 74 136 74 q 11 8 81 29 q -8 40 -21 0 q 0 56 -4 50 q 1 58 1 57 q 4 63 3 61 q 7 67 7 67 q 4 65 7 68 q -8 58 0 63 q -31 47 -21 50 q -42 47 -42 43 q -26 68 -42 51 l -3 88 q 10 99 0 90 q 31 117 19 107 q 52 135 43 128 q 63 144 61 143 q 68 146 67 146 m 113 221 q 119 238 104 231 q 128 240 125 240 q 133 239 131 240 q 140 227 142 235 q 126 217 138 219 q 118 216 121 215 q 113 221 115 217 z "},"j":{"ha":111,"x_min":-181,"x_max":108,"o":"m 83 197 q 88 222 74 206 q 94 230 92 228 q 100 231 97 232 q 108 219 108 229 q 97 200 107 210 q 89 194 92 194 q 83 197 86 193 m 64 157 q 66 156 65 157 q 68 156 67 156 q 71 149 72 153 q 71 149 71 149 q 71 149 71 149 q 71 149 71 149 q 71 149 71 149 l 71 149 q 71 147 71 149 q 69 147 69 147 q 69 147 69 147 q 64 137 68 144 q 55 121 60 129 q 49 108 50 113 q 17 36 29 74 q -4 -12 7 13 q -6 -15 -4 -14 q -9 -29 -10 -24 q 3 -39 -8 -35 q 28 -72 19 -51 q 21 -99 31 -99 q 7 -79 11 -100 q -7 -60 3 -67 q -20 -55 -15 -53 q -29 -68 -25 -57 q -71 -133 -50 -108 q -114 -172 -94 -161 q -153 -176 -136 -183 q -176 -151 -171 -169 q -175 -114 -181 -135 q -100 -35 -162 -68 q -54 -25 -78 -25 q -50 -25 -53 -25 q -35 -22 -40 -25 q -25 -6 -29 -19 q 4 67 -11 25 q 3 69 4 68 q 1 70 3 71 q -6 65 -1 69 l -35 46 q -58 35 -49 39 q -65 36 -67 32 q -47 57 -64 40 l -24 76 q -8 91 -21 79 q 19 117 4 103 q 45 142 33 132 q 58 154 57 153 q 64 157 63 156 m -57 -75 q -53 -67 -54 -71 q -45 -50 -44 -56 q -64 -46 -46 -44 q -90 -54 -76 -47 q -153 -118 -146 -85 q -154 -144 -158 -135 q -144 -157 -151 -154 q -124 -153 -139 -160 q -87 -119 -108 -146 q -57 -75 -74 -103 z "},"k":{"ha":251,"x_min":-39,"x_max":303,"o":"m 285 451 q 299 447 293 453 q 302 439 301 443 q 303 432 303 435 q 300 415 303 425 q 247 317 289 381 q 54 103 182 214 q 49 93 51 97 q 49 93 49 93 q 132 140 97 138 l 132 140 q 167 136 153 143 q 182 113 182 129 q 171 92 181 100 q 150 78 163 83 q 93 60 124 67 q 75 57 83 58 q 68 56 71 56 q 71 53 69 54 q 75 51 74 53 q 100 41 88 46 q 121 35 113 36 q 207 64 167 38 q 243 82 225 74 l 254 88 q 278 100 267 94 q 294 107 290 106 q 296 105 297 107 q 289 97 294 103 q 278 88 283 93 q 271 81 274 83 q 264 76 267 79 q 261 74 261 74 q 119 14 200 21 q 65 32 92 17 q 61 35 63 33 q 43 43 51 39 q 38 46 40 44 q 33 40 35 43 q 25 28 29 33 q 21 21 24 25 q 15 10 18 15 q 4 4 11 6 q -1 6 1 4 q -6 10 -4 7 q -10 19 -10 15 q -6 36 -10 28 q 4 58 -3 46 l 4 58 q 5 59 4 58 q 6 60 6 60 q 6 60 6 60 q 6 60 6 60 q 7 64 6 61 q 10 67 8 65 q 7 65 8 67 q -6 58 3 63 q -28 47 -18 50 q -39 47 -39 43 q -24 68 -39 51 l 0 88 q 17 101 4 90 q 43 125 29 113 q 104 224 69 169 q 204 367 158 303 q 243 417 228 397 q 267 443 258 436 q 281 451 274 449 q 285 451 283 451 l 285 451 m 282 428 q 274 422 279 426 q 265 410 269 417 q 261 403 263 407 q 222 353 244 383 q 122 211 176 290 q 118 204 121 208 q 100 176 110 192 q 104 171 88 156 q 171 244 133 199 q 229 321 208 290 q 232 326 231 324 q 258 365 244 343 q 279 403 271 386 q 285 426 288 421 q 283 428 285 428 q 282 428 283 428 m 143 119 q 136 119 139 119 q 67 78 110 115 q 74 79 71 78 q 88 82 81 79 q 140 99 118 89 q 157 108 151 103 q 159 111 158 110 q 160 113 160 113 q 160 115 160 114 q 159 116 160 115 q 157 117 158 117 q 143 119 153 119 z "},"l":{"ha":167,"x_min":-49,"x_max":278,"o":"m 263 446 q 269 444 265 446 q 275 439 272 442 q 276 428 278 433 q 276 426 276 428 q 274 403 276 417 q 261 369 271 389 q 76 136 192 240 q 60 117 67 126 q 44 93 53 108 q 31 50 33 67 q 43 31 29 32 q 78 40 57 31 q 120 60 100 49 q 151 78 140 71 q 157 82 156 81 l 168 88 q 194 100 182 94 q 210 107 206 106 q 211 105 213 107 q 203 97 210 103 q 200 94 201 96 q 199 93 200 94 q 140 44 174 69 l 115 29 q 64 11 90 15 q 42 8 51 8 q 24 14 32 8 q 8 53 6 28 q 13 71 11 64 q 14 80 17 81 q -1 68 11 79 q -17 57 -10 61 q -40 47 -31 50 q -49 48 -49 43 q -33 68 -49 53 l -10 88 q -10 88 -10 88 q -10 88 -10 88 q 1 98 -7 90 q 21 115 10 106 q 35 130 29 122 q 47 150 42 138 q 89 225 67 188 q 207 399 154 331 q 244 439 229 425 q 246 439 246 439 q 253 444 250 442 q 263 446 257 446 m 244 404 q 225 385 243 407 q 108 214 172 319 q 122 210 63 144 q 164 260 149 238 q 242 379 222 339 q 246 396 246 389 q 244 404 246 403 z "},"m":{"ha":297,"x_min":-43,"x_max":338,"o":"m 113 147 q 123 144 118 147 q 131 136 128 142 q 135 117 135 126 q 133 107 133 110 q 134 105 133 104 q 136 108 135 106 q 146 119 140 113 q 161 129 153 126 q 171 131 165 132 q 181 126 176 131 q 189 110 188 119 q 190 90 190 100 q 212 48 190 46 q 282 79 233 50 l 293 85 q 319 97 307 92 q 335 104 331 103 q 336 103 338 106 q 328 96 335 101 q 319 87 324 92 q 310 79 314 82 q 304 74 307 76 q 300 71 301 72 q 246 35 274 50 q 194 24 218 21 q 173 47 178 28 q 168 89 168 67 q 168 103 168 96 q 167 103 168 103 q 167 106 167 106 q 165 106 167 107 q 161 104 164 106 q 140 76 151 93 q 133 67 136 71 q 124 53 128 58 q 124 53 124 53 q 121 50 122 51 q 117 49 119 49 q 111 49 114 49 q 107 53 108 50 q 104 56 104 54 q 104 57 104 57 q 103 61 103 60 q 104 64 103 63 q 104 65 104 64 q 106 75 104 69 q 107 79 107 78 q 110 99 108 89 q 113 117 113 108 q 110 124 113 124 q 99 119 107 124 q 74 99 90 113 q 42 63 58 82 q 14 29 25 44 q 2 15 7 21 q -4 7 -3 8 q -17 10 -11 3 q -21 17 -21 13 q -17 28 -21 21 q -1 50 -12 36 q 7 64 6 63 q 7 64 8 65 q -8 56 4 63 q -22 49 -14 51 q -37 46 -31 46 q -42 51 -43 46 q -26 67 -40 56 q -17 72 -22 69 q 3 86 -8 79 q 20 101 8 90 q 43 124 32 113 q 57 136 51 131 q 63 142 63 142 q 68 144 67 144 l 68 144 q 70 144 69 144 q 72 143 71 143 q 76 136 76 140 q 71 128 75 135 q 72 128 67 122 q 75 129 74 128 q 110 147 94 146 q 113 147 111 147 z "},"n":{"ha":211,"x_min":-51,"x_max":253,"o":"m 60 144 q 62 144 61 144 q 64 143 63 143 q 68 136 68 140 q 60 124 67 133 q 56 115 54 117 q 63 121 57 114 q 81 136 71 129 q 99 144 90 143 q 108 140 104 144 q 113 135 111 138 q 114 126 114 132 q 115 118 115 122 q 112 106 114 114 q 106 81 110 97 q 115 49 101 54 q 152 54 129 44 q 199 79 175 64 l 210 85 q 234 97 222 92 q 250 104 246 103 q 251 103 253 106 q 244 96 250 101 q 235 87 240 92 q 226 79 229 82 q 221 74 224 76 q 217 71 218 72 q 213 68 215 69 q 166 36 189 49 q 111 24 143 24 q 85 47 90 25 q 88 97 79 69 q 92 113 90 106 q 93 119 93 119 q 75 106 90 121 q 40 71 60 92 q 6 29 21 50 q -6 15 -1 21 q -12 7 -11 8 q -25 10 -19 3 q -29 17 -29 13 q -25 28 -29 21 q -10 50 -21 36 q -1 64 -3 63 q -1 64 0 65 q -17 56 -4 63 q -31 49 -22 51 q -45 46 -39 46 q -50 51 -51 46 q -35 67 -49 56 q -25 72 -31 69 q -6 86 -17 79 q 12 101 0 90 q 35 124 24 113 q 49 136 43 131 q 54 142 54 142 q 60 144 58 144 z "},"o":{"ha":215,"x_min":-42,"x_max":257,"o":"m 82 132 q 119 160 94 153 q 161 143 143 167 q 161 114 167 131 q 143 81 157 99 q 140 75 142 79 q 138 68 138 71 q 142 62 138 64 q 154 61 147 60 q 181 69 167 63 q 207 83 194 75 q 214 86 211 85 q 240 99 228 93 q 256 106 251 104 q 256 105 257 107 q 249 97 256 103 q 240 88 244 93 q 231 81 235 83 q 224 74 225 76 q 189 51 208 60 q 154 40 169 42 q 136 43 144 40 q 126 44 131 44 q 117 42 121 44 q 63 -3 92 13 q 29 -11 46 -11 q -1 4 11 -11 q -8 39 -12 18 q -6 47 -7 43 q -3 58 -4 54 q -8 57 -3 61 q -31 46 -21 50 q -42 47 -42 42 q -26 68 -42 51 l -3 86 q 10 99 0 90 q 34 119 21 108 q 58 138 47 131 q 69 147 68 146 q 78 149 74 150 q 83 142 82 147 q 75 133 83 140 q 63 122 69 128 q 51 108 57 115 q 51 107 51 108 q 31 77 44 99 q 15 36 18 56 q 36 11 13 17 q 65 22 51 11 q 92 44 79 32 q 100 53 96 49 q 100 67 108 60 q 82 132 69 103 m 133 139 q 116 137 124 140 q 100 124 108 133 q 110 86 93 111 q 111 85 110 86 q 117 79 114 81 q 122 83 119 78 q 143 119 138 104 q 143 135 144 131 q 140 138 142 136 q 133 139 139 139 z "},"p":{"ha":236,"x_min":-136,"x_max":279,"o":"m 119 153 q 133 149 128 151 q 161 103 161 129 q 149 69 160 85 q 147 68 147 68 q 140 55 139 57 q 157 56 142 53 q 158 56 157 56 q 225 82 192 60 l 236 88 q 260 100 249 94 q 276 107 272 106 q 278 105 279 107 q 271 97 276 103 q 261 88 267 93 q 253 82 256 83 q 138 31 207 38 q 118 31 126 29 q 103 29 110 31 q 89 25 96 28 q 85 24 88 25 q 56 28 69 19 q 56 28 56 28 q 53 31 54 29 q 50 35 51 32 q 50 39 50 36 q 51 43 50 42 q 56 47 53 47 q 58 49 57 49 q 61 50 60 50 q 63 50 63 50 q 79 51 69 50 q 95 53 88 51 q 110 61 103 56 q 124 72 118 65 q 139 104 138 89 q 135 117 139 111 q 122 129 132 124 q 119 131 121 131 q 113 129 117 131 q 92 117 104 126 q 36 56 67 96 q -74 -107 -26 -26 q -82 -122 -76 -112 q -93 -142 -87 -131 q -105 -162 -100 -153 q -111 -172 -110 -171 q -115 -179 -114 -176 q -115 -179 -115 -179 q -116 -180 -115 -179 q -117 -182 -117 -181 q -117 -182 -117 -182 q -118 -182 -118 -182 q -118 -182 -118 -182 q -120 -183 -119 -183 q -122 -184 -121 -183 q -124 -185 -124 -185 q -125 -185 -125 -185 q -125 -185 -125 -185 q -126 -183 -125 -185 q -130 -181 -128 -182 q -134 -178 -132 -179 q -136 -176 -136 -176 q -136 -176 -136 -176 q -136 -175 -136 -176 q -136 -173 -136 -174 q -136 -172 -136 -172 q -136 -170 -136 -171 q -135 -169 -136 -169 q -135 -168 -135 -169 q -135 -168 -135 -168 q -135 -167 -135 -168 q -133 -165 -133 -167 q -131 -158 -132 -162 q -97 -103 -119 -140 q -94 -99 -96 -100 q -93 -96 -93 -97 q -90 -90 -92 -93 q -61 -40 -78 -69 q -15 40 -44 -11 q -7 56 -11 50 q -6 58 -6 57 q -3 63 -4 61 q 0 67 0 67 q -3 67 0 68 q -15 58 -7 63 q -38 47 -28 50 q -49 47 -49 43 q -33 68 -49 51 l -10 88 q 3 99 -7 90 q 24 117 13 107 q 45 135 36 128 q 56 144 54 143 q 61 146 60 146 q 63 146 63 146 q 65 144 64 146 q 69 139 69 143 q 63 128 68 136 q 50 110 57 119 q 43 97 40 96 q 56 110 46 99 q 78 133 67 124 q 106 150 92 144 q 119 153 113 153 z "},"q":{"ha":224,"x_min":-35,"x_max":269,"o":"m 117 161 q 140 142 133 160 q 143 133 142 139 q 145 121 144 126 q 146 111 146 115 q 146 107 146 107 q 142 112 144 108 q 136 121 140 115 q 117 138 126 140 q 118 138 113 138 q 122 133 119 136 q 124 127 124 131 q 125 121 125 124 q 108 88 115 100 q 104 78 107 83 l 103 75 q 101 72 103 74 q 100 71 101 72 q 99 67 100 69 l 86 46 q 35 -62 58 -6 q 8 -124 22 -92 q 3 -137 4 -133 q 2 -140 1 -140 q 4 -139 3 -140 q 13 -129 7 -136 q 24 -114 18 -122 q 39 -94 31 -106 q 54 -72 47 -82 q 76 -36 69 -46 q 85 -23 81 -29 q 94 -7 89 -17 q 95 -3 94 -4 q 94 -1 96 -1 q 92 -1 93 -1 q 90 -1 92 -1 q 85 0 88 -1 q 79 3 82 1 q 78 23 69 18 q 101 25 86 28 q 138 34 113 19 q 189 67 164 49 q 210 82 201 76 l 225 89 q 251 100 239 96 q 268 106 264 104 q 268 106 268 106 q 269 106 269 106 q 268 106 269 106 q 260 99 267 104 q 253 91 257 94 q 244 85 249 88 q 242 83 243 85 q 235 78 238 81 q 231 75 232 75 q 207 56 221 67 q 172 26 190 40 q 136 7 153 11 q 120 -9 129 4 q 101 -39 111 -22 q 83 -68 92 -54 q 47 -117 61 -99 q 25 -147 33 -136 q 12 -164 17 -158 q 4 -172 7 -169 q -3 -176 1 -174 q -12 -179 -8 -179 q -19 -176 -15 -179 q -15 -119 -35 -169 q -8 -103 -12 -111 q 68 63 18 -26 q 68 63 68 63 q 68 63 68 63 q 65 60 67 63 q 44 40 51 47 q 31 28 36 32 q 18 19 25 24 q -15 17 -7 3 q 8 79 -28 35 q 60 131 31 108 q 107 160 89 154 q 113 161 110 161 q 117 161 115 161 m 110 136 q 88 122 106 135 q 15 54 47 93 q 12 49 14 51 q 10 44 10 46 q 11 42 10 42 q 18 47 13 43 q 50 78 35 63 q 65 93 58 86 q 90 117 79 107 q 104 131 101 128 q 110 136 111 136 z "},"r":{"ha":185,"x_min":-47,"x_max":229,"o":"m 38 119 q 58 140 47 128 q 72 157 68 151 q 90 178 81 169 q 114 183 100 186 q 118 177 119 182 q 111 165 117 172 q 108 161 110 163 q 107 151 106 156 q 111 140 108 146 q 117 128 115 135 q 103 92 115 107 q 93 76 97 83 q 83 61 88 68 q 75 46 79 54 q 76 34 69 33 q 99 42 83 35 q 132 60 114 49 q 175 81 156 72 l 186 86 q 212 99 200 93 q 228 106 224 104 q 228 105 229 107 q 221 97 228 103 q 212 88 217 93 q 203 81 207 83 q 197 76 200 78 q 193 72 194 74 q 69 8 138 31 q 50 39 38 0 q 60 58 56 51 q 72 76 65 67 q 89 99 82 88 q 96 122 96 111 q 94 133 96 129 q 90 135 93 136 q 74 124 83 132 q 60 111 65 115 q -6 61 47 97 q -30 51 -18 53 q -44 55 -42 50 q -31 71 -47 60 q 8 96 -12 82 q 38 119 28 110 z "},"s":{"ha":194,"x_min":-44,"x_max":243,"o":"m 128 168 q 129 168 129 168 q 136 169 132 168 q 144 167 140 169 q 149 162 147 165 q 150 156 150 158 q 148 150 149 151 q 146 147 147 149 q 144 146 144 147 q 138 140 142 143 q 129 135 135 138 q 122 131 125 132 q 122 130 122 131 q 122 129 122 129 q 121 129 121 129 q 121 129 121 129 q 113 92 117 114 q 110 83 111 88 q 108 74 108 78 q 106 65 106 68 q 110 62 106 63 q 124 63 114 61 q 183 79 156 63 q 188 81 186 79 q 189 81 188 81 l 188 81 l 199 88 q 203 89 201 88 q 206 90 204 89 q 211 93 208 92 q 218 96 214 94 q 240 106 228 101 q 242 105 243 107 q 235 97 240 103 q 222 86 229 92 q 108 40 169 35 q 99 38 101 40 q 96 31 97 36 q 94 29 96 31 q 60 -11 85 3 q 37 -15 49 -17 q 15 -6 25 -12 q -22 25 -7 7 q -31 39 -28 32 q -35 46 -33 43 q -35 46 -35 46 l -35 47 q -39 53 -36 50 q -44 63 -43 57 q -44 73 -44 68 q -39 82 -43 78 q -18 89 -31 90 q -7 86 -12 88 q -6 85 -7 85 q 1 89 -1 88 q 79 129 40 107 q 99 142 92 136 q 106 146 101 143 q 128 168 113 163 m 93 107 q 93 110 94 110 q 90 110 92 111 q 46 86 68 97 q 35 81 40 83 q 32 81 33 81 q 26 76 26 78 q 33 72 25 74 q 65 64 47 67 q 86 72 82 60 q 89 88 88 79 q 93 103 90 94 q 93 107 93 104 m -4 61 q -10 58 -7 60 q -15 56 -12 57 q -14 51 -15 54 q -6 40 -11 47 q 25 13 8 24 q 49 8 43 4 q 72 32 64 15 q 73 38 74 36 q 68 40 72 40 q 11 56 35 47 q -1 61 4 58 q -4 61 -3 61 z "},"t":{"ha":125,"x_min":-43,"x_max":371,"o":"m 276 449 q 283 439 285 447 q 239 372 278 426 q 220 344 231 360 q 203 319 210 329 q 197 313 200 315 q 189 302 192 307 q 190 295 186 297 q 206 296 193 293 q 304 297 264 299 q 332 296 318 297 q 356 294 346 294 q 369 292 367 293 q 363 290 371 292 q 341 286 354 288 q 314 283 328 285 q 292 281 300 282 q 265 280 283 281 q 228 278 247 279 q 197 276 210 278 q 158 258 169 275 q 147 242 154 251 q 138 228 143 236 q 58 111 100 176 q 31 65 42 86 q 50 47 10 26 q 74 60 61 53 q 117 82 97 72 l 128 88 q 152 100 140 94 q 168 106 164 106 q 169 105 171 107 q 163 97 168 103 q 152 88 157 93 q 144 81 147 83 q 138 76 140 79 q 135 74 135 74 q 63 29 101 49 q 63 29 63 29 q 61 28 61 29 q 60 28 60 28 q 34 15 49 21 q 4 8 19 8 q -8 40 -21 7 q -7 47 -7 44 q -3 58 -4 54 q 3 65 1 64 q 3 67 4 68 q -2 63 1 65 q -11 57 -6 60 q -34 45 -25 49 q -43 47 -43 42 q -26 68 -43 51 l -4 88 q 1 92 -1 89 q 44 140 18 106 q 69 178 57 157 q 122 258 97 218 q 124 269 126 265 q 110 271 122 272 q 88 268 100 269 q 61 265 71 265 q 46 264 51 264 q 38 265 40 264 q 36 268 36 265 q 43 281 33 274 q 50 285 46 283 q 64 290 54 288 q 88 295 74 292 q 112 300 101 299 q 124 301 122 301 q 120 299 124 301 q 110 296 117 297 q 98 291 104 293 q 88 288 92 289 q 86 286 88 288 q 83 285 83 286 q 86 285 82 285 q 99 286 90 285 q 126 290 108 288 q 153 301 143 292 q 174 326 164 311 q 211 376 196 356 q 237 411 226 397 q 253 433 247 425 q 263 443 260 440 q 269 447 267 446 q 272 449 271 449 q 274 449 274 449 q 276 449 275 449 z "},"u":{"ha":210,"x_min":-36,"x_max":258,"o":"m 64 143 q 71 146 67 144 q 79 144 75 147 q 83 135 85 142 q 79 127 83 133 q 71 115 75 121 q 43 72 58 96 q 24 42 33 57 q 23 29 18 31 q 38 32 28 28 q 56 40 47 36 q 92 71 72 50 q 128 111 111 92 q 139 124 135 118 q 143 129 142 126 q 153 140 149 136 q 164 144 158 144 q 169 126 182 144 q 161 117 165 122 q 153 106 157 111 q 146 97 151 104 q 130 78 139 89 q 114 58 121 68 q 106 41 107 47 q 115 36 106 35 q 167 61 136 43 q 204 82 188 74 l 215 88 q 240 100 229 94 q 256 107 251 106 q 257 105 258 107 q 250 97 256 103 q 240 88 246 93 q 232 81 235 83 q 226 76 229 79 q 222 74 224 74 q 114 13 174 35 q 100 8 107 10 q 88 10 93 7 q 83 25 83 14 q 83 31 85 31 q 79 31 82 32 q 74 28 76 29 q 56 18 64 21 q 53 17 54 17 q 14 7 29 6 q -1 13 6 7 q -7 31 -8 18 q 3 53 -7 38 q 8 61 6 58 q 12 67 13 67 q 4 64 11 68 q -6 58 0 63 q -27 49 -18 51 q -36 51 -36 46 q -19 74 -36 57 l 33 114 q 43 124 36 117 q 56 136 50 131 q 64 143 63 142 z "},"v":{"ha":222,"x_min":-46,"x_max":261,"o":"m 63 147 q 63 147 63 147 q 64 147 64 147 q 65 147 64 147 q 65 147 65 147 q 65 147 65 147 q 66 147 65 147 q 67 146 67 146 q 68 146 68 146 q 68 146 68 146 q 69 145 68 146 q 69 144 69 144 q 69 144 69 144 q 69 144 69 144 q 70 143 69 143 q 71 143 71 143 q 72 140 72 142 q 72 138 72 139 q 71 131 72 135 q 68 126 69 128 q 61 119 64 122 q 58 118 60 118 q 56 114 57 115 q 54 113 54 114 q 54 113 54 113 q 54 113 54 113 q 38 64 40 82 q 38 35 36 46 q 49 27 39 22 q 72 46 58 32 q 97 75 85 60 q 106 83 101 79 q 108 86 107 85 q 119 103 115 93 q 119 104 119 104 q 125 117 121 110 q 140 140 131 129 q 156 147 147 147 q 168 138 165 147 q 169 133 169 135 q 167 128 168 131 q 163 122 164 125 q 157 115 160 119 q 151 110 154 111 q 149 106 150 107 q 142 94 146 100 q 135 80 138 88 q 139 64 133 72 q 169 58 151 51 q 203 76 186 65 q 218 85 211 82 q 236 94 226 90 q 251 102 244 99 q 260 106 257 106 q 260 105 261 107 q 253 97 260 103 q 244 88 249 93 q 235 81 239 83 q 229 76 232 78 q 225 74 226 74 q 222 69 224 72 q 219 67 221 68 q 215 64 218 65 q 190 47 206 56 q 158 38 175 39 q 125 50 140 36 q 113 58 117 58 q 104 53 110 58 q 104 51 104 53 q 83 31 93 40 q 42 0 61 7 q 31 1 35 -1 q 24 8 26 4 q 15 29 17 15 q 21 72 14 46 q 22 85 25 86 q 10 75 19 85 q -12 58 1 65 q -35 47 -25 50 q -46 47 -46 43 q -31 68 -46 51 l -7 88 q 11 103 -3 92 q 39 128 25 115 q 40 129 40 128 q 42 131 42 131 q 43 132 42 131 q 51 142 47 138 q 56 144 53 143 q 56 146 56 146 q 56 147 56 146 q 60 147 57 147 q 63 147 60 147 z "},"w":{"ha":299,"x_min":-51,"x_max":343,"o":"m 219 149 q 222 149 221 149 q 228 145 225 147 q 232 140 231 143 q 232 131 232 135 q 215 93 228 115 q 210 78 211 85 q 218 64 210 71 q 249 60 235 56 q 276 74 263 64 q 299 86 286 81 q 324 99 313 93 q 340 106 336 104 q 342 105 343 107 q 333 97 340 103 q 324 88 329 93 q 315 81 319 83 q 310 76 313 78 q 306 72 307 74 q 264 46 278 51 q 207 46 229 32 q 199 51 203 49 q 192 56 196 56 q 183 49 189 57 q 147 18 167 28 q 122 17 136 14 q 101 33 108 19 q 100 44 100 38 q 100 46 100 44 q 99 54 100 53 q 93 49 97 56 q 82 36 88 42 q 46 18 65 21 q 14 32 24 17 q 10 64 6 46 q 13 72 11 69 q 14 78 14 76 q 12 80 14 81 q 4 75 10 79 q -18 57 -4 65 q -41 47 -31 50 q -51 47 -51 43 q -36 68 -51 51 l -12 86 q 6 103 -8 90 q 33 128 19 115 q 35 129 35 128 q 36 131 36 129 q 38 131 36 131 q 46 142 42 138 q 47 142 46 142 q 47 143 47 143 q 47 143 47 143 q 47 143 47 143 l 47 143 q 49 143 49 143 q 50 144 49 144 q 50 144 50 144 q 51 146 50 146 q 54 147 51 146 q 57 147 56 147 q 58 147 57 147 q 59 147 58 147 q 60 147 60 147 q 60 147 60 147 q 60 147 60 147 q 61 146 61 146 q 62 146 61 146 q 63 146 63 146 q 63 145 63 146 q 63 144 63 144 q 64 144 64 144 q 64 143 64 143 q 64 143 64 143 q 65 143 64 143 q 65 143 65 143 q 67 139 67 142 q 67 138 67 139 q 65 131 67 133 q 63 126 64 128 q 57 121 60 122 q 29 60 36 85 q 31 42 28 46 q 35 39 32 40 q 44 38 38 38 q 68 51 53 39 q 96 83 83 65 q 117 115 108 101 q 122 124 119 121 q 122 125 122 125 q 122 125 122 125 q 122 126 122 126 q 122 126 122 126 q 122 126 122 126 q 122 126 122 126 q 122 126 122 126 l 122 126 q 122 126 122 126 q 124 126 122 126 q 124 126 124 126 q 124 126 124 126 q 124 126 124 126 q 124 128 124 126 q 124 128 124 128 q 124 128 124 128 q 125 129 125 129 q 125 129 125 129 q 132 132 126 132 q 141 128 138 132 q 142 119 144 125 q 124 82 131 104 q 119 42 117 60 q 128 36 122 36 q 140 38 133 35 q 168 63 151 42 q 171 64 169 64 q 179 76 175 69 q 182 90 183 83 q 201 140 181 114 q 203 142 203 142 q 213 147 208 146 q 219 149 215 149 z "},"x":{"ha":283,"x_min":-50,"x_max":326,"o":"m 63 147 q 71 146 69 149 q 72 139 72 143 q 75 128 72 133 q 156 42 108 47 q 209 47 183 36 q 261 74 235 57 q 282 86 271 81 q 308 99 296 93 q 324 106 319 104 q 325 104 326 106 q 317 96 324 103 q 308 88 313 92 q 299 81 303 83 q 293 76 296 78 q 290 72 290 74 q 228 34 265 53 q 151 21 192 15 q 60 106 94 32 q 58 108 58 107 q 56 113 57 111 q 53 113 56 114 q 47 108 51 111 q 28 90 38 99 q -17 57 8 72 q -40 45 -29 49 q -50 47 -50 42 q -35 68 -50 51 l -11 86 q 2 98 -8 89 q 24 117 13 107 q 46 136 36 128 q 57 146 56 144 q 63 147 61 147 m 219 144 q 237 145 232 149 q 240 137 242 142 q 235 129 239 132 q 3 -17 124 72 q -13 -24 -4 -22 q -26 -19 -22 -25 q -17 -1 -29 -14 q 176 121 79 67 q 219 144 200 133 z "},"y":{"ha":229,"x_min":-81,"x_max":268,"o":"m 64 146 q 66 146 65 146 q 68 144 67 146 q 72 139 72 143 q 72 139 72 139 q 71 139 72 139 q 71 139 71 139 q 71 138 71 139 l 72 138 q 71 138 71 138 q 71 138 71 138 q 69 135 71 136 q 63 119 68 128 q 40 64 50 93 q 35 33 33 43 q 39 28 36 28 q 46 31 42 28 q 54 36 50 33 q 58 40 56 39 q 89 75 72 54 q 104 94 97 85 q 117 111 111 103 q 128 124 124 118 q 133 128 131 125 q 133 128 133 128 q 137 130 135 129 q 142 131 139 131 q 147 129 144 131 q 153 125 150 128 q 154 118 154 121 q 154 107 156 113 q 144 79 151 96 q 124 32 136 58 q 132 22 113 8 q 207 76 167 43 q 208 76 208 76 l 224 88 q 249 100 238 94 q 265 107 261 106 q 267 105 268 107 q 258 97 265 103 q 249 88 254 93 q 240 81 244 83 q 232 74 236 78 q 221 64 228 69 q 122 -10 176 21 q 86 -43 100 -21 q 53 -100 69 -74 q 1 -160 26 -143 q -56 -175 -31 -181 q -75 -162 -68 -172 q -78 -137 -81 -151 q -36 -79 -74 -111 q 47 -24 -7 -53 q 97 26 79 -10 q 111 56 104 42 q 118 74 118 72 q 106 61 118 76 q 74 25 89 40 q 57 11 65 17 q 39 6 49 6 q 21 14 28 6 q 13 31 14 21 q 19 71 11 49 q 22 84 24 82 q 11 76 21 86 l -12 58 q -35 47 -25 50 q -46 47 -46 43 q -31 68 -46 51 l -7 88 q 6 99 -4 90 q 27 117 15 107 q 48 135 39 128 q 58 144 57 143 q 64 146 63 146 m 53 -50 q 25 -65 47 -50 q -22 -96 -4 -82 q -57 -142 -56 -126 q -57 -148 -57 -146 q -56 -151 -57 -150 q -54 -153 -56 -151 q -50 -154 -53 -154 q -11 -142 -39 -157 q 35 -87 7 -129 q 42 -78 38 -82 q 54 -57 50 -65 q 53 -50 58 -49 z "},"z":{"ha":260,"x_min":-49,"x_max":303,"o":"m 72 154 q 74 153 72 154 q 76 153 75 153 q 79 149 78 151 q 81 144 79 144 q 86 143 83 143 q 88 143 86 143 q 163 142 139 142 q 167 142 165 142 q 185 142 178 143 q 186 142 186 142 q 190 141 188 142 q 196 138 192 140 q 198 132 197 135 q 199 126 199 129 q 197 123 197 124 q 196 121 196 122 q 179 107 190 114 q 178 107 179 107 q 150 89 167 99 q 72 47 114 69 q 68 44 69 46 q 58 38 58 40 q 72 36 58 36 q 90 35 82 35 q 143 32 119 31 q 210 60 182 38 q 249 81 228 71 l 260 86 q 285 99 274 93 q 300 106 296 104 q 301 105 303 107 q 294 97 300 103 q 285 88 290 93 q 276 81 279 83 q 271 76 274 78 q 267 72 268 74 q 265 72 267 72 q 210 33 238 49 q 144 10 182 17 q 86 13 117 8 q 57 15 72 14 q 19 13 40 15 q -21 0 -3 10 q -21 0 -21 0 q -21 0 -21 0 q -22 0 -21 0 q -23 0 -22 0 q -25 0 -24 0 q -27 0 -26 0 q -28 0 -28 0 q -35 5 -33 0 q -36 15 -37 10 q -31 22 -35 19 q -19 29 -28 25 q -10 33 -15 32 q 17 44 3 38 q 63 67 38 54 q 139 108 104 89 q 148 114 144 111 q 149 119 151 117 q 138 121 147 121 q 76 122 114 121 q 63 120 68 122 q 51 113 58 118 q 51 111 51 111 q 43 103 46 107 q 17 81 26 89 q 1 69 8 74 q -15 57 -6 64 q -38 46 -28 50 q -49 47 -49 42 q -33 68 -49 51 l -8 86 q 6 99 -6 89 q 31 120 17 108 q 55 141 44 132 q 67 151 65 150 q 72 154 71 153 z "},"{":{"ha":281,"x_min":-1,"x_max":394,"o":"m 364 507 q 377 503 372 506 q 385 496 382 500 q 393 468 393 485 q 376 467 394 438 q 368 478 372 474 q 363 483 364 483 q 351 485 360 486 q 336 483 342 485 q 313 465 322 478 q 293 432 304 453 q 251 311 272 400 q 227 238 240 271 q 206 192 214 206 q 174 151 193 169 l 161 140 l 167 136 q 174 123 172 132 q 176 106 176 114 q 162 67 174 90 q 117 7 150 43 q 106 -4 111 1 q 51 -62 67 -43 q 32 -96 36 -81 q 31 -120 24 -114 q 60 -125 39 -126 q 69 -124 67 -124 q 72 -124 72 -124 q 71 -126 72 -125 q 48 -137 64 -133 q 21 -139 32 -142 q 7 -131 13 -137 q 0 -118 1 -125 q 17 -68 -1 -99 q 40 -39 25 -56 q 86 11 54 -22 q 140 72 124 51 q 156 106 156 93 q 155 112 156 108 q 153 117 154 115 q 150 120 151 119 q 146 121 149 121 q 138 121 143 121 q 126 120 129 119 q 122 122 124 121 q 123 131 119 126 q 140 147 126 136 q 183 190 169 168 q 190 201 188 196 q 194 214 192 206 q 203 238 197 222 q 226 319 214 274 q 249 397 238 367 q 275 450 260 426 q 318 494 293 478 q 364 507 343 510 z "},"|":{"ha":196,"x_min":29,"x_max":165,"o":"m 31 -172 q 30 -119 29 -154 q 33 -60 31 -83 q 110 356 64 190 q 157 479 149 493 q 165 458 165 475 q 162 442 165 456 q 153 413 158 429 q 105 224 125 324 q 64 -15 85 125 q 56 -72 60 -44 q 51 -111 53 -99 q 45 -142 49 -125 q 38 -172 42 -158 q 33 -185 35 -185 q 31 -181 32 -185 q 31 -172 31 -178 z "},"}":{"ha":279,"x_min":-1,"x_max":394,"o":"m 29 -140 q 16 -136 21 -139 q 8 -129 11 -133 q 0 -101 0 -118 q 18 -101 -1 -71 q 25 -112 21 -107 q 31 -117 29 -117 q 43 -119 35 -119 q 57 -117 51 -119 q 80 -99 71 -112 q 100 -65 89 -86 q 142 54 121 -35 q 166 128 153 96 q 188 175 179 161 q 219 215 200 196 l 232 226 l 226 231 q 219 244 221 235 q 217 261 217 253 q 231 300 219 276 q 276 360 243 324 q 288 371 282 365 q 342 428 326 410 q 361 463 357 447 q 362 487 369 481 q 333 492 354 493 q 324 490 326 490 q 321 491 321 490 q 322 493 321 492 q 345 504 329 500 q 372 506 361 508 q 386 498 381 504 q 393 485 392 492 q 376 435 394 465 q 353 404 368 421 q 307 354 339 388 q 253 294 269 315 q 238 261 238 274 q 238 255 238 258 q 240 250 239 251 q 243 247 242 247 q 247 246 244 246 q 256 246 250 246 q 267 247 264 247 q 271 244 269 246 q 270 235 274 240 q 253 219 267 229 q 210 176 224 199 q 203 166 206 171 q 199 153 201 161 q 190 129 196 144 q 167 47 179 93 q 144 -30 156 0 q 118 -83 133 -60 q 75 -127 100 -111 q 29 -140 50 -143 z "},"~":{"ha":361,"x_min":79,"x_max":321,"o":"m 201 114 q 176 163 171 124 q 177 192 179 183 q 164 200 175 200 q 148 196 157 200 q 131 185 139 192 q 113 166 122 178 q 99 147 103 154 q 83 144 92 135 q 87 165 79 151 q 111 194 94 179 q 148 216 128 208 q 185 222 168 224 q 210 175 218 219 q 208 155 207 163 q 214 142 210 147 q 228 135 221 135 q 244 142 235 135 q 262 159 253 149 q 283 189 271 169 q 315 231 308 228 q 319 228 318 232 q 321 218 321 224 q 321 207 321 213 q 308 178 318 194 q 286 149 297 161 q 226 113 254 118 q 213 111 218 111 q 201 114 208 111 z "},"":{"ha":261,"x_min":-61,"x_max":204,"o":"m 186 208 q 182 171 204 203 q 156 154 165 147 q 151 163 151 157 q 157 182 151 168 q 186 208 171 213 m 115 72 q 83 -6 104 40 q 65 -44 76 -21 q 41 -90 53 -68 q 24 -121 29 -111 q 11 -143 21 -125 q -11 -183 1 -161 q -35 -224 -26 -210 q -49 -242 -44 -237 q -57 -243 -54 -246 q -60 -233 -61 -240 q -54 -210 -60 -225 q -33 -166 -49 -194 q -4 -112 -18 -137 q 8 -90 -1 -107 q 31 -50 18 -72 q 77 30 54 -7 q 111 78 100 67 l 119 88 l 115 72 z "},"":{"ha":283,"x_min":69,"x_max":268,"o":"m 260 324 q 265 322 263 324 q 267 321 267 322 q 267 318 267 319 q 267 313 265 315 q 266 305 268 308 q 258 293 264 301 q 238 265 251 285 q 233 253 235 260 q 232 242 232 247 q 232 235 232 236 q 232 235 232 235 q 233 231 232 233 q 238 225 235 228 q 236 200 246 213 q 228 195 233 196 q 217 196 222 194 q 210 196 213 196 q 195 189 206 196 q 178 171 185 182 q 172 160 175 167 q 169 147 169 153 q 178 142 169 142 q 192 142 183 142 q 210 141 201 142 q 221 139 218 140 q 219 131 225 136 q 200 121 213 125 q 174 115 188 117 q 148 108 158 114 q 129 90 138 103 q 108 47 118 69 q 79 -3 92 14 l 69 -12 l 72 -3 q 88 41 75 13 q 113 93 100 69 q 118 101 115 97 q 126 115 124 108 q 119 126 128 122 q 132 201 85 156 q 158 218 143 213 q 185 226 172 224 q 195 236 189 228 q 213 261 201 244 q 218 268 215 265 q 234 294 226 282 q 243 310 242 306 q 260 324 250 322 m 165 189 q 158 185 164 189 q 144 178 151 182 q 135 169 138 174 q 134 164 133 167 q 138 158 135 161 q 139 157 138 157 q 145 155 142 151 q 157 171 149 158 l 157 171 q 163 184 161 179 q 165 189 165 189 z "},"":{"ha":374,"x_min":75,"x_max":419,"o":"m 82 -37 q 131 72 75 -22 q 147 99 138 88 q 156 115 156 110 q 135 115 156 119 q 113 110 124 114 q 106 108 108 108 q 103 107 103 107 q 101 113 100 108 q 106 119 101 117 q 125 131 110 124 q 156 142 140 138 q 185 168 179 147 q 178 166 183 168 q 165 163 174 164 q 151 158 156 158 q 144 158 146 157 q 142 161 142 158 q 154 182 140 171 q 169 188 161 186 q 194 197 182 190 q 215 217 206 203 q 220 226 219 222 q 221 238 221 231 q 225 284 219 251 q 238 348 231 317 q 250 392 244 379 q 258 399 253 397 q 264 399 263 401 q 256 318 268 390 q 251 288 253 301 q 250 271 250 275 q 251 264 249 264 q 258 268 254 264 q 267 276 263 272 q 272 282 269 281 q 298 307 281 292 q 332 338 315 322 q 365 366 349 351 q 388 389 381 381 q 415 397 419 422 q 394 367 414 388 q 324 299 375 346 q 278 257 293 271 q 256 235 263 243 q 246 221 250 228 q 241 209 239 213 q 253 206 243 206 q 265 207 260 206 q 272 208 269 207 q 276 207 275 208 l 282 204 l 272 199 q 251 187 265 193 q 225 178 236 181 q 216 173 219 176 q 208 163 213 169 q 206 153 206 157 q 215 147 207 149 q 225 146 221 147 q 233 145 231 146 q 235 142 236 144 q 225 136 232 139 q 210 131 218 133 q 196 126 201 128 q 177 113 185 124 q 164 90 169 101 q 160 83 161 86 q 146 61 153 72 q 124 24 133 42 q 101 -19 107 -8 q 97 -31 99 -26 q 92 -36 94 -35 q 85 -42 86 -42 q 82 -37 83 -42 z "},"":{"ha":1408,"x_min":31,"x_max":165,"o":"m 86 183 q 74 199 78 183 q 110 356 90 285 q 156 481 144 481 l 157 479 q 165 458 165 475 q 153 413 165 450 q 99 193 115 292 q 86 183 92 183 m 33 -185 q 31 -150 31 -185 q 33 -60 31 -89 q 56 99 44 25 q 71 110 65 110 q 81 89 79 110 q 51 -111 61 -26 q 33 -185 36 -185 z "},"":{"ha":386,"x_min":28,"x_max":390,"o":"m 321 458 q 349 454 335 458 q 379 428 368 447 q 386 393 390 410 q 380 383 383 389 q 372 374 376 378 q 367 372 368 371 q 367 374 367 372 q 367 379 367 376 q 369 386 368 382 q 368 393 369 390 q 362 417 368 404 q 342 433 356 429 q 330 433 339 433 q 311 433 321 433 q 296 432 301 432 q 251 410 269 426 q 224 372 232 393 q 217 336 219 360 q 218 297 214 313 q 229 274 221 288 q 247 247 238 260 q 261 231 257 233 q 281 209 269 225 q 297 181 293 193 q 297 178 297 179 q 301 162 300 169 q 299 140 301 154 q 269 84 285 103 q 219 46 253 65 q 188 30 192 39 q 192 3 185 21 q 201 -40 197 -12 q 196 -83 204 -62 q 151 -126 188 -104 q 126 -138 136 -135 q 104 -143 117 -142 q 42 -117 56 -142 q 29 -61 28 -92 q 29 -51 29 -57 q 30 -28 29 -37 q 32 -18 31 -18 q 38 -28 35 -18 q 44 -51 40 -37 q 51 -79 47 -65 q 74 -108 58 -96 q 106 -117 90 -119 q 142 -99 125 -112 q 171 -72 160 -86 q 179 -49 182 -58 q 178 -43 178 -47 q 150 32 179 -31 q 133 111 129 67 q 139 136 136 126 q 149 160 142 146 q 178 199 161 182 q 210 222 196 215 q 219 232 219 226 q 213 246 218 238 q 208 254 210 250 q 192 346 182 296 q 194 365 193 358 q 198 377 196 372 q 206 389 200 382 q 256 439 225 421 q 321 458 288 457 m 258 185 q 257 186 257 186 q 247 195 253 192 q 233 197 242 199 q 228 194 231 196 q 206 188 215 192 q 189 174 196 183 q 171 144 178 158 q 161 110 164 129 q 221 76 153 36 q 233 82 228 79 q 243 88 239 85 q 258 106 250 93 q 269 132 265 118 q 272 159 275 147 q 258 185 269 171 z "},"":{"ha":174,"x_min":56,"x_max":149,"o":"m 117 397 q 112 400 114 399 q 108 404 110 401 q 106 409 107 407 q 106 415 106 411 q 114 432 107 428 q 131 435 122 438 q 144 426 139 433 q 146 411 149 419 q 140 403 144 407 q 129 397 135 399 q 122 396 125 396 q 117 397 119 396 m 65 397 q 62 400 64 399 q 58 404 60 401 q 56 409 57 407 q 56 415 56 411 q 64 432 57 428 q 80 435 71 438 q 94 426 89 433 q 96 411 99 419 q 90 403 94 407 q 79 397 85 399 q 72 396 75 396 q 65 397 69 396 z "},"":{"ha":776,"x_min":71,"x_max":740,"o":"m 467 336 q 515 310 501 336 q 507 200 536 268 q 470 148 490 163 q 443 153 450 133 q 461 219 436 172 q 467 232 464 225 q 471 244 469 239 q 478 260 475 257 q 486 261 481 264 q 489 261 488 261 q 493 263 490 261 q 500 265 497 265 q 506 260 503 264 l 508 256 l 510 260 q 510 276 511 265 q 507 293 510 286 q 494 308 503 304 q 471 311 486 311 q 371 263 424 310 q 288 172 318 215 q 243 67 250 113 q 244 28 239 44 q 324 -28 263 -15 q 456 -26 389 -37 q 556 -3 518 -12 q 601 7 589 6 l 608 8 l 603 6 q 585 -1 599 4 q 542 -14 571 -6 q 485 -32 504 -26 q 444 -43 465 -37 q 427 -47 435 -44 q 417 -50 419 -49 q 389 -55 401 -53 q 357 -57 376 -57 q 317 -56 326 -57 q 257 -28 283 -47 q 258 172 179 33 q 390 310 311 261 q 467 336 435 336 m 493 244 q 488 235 489 239 q 488 231 486 232 q 490 234 489 231 q 493 244 492 238 m 503 231 q 497 222 501 231 q 485 206 490 210 q 475 203 479 201 q 471 202 472 203 q 467 197 469 201 q 460 181 463 190 q 456 168 457 172 q 454 164 454 165 q 455 162 454 163 q 456 161 456 161 q 458 162 457 161 q 463 164 460 163 q 497 215 482 178 q 503 231 504 231 m 490 450 q 539 443 515 449 q 669 413 621 457 q 731 265 722 357 q 709 78 740 172 q 608 -74 678 -15 q 374 -177 493 -162 q 172 -140 256 -192 q 78 25 88 -86 q 174 292 71 136 q 313 410 226 367 q 490 450 400 453 m 490 431 q 322 391 406 432 q 190 281 239 350 q 97 25 89 128 q 182 -124 106 -76 q 372 -158 260 -171 q 596 -58 485 -144 q 690 85 660 -4 q 711 263 719 175 q 656 397 703 350 q 519 419 611 444 l 518 426 q 511 428 514 428 q 490 431 501 429 z "},"":{"ha":308,"x_min":22,"x_max":246,"o":"m 106 29 q 92 38 101 32 q 69 49 82 43 q 47 60 56 56 q 35 69 39 65 q 31 78 32 72 q 36 113 22 94 q 47 126 40 119 q 69 149 54 133 q 92 169 79 157 q 114 190 104 181 q 124 201 124 200 q 127 205 125 203 q 133 211 129 207 q 145 221 140 218 q 153 224 150 224 q 156 220 156 222 q 153 215 156 218 q 147 209 151 215 q 138 196 143 203 q 111 165 125 179 q 71 125 97 150 q 49 103 58 114 q 39 88 40 92 q 40 85 39 86 q 44 82 42 83 q 53 77 47 81 q 71 68 60 74 q 108 47 94 56 q 135 22 121 38 q 142 14 142 15 q 134 16 140 14 q 119 22 128 18 q 106 29 111 25 m 196 29 q 182 38 192 32 q 160 49 172 43 q 138 60 146 56 q 126 69 129 65 q 121 78 122 72 q 126 113 113 94 q 138 126 131 119 q 160 149 144 133 q 182 169 169 157 q 204 190 194 181 q 214 201 214 200 q 217 205 215 203 q 224 211 219 207 q 235 221 231 218 q 243 224 240 224 q 246 220 246 222 q 243 215 246 218 q 238 209 242 215 q 228 196 233 203 q 201 165 215 179 q 161 125 188 150 q 140 103 149 114 q 129 88 131 92 q 131 85 129 86 q 135 82 132 83 q 144 77 138 81 q 161 68 150 74 q 198 47 185 56 q 225 22 211 38 q 232 14 232 15 q 224 16 231 14 q 210 22 218 18 q 196 29 201 25 z "},"":{"ha":813,"x_min":78,"x_max":747,"o":"m 497 450 q 546 443 522 449 q 676 413 628 457 q 738 265 729 357 q 716 78 747 172 q 615 -74 685 -15 q 381 -177 500 -162 q 179 -140 263 -192 q 85 25 94 -86 q 181 292 78 136 q 320 410 233 367 q 497 450 407 453 m 497 431 q 329 391 413 432 q 197 281 246 350 q 104 25 96 128 q 189 -124 113 -76 q 379 -158 267 -171 q 603 -58 492 -144 q 697 85 667 -4 q 718 263 726 175 q 663 397 710 350 q 526 419 618 444 l 525 426 q 518 428 521 428 q 497 431 508 429 m 436 351 q 547 286 521 349 q 547 182 567 240 q 465 69 526 124 q 414 39 449 56 q 379 26 399 32 q 371 24 374 25 q 359 19 360 21 q 364 10 358 17 q 369 1 367 6 q 426 -67 397 -40 q 454 -81 442 -78 q 470 -82 460 -82 q 491 -81 481 -82 q 507 -76 501 -79 q 483 -95 493 -89 q 453 -100 472 -101 q 415 -83 433 -96 q 356 -11 382 -54 q 344 3 351 -4 q 328 8 338 10 q 304 3 315 6 q 300 3 303 3 q 291 -1 294 1 q 285 -10 288 -3 q 267 -51 275 -31 q 253 -83 260 -67 q 242 -93 249 -90 q 233 -94 236 -96 q 233 -83 229 -92 q 265 -10 249 -47 q 267 -7 265 -8 q 269 0 269 -3 q 263 4 269 3 q 251 13 256 7 q 244 25 246 18 q 254 60 243 40 q 271 75 260 69 q 290 82 282 81 q 301 81 297 82 q 306 81 304 81 q 308 83 307 81 q 311 92 308 86 q 315 100 313 96 q 381 251 347 174 q 383 257 382 254 q 386 263 385 260 q 388 268 388 267 q 387 268 389 269 q 381 263 385 267 q 375 258 378 260 q 365 249 369 253 q 360 243 361 244 l 368 261 q 376 272 372 267 q 388 291 382 282 q 406 308 394 300 q 422 315 419 318 q 419 299 425 313 q 331 94 372 188 q 328 88 329 90 q 322 72 324 79 q 328 60 321 65 q 338 46 332 53 q 347 38 342 39 q 363 42 351 36 q 403 57 383 49 q 435 73 421 65 q 454 85 449 81 q 528 185 511 133 q 528 275 544 236 q 472 324 513 311 q 364 317 431 338 q 347 313 354 315 q 342 307 340 310 q 358 304 343 304 q 363 303 360 303 q 372 301 367 303 q 351 294 364 296 q 330 297 339 293 q 322 314 321 300 q 328 322 324 318 q 336 329 332 326 q 411 350 376 346 q 436 351 424 351 m 288 64 q 267 54 279 65 q 263 43 264 50 q 263 31 261 36 q 269 24 264 25 q 281 26 278 22 q 286 36 285 29 q 290 44 288 40 q 292 49 290 46 q 295 59 294 54 q 288 64 296 64 m 318 39 q 318 40 318 40 q 310 46 313 47 q 304 35 308 44 q 301 24 300 26 q 313 25 303 22 q 324 30 322 28 q 318 39 325 32 z "},"":{"ha":236,"x_min":68,"x_max":182,"o":"m 76 385 q 69 396 68 389 q 74 401 69 400 q 92 403 79 403 q 108 403 99 403 q 124 404 117 404 q 150 404 136 406 q 173 401 164 403 q 182 397 182 399 q 169 390 181 394 q 144 383 157 386 q 127 381 135 381 q 106 382 119 381 q 87 383 94 382 q 76 385 79 385 z "},"":{"ha":190,"x_min":69,"x_max":131,"o":"m 101 385 q 78 398 88 386 q 71 426 69 410 q 76 443 72 435 q 86 456 81 451 q 99 460 92 460 q 113 456 107 460 q 122 444 118 451 q 125 432 125 438 q 126 428 125 431 q 128 424 126 425 q 128 410 131 418 q 121 394 126 401 q 108 386 115 388 q 101 385 104 385 m 100 403 q 104 405 101 403 q 110 410 107 407 q 114 413 113 413 q 116 421 117 415 q 113 432 115 426 q 106 439 110 438 q 97 438 103 442 q 88 430 92 435 q 88 421 85 425 q 90 414 88 418 q 94 406 92 410 q 100 403 97 403 z "},"":{"ha":313,"x_min":40,"x_max":269,"o":"m 108 4 q 128 68 111 21 q 135 91 131 79 q 142 110 139 103 q 145 126 146 121 q 140 132 144 131 q 129 132 136 133 q 121 132 125 132 q 98 133 111 132 q 74 136 85 135 q 63 139 64 138 q 61 140 61 139 q 61 144 61 142 q 67 149 61 147 q 87 152 72 151 q 128 153 101 153 q 155 157 149 151 q 165 175 161 163 q 167 179 165 178 q 174 199 169 189 q 181 217 178 210 q 184 223 182 218 q 188 233 186 228 q 192 244 190 240 q 196 250 194 249 q 199 251 197 251 q 185 182 207 249 q 182 172 183 176 q 178 159 178 164 q 188 154 179 154 q 242 151 217 154 q 264 149 258 150 q 267 146 269 149 q 253 142 265 144 q 224 138 240 140 q 194 135 208 135 q 172 131 176 135 q 161 110 167 126 q 131 33 147 67 q 122 16 126 25 q 113 1 117 7 q 108 -4 110 -4 q 108 -2 108 -4 q 108 4 108 0 m 54 -40 q 42 -29 40 -36 q 49 -24 42 -25 q 79 -22 57 -22 q 106 -22 90 -22 q 132 -21 121 -21 q 176 -21 154 -19 q 214 -24 199 -22 q 228 -28 229 -26 q 218 -32 228 -29 q 194 -37 208 -35 q 167 -42 181 -40 q 139 -44 151 -44 q 101 -43 126 -44 q 71 -42 85 -43 q 54 -40 57 -40 z "},"":{"ha":161,"x_min":49,"x_max":114,"o":"m 50 396 q 75 421 56 408 q 110 429 103 440 q 111 428 110 429 q 113 424 113 426 q 112 420 114 422 q 104 414 110 418 q 93 408 100 411 q 82 401 86 404 q 78 400 79 400 q 75 399 76 399 q 65 393 71 396 q 55 389 60 390 q 49 388 50 388 q 49 391 49 389 q 50 396 49 393 z "},"":{"ha":386,"x_min":51,"x_max":364,"o":"m 204 -99 q 199 -44 186 -90 q 247 97 214 13 q 256 118 253 110 q 260 128 260 126 q 258 127 260 129 q 253 119 257 125 q 213 99 226 79 q 208 105 208 101 q 207 117 207 108 q 232 232 207 150 q 251 290 246 274 q 256 306 257 306 q 233 273 256 307 q 175 181 211 239 q 106 74 143 129 q 94 58 99 64 q 90 50 90 51 q 92 51 90 50 q 97 53 94 51 q 103 56 100 54 q 110 57 107 57 q 113 58 113 58 q 110 53 113 57 q 100 43 107 50 q 88 31 94 38 q 76 19 81 24 q 69 12 72 14 q 63 10 65 10 q 55 13 58 10 q 51 19 51 15 q 86 83 51 29 q 128 146 111 119 q 160 196 144 172 q 267 356 251 349 q 281 357 274 361 q 288 343 288 353 q 283 316 288 336 q 268 269 278 296 q 249 211 256 232 q 239 176 243 190 q 234 156 236 167 q 231 136 232 144 q 229 126 229 128 q 242 146 231 126 q 271 193 254 165 q 303 249 288 221 q 326 293 318 276 q 340 320 335 311 q 350 331 346 329 q 358 331 354 333 q 363 319 364 328 q 353 293 363 311 q 332 247 343 274 q 299 165 321 221 q 253 50 267 85 q 235 -6 240 15 q 220 -56 225 -33 q 217 -78 215 -78 q 221 -77 217 -78 q 231 -75 225 -76 q 242 -73 236 -74 q 250 -72 247 -72 l 256 -74 l 247 -82 q 204 -99 221 -108 z "},"":{"ha":715,"x_min":-7,"x_max":693,"o":"m 422 -183 q 422 -130 421 -165 q 426 -71 424 -94 q 503 344 457 179 q 550 468 540 482 q 558 447 558 464 q 555 431 558 444 q 546 401 551 418 q 497 213 518 313 q 457 -26 476 114 q 449 -83 453 -56 q 443 -122 444 -110 q 438 -153 442 -136 q 430 -183 433 -169 q 425 -196 426 -196 q 424 -192 425 -196 q 422 -183 424 -189 m 693 483 q 686 475 689 479 q 675 463 682 469 q 651 446 668 457 q 428 446 563 426 q 423 427 426 439 q 415 401 419 415 q 367 213 388 313 q 326 -26 346 114 q 319 -83 322 -56 q 313 -122 315 -110 q 308 -153 311 -136 q 300 -183 304 -169 q 294 -196 296 -196 q 294 -192 294 -196 q 292 -183 293 -189 l 292 -183 q 292 -130 290 -165 q 296 -71 293 -94 q 333 172 313 63 q 213 189 278 175 q 92 229 147 203 q 10 310 29 258 q 58 428 -7 363 q 182 476 104 471 q 261 479 219 481 q 347 474 304 478 q 411 468 379 471 q 415 467 413 468 q 419 468 418 469 q 422 467 421 468 q 646 465 564 449 l 693 483 z "},"":{"ha":167,"x_min":58,"x_max":100,"o":"m 79 193 q 65 199 71 193 q 58 214 58 206 q 65 228 58 222 q 79 235 71 235 q 94 228 88 235 q 100 214 100 222 q 94 199 100 206 q 79 193 88 193 z "},"":{"ha":192,"x_min":46,"x_max":133,"o":"m 104 18 l 118 11 q 110 -3 115 6 q 110 -4 110 -3 q 108 -6 108 -4 q 97 -24 103 -15 q 97 -26 97 -25 q 96 -28 96 -26 q 94 -29 96 -28 q 115 -31 107 -28 q 129 -44 126 -35 q 118 -81 133 -64 q 81 -96 103 -97 q 46 -54 57 -92 q 52 -42 49 -42 q 61 -50 56 -43 q 72 -74 65 -67 q 83 -81 78 -81 q 107 -69 94 -82 q 113 -58 111 -64 q 115 -49 115 -53 q 114 -47 115 -47 q 110 -44 113 -46 q 92 -44 106 -43 q 90 -44 92 -44 q 89 -46 90 -46 q 86 -47 88 -46 q 83 -46 85 -47 q 78 -44 81 -46 q 76 -40 76 -42 q 76 -37 75 -39 q 76 -35 76 -36 q 83 -18 78 -26 q 83 -17 83 -17 q 96 3 90 -7 q 96 4 96 3 q 101 13 99 8 q 104 18 104 17 z "},"":{"ha":315,"x_min":28,"x_max":256,"o":"m 78 208 q 92 200 82 206 q 113 189 101 194 q 135 177 128 182 q 147 169 143 172 q 153 160 150 165 q 146 125 160 143 q 135 111 142 118 q 113 89 129 104 q 92 69 104 81 q 69 47 79 57 q 58 36 60 38 q 56 33 58 35 q 50 26 53 31 q 38 16 43 19 q 31 14 32 13 q 28 17 28 15 q 29 21 28 19 q 35 28 31 22 q 46 42 40 33 q 72 73 58 58 q 111 113 85 88 q 134 135 125 124 q 143 150 143 146 q 142 152 143 151 q 138 155 142 153 q 128 160 135 157 q 113 169 122 164 q 76 190 89 181 q 49 214 63 200 q 42 224 40 222 q 49 222 43 224 q 63 216 56 219 q 78 208 71 213 m 174 208 q 188 200 178 206 q 208 189 197 194 q 231 177 224 182 q 242 169 239 172 q 249 160 246 165 q 242 125 256 143 q 231 111 238 118 q 208 89 225 104 q 188 69 200 81 q 165 47 175 57 q 154 36 156 38 q 151 33 154 35 q 146 26 149 31 q 133 16 139 19 q 126 14 128 13 q 124 17 124 15 q 125 21 124 19 q 131 28 126 22 q 142 42 136 33 q 167 73 154 58 q 207 113 181 88 q 230 135 221 124 q 239 150 239 146 q 238 152 239 151 q 234 155 238 153 q 224 160 231 157 q 208 169 218 164 q 172 190 185 181 q 144 214 158 200 q 138 224 136 222 q 145 222 139 224 q 159 216 151 219 q 174 208 167 213 z "},"":{"ha":278,"x_min":-39,"x_max":231,"o":"m 222 196 q 230 186 229 193 q 227 174 231 179 q 217 168 224 168 q 199 179 200 168 q 214 196 197 190 q 219 197 217 197 q 222 196 221 197 m 179 81 q 181 58 188 74 q 158 19 174 42 q 128 -17 150 8 q 71 -81 107 -39 q 28 -140 42 -115 q 7 -185 15 -164 q 4 -190 6 -187 q -5 -219 -4 -210 q 0 -232 -6 -228 q 43 -231 13 -239 q 87 -212 67 -224 q 135 -182 107 -201 q 151 -171 149 -172 q 147 -175 153 -169 q 60 -244 111 -217 q -19 -261 8 -271 q -39 -233 -37 -254 q -38 -223 -39 -228 q -35 -211 -37 -218 q -28 -192 -33 -204 q 8 -129 -15 -161 q 83 -35 31 -97 q 147 47 143 35 q 149 56 149 51 q 147 63 149 60 q 147 71 147 68 q 150 75 147 74 q 164 83 156 82 q 179 81 172 85 z "},"":{"ha":415,"x_min":-108,"x_max":526,"o":"m 488 446 q 497 444 493 446 q 507 435 504 442 q 507 433 507 435 q 508 431 507 432 q 508 427 508 429 q 508 425 508 425 q 508 424 508 425 q 507 424 508 424 q 507 424 507 424 q 507 422 507 422 q 507 422 507 422 q 507 421 507 421 q 504 417 506 419 q 494 400 500 411 q 463 342 483 379 q 438 299 451 322 q 360 161 403 236 q 332 111 346 136 q 322 96 328 101 q 316 81 314 85 q 340 79 318 76 q 414 79 399 82 q 340 63 383 69 q 311 56 321 60 q 296 46 301 53 q 283 25 290 39 q 275 8 281 18 q 253 -32 264 -12 q 224 -87 239 -60 q 186 -159 203 -129 q 163 -193 169 -189 q 167 -166 158 -193 q 192 -98 175 -139 q 231 -19 208 -57 q 253 19 240 -1 q 261 36 258 29 q 267 51 271 49 q 239 49 264 53 q 236 49 238 49 q 171 42 203 44 q 164 42 167 42 q 116 35 133 39 q 84 19 99 32 q 47 -21 69 7 q 38 -31 46 -22 q 19 -54 31 -40 q 6 -72 14 -62 q -1 -81 3 -76 q 1 -79 0 -81 q 4 -78 3 -79 q -3 -96 1 -89 q -17 -110 -8 -103 q -37 -135 -25 -118 q -67 -165 -56 -150 q -69 -169 -68 -167 q -71 -169 -69 -169 q -71 -171 -71 -171 q -72 -171 -71 -171 q -83 -186 -79 -182 q -86 -189 -85 -187 q -87 -189 -86 -189 q -87 -190 -87 -189 q -87 -190 -87 -190 q -90 -192 -89 -190 q -90 -192 -90 -192 q -92 -192 -90 -192 q -92 -192 -92 -192 q -94 -192 -93 -192 q -95 -193 -94 -193 q -96 -193 -96 -193 q -97 -192 -96 -193 q -99 -192 -97 -192 q -101 -191 -100 -192 q -103 -190 -103 -190 q -103 -190 -103 -190 q -105 -187 -104 -189 q -106 -185 -106 -186 q -107 -185 -107 -185 q -107 -184 -107 -185 q -108 -183 -107 -183 q -108 -181 -108 -182 q -108 -181 -108 -181 q -108 -180 -108 -181 q -108 -179 -108 -179 q -108 -178 -108 -179 q -108 -178 -108 -178 q -108 -176 -108 -176 q -107 -174 -107 -175 q -107 -174 -107 -174 q -106 -172 -107 -172 q -106 -171 -106 -171 q -99 -164 -103 -168 q -94 -158 -96 -161 q -93 -157 -93 -157 q -92 -156 -93 -157 q -49 -101 -75 -135 q -44 -94 -46 -97 q 0 -39 -21 -64 q 3 -35 1 -36 q 29 -3 21 -11 q 42 11 36 6 q 58 31 61 28 q 21 31 54 33 q -57 31 -37 26 q 46 51 -42 40 q 83 60 71 54 q 114 89 96 67 q 263 250 181 163 q 411 396 346 338 q 464 436 442 424 q 485 444 475 443 q 488 446 486 446 m 468 407 q 453 397 465 406 q 428 376 442 389 q 281 229 364 318 q 219 168 250 197 q 133 78 174 121 q 126 65 124 67 q 140 64 129 63 q 147 64 143 64 q 235 72 192 68 q 242 72 239 72 q 272 76 261 74 q 290 89 282 79 q 307 119 297 99 q 324 147 315 135 q 340 175 332 160 q 399 275 372 229 q 439 346 421 313 q 446 356 442 351 q 459 380 453 368 q 468 399 465 392 q 468 407 471 407 z "},"":{"ha":415,"x_min":-108,"x_max":542,"o":"m 488 446 q 497 444 493 446 q 507 435 504 442 q 507 433 507 435 q 508 431 507 432 q 508 427 508 429 q 508 425 508 425 q 508 424 508 425 q 507 424 508 424 q 507 424 507 424 q 507 422 507 422 q 507 422 507 422 q 507 421 507 421 q 504 417 506 419 q 494 400 500 411 q 463 342 483 379 q 438 299 451 322 q 360 161 403 236 q 332 111 346 136 q 322 96 328 101 q 316 81 314 85 q 340 79 318 76 q 414 79 399 82 q 340 63 383 69 q 311 56 321 60 q 296 46 301 53 q 283 25 290 39 q 275 8 281 18 q 253 -32 264 -12 q 224 -87 239 -60 q 186 -159 203 -129 q 163 -193 169 -189 q 167 -166 158 -193 q 192 -98 175 -139 q 231 -19 208 -57 q 253 19 240 -1 q 261 36 258 29 q 267 51 271 49 q 239 49 264 53 q 236 49 238 49 q 171 42 203 44 q 164 42 167 42 q 116 35 133 39 q 84 19 99 32 q 47 -21 69 7 q 38 -31 46 -22 q 19 -54 31 -40 q 6 -72 14 -62 q -1 -81 3 -76 q 1 -79 0 -81 q 4 -78 3 -79 q -3 -96 1 -89 q -17 -110 -8 -103 q -37 -135 -25 -118 q -67 -165 -56 -150 q -69 -169 -68 -167 q -71 -169 -69 -169 q -71 -171 -71 -171 q -72 -171 -71 -171 q -83 -186 -79 -182 q -86 -189 -85 -187 q -87 -189 -86 -189 q -87 -190 -87 -189 q -87 -190 -87 -190 q -90 -192 -89 -190 q -90 -192 -90 -192 q -92 -192 -90 -192 q -92 -192 -92 -192 q -94 -192 -93 -192 q -95 -193 -94 -193 q -96 -193 -96 -193 q -97 -192 -96 -193 q -99 -192 -97 -192 q -101 -191 -100 -192 q -103 -190 -103 -190 q -103 -190 -103 -190 q -105 -187 -104 -189 q -106 -185 -106 -186 q -107 -185 -107 -185 q -107 -184 -107 -185 q -108 -183 -107 -183 q -108 -181 -108 -182 q -108 -181 -108 -181 q -108 -180 -108 -181 q -108 -179 -108 -179 q -108 -178 -108 -179 q -108 -178 -108 -178 q -108 -176 -108 -176 q -107 -174 -107 -175 q -107 -174 -107 -174 q -106 -172 -107 -172 q -106 -171 -106 -171 q -99 -164 -103 -168 q -94 -158 -96 -161 q -93 -157 -93 -157 q -92 -156 -93 -157 q -49 -101 -75 -135 q -44 -94 -46 -97 q 0 -39 -21 -64 q 3 -35 1 -36 q 29 -3 21 -11 q 42 11 36 6 q 58 31 61 28 q 21 31 54 33 q -57 31 -37 26 q 46 51 -42 40 q 83 60 71 54 q 114 89 96 67 q 263 250 181 163 q 411 396 346 338 q 464 436 442 424 q 485 444 475 443 q 488 446 486 446 m 468 407 q 453 397 465 406 q 428 376 442 389 q 281 229 364 318 q 219 168 250 197 q 133 78 174 121 q 126 65 124 67 q 140 64 129 63 q 147 64 143 64 q 235 72 192 68 q 242 72 239 72 q 272 76 261 74 q 290 89 282 79 q 307 119 297 99 q 324 147 315 135 q 340 175 332 160 q 399 275 372 229 q 439 346 421 313 q 446 356 442 351 q 459 380 453 368 q 468 399 465 392 q 468 407 471 407 z "},"":{"ha":415,"x_min":-108,"x_max":578,"o":"m 488 446 q 497 444 493 446 q 507 435 504 442 q 507 433 507 435 q 508 431 507 432 q 508 427 508 429 q 508 425 508 425 q 508 424 508 425 q 507 424 508 424 q 507 424 507 424 q 507 422 507 422 q 507 422 507 422 q 507 421 507 421 q 504 417 506 419 q 494 400 500 411 q 463 342 483 379 q 438 299 451 322 q 360 161 403 236 q 332 111 346 136 q 322 96 328 101 q 316 81 314 85 q 340 79 318 76 q 414 79 399 82 q 340 63 383 69 q 311 56 321 60 q 296 46 301 53 q 283 25 290 39 q 275 8 281 18 q 253 -32 264 -12 q 224 -87 239 -60 q 186 -159 203 -129 q 163 -193 169 -189 q 167 -166 158 -193 q 192 -98 175 -139 q 231 -19 208 -57 q 253 19 240 -1 q 261 36 258 29 q 267 51 271 49 q 239 49 264 53 q 236 49 238 49 q 171 42 203 44 q 164 42 167 42 q 116 35 133 39 q 84 19 99 32 q 47 -21 69 7 q 38 -31 46 -22 q 19 -54 31 -40 q 6 -72 14 -62 q -1 -81 3 -76 q 1 -79 0 -81 q 4 -78 3 -79 q -3 -96 1 -89 q -17 -110 -8 -103 q -37 -135 -25 -118 q -67 -165 -56 -150 q -69 -169 -68 -167 q -71 -169 -69 -169 q -71 -171 -71 -171 q -72 -171 -71 -171 q -83 -186 -79 -182 q -86 -189 -85 -187 q -87 -189 -86 -189 q -87 -190 -87 -189 q -87 -190 -87 -190 q -90 -192 -89 -190 q -90 -192 -90 -192 q -92 -192 -90 -192 q -92 -192 -92 -192 q -94 -192 -93 -192 q -95 -193 -94 -193 q -96 -193 -96 -193 q -97 -192 -96 -193 q -99 -192 -97 -192 q -101 -191 -100 -192 q -103 -190 -103 -190 q -103 -190 -103 -190 q -105 -187 -104 -189 q -106 -185 -106 -186 q -107 -185 -107 -185 q -107 -184 -107 -185 q -108 -183 -107 -183 q -108 -181 -108 -182 q -108 -181 -108 -181 q -108 -180 -108 -181 q -108 -179 -108 -179 q -108 -178 -108 -179 q -108 -178 -108 -178 q -108 -176 -108 -176 q -107 -174 -107 -175 q -107 -174 -107 -174 q -106 -172 -107 -172 q -106 -171 -106 -171 q -99 -164 -103 -168 q -94 -158 -96 -161 q -93 -157 -93 -157 q -92 -156 -93 -157 q -49 -101 -75 -135 q -44 -94 -46 -97 q 0 -39 -21 -64 q 3 -35 1 -36 q 29 -3 21 -11 q 42 11 36 6 q 58 31 61 28 q 21 31 54 33 q -57 31 -37 26 q 46 51 -42 40 q 83 60 71 54 q 114 89 96 67 q 263 250 181 163 q 411 396 346 338 q 464 436 442 424 q 485 444 475 443 q 488 446 486 446 m 468 407 q 453 397 465 406 q 428 376 442 389 q 281 229 364 318 q 219 168 250 197 q 133 78 174 121 q 126 65 124 67 q 140 64 129 63 q 147 64 143 64 q 235 72 192 68 q 242 72 239 72 q 272 76 261 74 q 290 89 282 79 q 307 119 297 99 q 324 147 315 135 q 340 175 332 160 q 399 275 372 229 q 439 346 421 313 q 446 356 442 351 q 459 380 453 368 q 468 399 465 392 q 468 407 471 407 m 467 501 q 461 518 447 501 q 478 529 469 525 q 486 535 482 532 q 498 541 492 538 q 507 544 504 544 q 516 549 511 547 q 524 549 521 550 q 533 543 529 547 q 543 535 538 538 q 546 533 544 535 q 558 527 551 531 q 568 521 564 524 q 576 515 574 517 q 578 511 578 513 q 575 507 578 510 q 575 506 575 506 q 539 514 567 494 q 524 529 528 524 q 519 533 521 532 q 515 532 518 533 q 507 525 513 531 q 485 510 496 517 q 469 501 475 503 q 467 501 468 501 z "},"":{"ha":415,"x_min":-108,"x_max":601,"o":"m 488 446 q 497 444 493 446 q 507 435 504 442 q 507 433 507 435 q 508 431 507 432 q 508 427 508 429 q 508 425 508 425 q 508 424 508 425 q 507 424 508 424 q 507 424 507 424 q 507 422 507 422 q 507 422 507 422 q 507 421 507 421 q 504 417 506 419 q 494 400 500 411 q 463 342 483 379 q 438 299 451 322 q 360 161 403 236 q 332 111 346 136 q 322 96 328 101 q 316 81 314 85 q 340 79 318 76 q 414 79 399 82 q 340 63 383 69 q 311 56 321 60 q 296 46 301 53 q 283 25 290 39 q 275 8 281 18 q 253 -32 264 -12 q 224 -87 239 -60 q 186 -159 203 -129 q 163 -193 169 -189 q 167 -166 158 -193 q 192 -98 175 -139 q 231 -19 208 -57 q 253 19 240 -1 q 261 36 258 29 q 267 51 271 49 q 239 49 264 53 q 236 49 238 49 q 171 42 203 44 q 164 42 167 42 q 116 35 133 39 q 84 19 99 32 q 47 -21 69 7 q 38 -31 46 -22 q 19 -54 31 -40 q 6 -72 14 -62 q -1 -81 3 -76 q 1 -79 0 -81 q 4 -78 3 -79 q -3 -96 1 -89 q -17 -110 -8 -103 q -37 -135 -25 -118 q -67 -165 -56 -150 q -69 -169 -68 -167 q -71 -169 -69 -169 q -71 -171 -71 -171 q -72 -171 -71 -171 q -83 -186 -79 -182 q -86 -189 -85 -187 q -87 -189 -86 -189 q -87 -190 -87 -189 q -87 -190 -87 -190 q -90 -192 -89 -190 q -90 -192 -90 -192 q -92 -192 -90 -192 q -92 -192 -92 -192 q -94 -192 -93 -192 q -95 -193 -94 -193 q -96 -193 -96 -193 q -97 -192 -96 -193 q -99 -192 -97 -192 q -101 -191 -100 -192 q -103 -190 -103 -190 q -103 -190 -103 -190 q -105 -187 -104 -189 q -106 -185 -106 -186 q -107 -185 -107 -185 q -107 -184 -107 -185 q -108 -183 -107 -183 q -108 -181 -108 -182 q -108 -181 -108 -181 q -108 -180 -108 -181 q -108 -179 -108 -179 q -108 -178 -108 -179 q -108 -178 -108 -178 q -108 -176 -108 -176 q -107 -174 -107 -175 q -107 -174 -107 -174 q -106 -172 -107 -172 q -106 -171 -106 -171 q -99 -164 -103 -168 q -94 -158 -96 -161 q -93 -157 -93 -157 q -92 -156 -93 -157 q -49 -101 -75 -135 q -44 -94 -46 -97 q 0 -39 -21 -64 q 3 -35 1 -36 q 29 -3 21 -11 q 42 11 36 6 q 58 31 61 28 q 21 31 54 33 q -57 31 -37 26 q 46 51 -42 40 q 83 60 71 54 q 114 89 96 67 q 263 250 181 163 q 411 396 346 338 q 464 436 442 424 q 485 444 475 443 q 488 446 486 446 m 468 407 q 453 397 465 406 q 428 376 442 389 q 281 229 364 318 q 219 168 250 197 q 133 78 174 121 q 126 65 124 67 q 140 64 129 63 q 147 64 143 64 q 235 72 192 68 q 242 72 239 72 q 272 76 261 74 q 290 89 282 79 q 307 119 297 99 q 324 147 315 135 q 340 175 332 160 q 399 275 372 229 q 439 346 421 313 q 446 356 442 351 q 459 380 453 368 q 468 399 465 392 q 468 407 471 407 m 439 493 q 442 513 438 500 q 454 536 446 525 q 471 553 463 547 q 488 549 479 558 q 527 528 507 529 q 563 535 547 528 q 588 546 576 542 q 600 549 599 550 q 597 542 601 547 q 586 530 593 536 q 574 518 579 524 q 524 506 549 503 q 482 526 499 508 q 478 531 481 529 q 475 532 476 532 q 465 524 472 532 q 451 506 458 515 q 444 493 444 496 q 442 489 444 489 q 439 493 440 489 z "},"":{"ha":415,"x_min":-108,"x_max":564,"o":"m 488 446 q 497 444 493 446 q 507 435 504 442 q 507 433 507 435 q 508 431 507 432 q 508 427 508 429 q 508 425 508 425 q 508 424 508 425 q 507 424 508 424 q 507 424 507 424 q 507 422 507 422 q 507 422 507 422 q 507 421 507 421 q 504 417 506 419 q 494 400 500 411 q 463 342 483 379 q 438 299 451 322 q 360 161 403 236 q 332 111 346 136 q 322 96 328 101 q 316 81 314 85 q 340 79 318 76 q 414 79 399 82 q 340 63 383 69 q 311 56 321 60 q 296 46 301 53 q 283 25 290 39 q 275 8 281 18 q 253 -32 264 -12 q 224 -87 239 -60 q 186 -159 203 -129 q 163 -193 169 -189 q 167 -166 158 -193 q 192 -98 175 -139 q 231 -19 208 -57 q 253 19 240 -1 q 261 36 258 29 q 267 51 271 49 q 239 49 264 53 q 236 49 238 49 q 171 42 203 44 q 164 42 167 42 q 116 35 133 39 q 84 19 99 32 q 47 -21 69 7 q 38 -31 46 -22 q 19 -54 31 -40 q 6 -72 14 -62 q -1 -81 3 -76 q 1 -79 0 -81 q 4 -78 3 -79 q -3 -96 1 -89 q -17 -110 -8 -103 q -37 -135 -25 -118 q -67 -165 -56 -150 q -69 -169 -68 -167 q -71 -169 -69 -169 q -71 -171 -71 -171 q -72 -171 -71 -171 q -83 -186 -79 -182 q -86 -189 -85 -187 q -87 -189 -86 -189 q -87 -190 -87 -189 q -87 -190 -87 -190 q -90 -192 -89 -190 q -90 -192 -90 -192 q -92 -192 -90 -192 q -92 -192 -92 -192 q -94 -192 -93 -192 q -95 -193 -94 -193 q -96 -193 -96 -193 q -97 -192 -96 -193 q -99 -192 -97 -192 q -101 -191 -100 -192 q -103 -190 -103 -190 q -103 -190 -103 -190 q -105 -187 -104 -189 q -106 -185 -106 -186 q -107 -185 -107 -185 q -107 -184 -107 -185 q -108 -183 -107 -183 q -108 -181 -108 -182 q -108 -181 -108 -181 q -108 -180 -108 -181 q -108 -179 -108 -179 q -108 -178 -108 -179 q -108 -178 -108 -178 q -108 -176 -108 -176 q -107 -174 -107 -175 q -107 -174 -107 -174 q -106 -172 -107 -172 q -106 -171 -106 -171 q -99 -164 -103 -168 q -94 -158 -96 -161 q -93 -157 -93 -157 q -92 -156 -93 -157 q -49 -101 -75 -135 q -44 -94 -46 -97 q 0 -39 -21 -64 q 3 -35 1 -36 q 29 -3 21 -11 q 42 11 36 6 q 58 31 61 28 q 21 31 54 33 q -57 31 -37 26 q 46 51 -42 40 q 83 60 71 54 q 114 89 96 67 q 263 250 181 163 q 411 396 346 338 q 464 436 442 424 q 485 444 475 443 q 488 446 486 446 m 468 407 q 453 397 465 406 q 428 376 442 389 q 281 229 364 318 q 219 168 250 197 q 133 78 174 121 q 126 65 124 67 q 140 64 129 63 q 147 64 143 64 q 235 72 192 68 q 242 72 239 72 q 272 76 261 74 q 290 89 282 79 q 307 119 297 99 q 324 147 315 135 q 340 175 332 160 q 399 275 372 229 q 439 346 421 313 q 446 356 442 351 q 459 380 453 368 q 468 399 465 392 q 468 407 471 407 z "},"":{"ha":415,"x_min":-108,"x_max":532,"o":"m 488 446 q 497 444 493 446 q 507 435 504 442 q 507 433 507 435 q 508 431 507 432 q 508 427 508 429 q 508 425 508 425 q 508 424 508 425 q 507 424 508 424 q 507 424 507 424 q 507 422 507 422 q 507 422 507 422 q 507 421 507 421 q 504 417 506 419 q 494 400 500 411 q 463 342 483 379 q 438 299 451 322 q 360 161 403 236 q 332 111 346 136 q 322 96 328 101 q 316 81 314 85 q 340 79 318 76 q 414 79 399 82 q 340 63 383 69 q 311 56 321 60 q 296 46 301 53 q 283 25 290 39 q 275 8 281 18 q 253 -32 264 -12 q 224 -87 239 -60 q 186 -159 203 -129 q 163 -193 169 -189 q 167 -166 158 -193 q 192 -98 175 -139 q 231 -19 208 -57 q 253 19 240 -1 q 261 36 258 29 q 267 51 271 49 q 239 49 264 53 q 236 49 238 49 q 171 42 203 44 q 164 42 167 42 q 116 35 133 39 q 84 19 99 32 q 47 -21 69 7 q 38 -31 46 -22 q 19 -54 31 -40 q 6 -72 14 -62 q -1 -81 3 -76 q 1 -79 0 -81 q 4 -78 3 -79 q -3 -96 1 -89 q -17 -110 -8 -103 q -37 -135 -25 -118 q -67 -165 -56 -150 q -69 -169 -68 -167 q -71 -169 -69 -169 q -71 -171 -71 -171 q -72 -171 -71 -171 q -83 -186 -79 -182 q -86 -189 -85 -187 q -87 -189 -86 -189 q -87 -190 -87 -189 q -87 -190 -87 -190 q -90 -192 -89 -190 q -90 -192 -90 -192 q -92 -192 -90 -192 q -92 -192 -92 -192 q -94 -192 -93 -192 q -95 -193 -94 -193 q -96 -193 -96 -193 q -97 -192 -96 -193 q -99 -192 -97 -192 q -101 -191 -100 -192 q -103 -190 -103 -190 q -103 -190 -103 -190 q -105 -187 -104 -189 q -106 -185 -106 -186 q -107 -185 -107 -185 q -107 -184 -107 -185 q -108 -183 -107 -183 q -108 -181 -108 -182 q -108 -181 -108 -181 q -108 -180 -108 -181 q -108 -179 -108 -179 q -108 -178 -108 -179 q -108 -178 -108 -178 q -108 -176 -108 -176 q -107 -174 -107 -175 q -107 -174 -107 -174 q -106 -172 -107 -172 q -106 -171 -106 -171 q -99 -164 -103 -168 q -94 -158 -96 -161 q -93 -157 -93 -157 q -92 -156 -93 -157 q -49 -101 -75 -135 q -44 -94 -46 -97 q 0 -39 -21 -64 q 3 -35 1 -36 q 29 -3 21 -11 q 42 11 36 6 q 58 31 61 28 q 21 31 54 33 q -57 31 -37 26 q 46 51 -42 40 q 83 60 71 54 q 114 89 96 67 q 263 250 181 163 q 411 396 346 338 q 464 436 442 424 q 485 444 475 443 q 488 446 486 446 m 468 407 q 453 397 465 406 q 428 376 442 389 q 281 229 364 318 q 219 168 250 197 q 133 78 174 121 q 126 65 124 67 q 140 64 129 63 q 147 64 143 64 q 235 72 192 68 q 242 72 239 72 q 272 76 261 74 q 290 89 282 79 q 307 119 297 99 q 324 147 315 135 q 340 175 332 160 q 399 275 372 229 q 439 346 421 313 q 446 356 442 351 q 459 380 453 368 q 468 399 465 392 q 468 407 471 407 m 503 426 q 480 440 489 428 q 472 468 471 451 q 478 485 474 476 q 488 497 482 493 q 501 501 493 501 q 514 497 508 501 q 523 486 519 493 q 526 474 526 479 q 527 469 526 472 q 529 465 528 467 q 530 451 532 460 q 522 436 528 443 q 510 428 517 429 q 503 426 506 426 m 501 444 q 506 447 503 444 q 511 451 508 449 q 515 454 514 454 q 517 463 518 457 q 514 474 517 468 q 507 481 511 479 q 499 480 504 483 q 490 472 493 476 q 489 463 486 467 q 491 456 489 460 q 496 448 493 451 q 501 444 499 444 z "},"":{"ha":594,"x_min":-117,"x_max":854,"o":"m 482 444 q 489 443 485 444 q 499 433 496 440 q 499 432 499 433 q 499 429 499 431 q 500 426 500 428 q 500 424 500 424 q 500 423 500 424 q 499 422 500 422 q 499 422 499 422 q 499 421 499 421 q 499 421 499 421 q 499 419 499 419 q 496 415 497 418 q 486 399 492 410 q 478 383 483 393 q 472 375 475 379 q 503 388 485 381 q 675 442 615 435 q 703 440 694 443 q 715 426 711 438 q 715 395 724 410 q 679 360 707 381 q 666 349 671 354 q 660 343 661 344 q 655 340 657 338 q 653 353 653 343 q 660 369 653 360 q 678 388 668 378 q 683 393 681 390 q 689 405 692 400 q 679 411 686 410 q 667 411 672 413 q 663 411 665 411 q 629 403 644 407 q 578 386 607 397 q 525 365 549 375 q 511 360 517 363 q 506 357 508 358 q 486 347 494 351 q 479 337 478 342 q 496 328 481 332 q 524 321 510 324 q 565 310 553 317 q 575 299 572 304 q 576 285 578 294 q 526 231 563 253 q 490 203 510 219 l 410 144 q 326 78 361 111 q 332 78 329 78 q 406 78 390 81 q 332 61 375 68 q 306 56 314 58 q 269 13 285 33 q 269 11 269 13 q 267 7 268 10 q 244 -33 256 -14 q 232 -58 239 -46 q 229 -96 225 -81 q 278 -139 236 -121 q 390 -154 321 -157 q 439 -149 413 -153 q 507 -140 465 -146 q 657 -118 560 -132 q 763 -103 708 -111 q 828 -92 803 -96 q 849 -92 854 -89 q 766 -113 828 -99 q 640 -142 704 -128 q 299 -175 401 -190 q 210 -119 226 -165 q 207 -107 207 -112 q 175 -167 189 -143 q 154 -194 161 -192 q 157 -171 150 -194 q 178 -110 164 -147 q 213 -37 193 -74 q 226 -7 218 -25 q 258 43 239 18 q 256 49 263 49 q 231 47 250 50 q 228 47 229 47 q 163 40 194 43 q 156 40 158 40 q 108 34 125 38 q 76 18 90 31 q 39 -22 61 6 q 30 -33 38 -24 q 11 -56 22 -42 q -3 -74 6 -64 q -10 -82 -6 -78 q -7 -81 -8 -82 q -4 -79 -6 -81 q -12 -97 -7 -90 q -25 -111 -17 -104 q -46 -136 -33 -119 q -75 -167 -64 -151 q -78 -171 -76 -168 q -79 -171 -78 -171 q -79 -172 -79 -171 q -81 -172 -79 -172 q -92 -187 -87 -183 q -94 -190 -93 -189 q -95 -190 -94 -190 q -96 -192 -96 -190 q -96 -192 -96 -192 q -99 -193 -97 -192 q -99 -193 -99 -193 q -100 -193 -99 -193 q -101 -193 -100 -193 q -102 -194 -101 -193 q -103 -194 -103 -194 q -104 -194 -104 -194 q -105 -194 -104 -194 q -107 -193 -106 -193 q -110 -192 -108 -193 q -111 -192 -111 -192 q -112 -191 -111 -192 q -113 -189 -112 -190 q -115 -187 -114 -187 q -115 -186 -115 -186 q -115 -185 -115 -186 q -116 -184 -115 -185 q -117 -183 -117 -183 q -117 -182 -117 -182 q -117 -181 -117 -182 q -117 -181 -117 -181 q -117 -180 -117 -181 q -117 -179 -117 -179 q -116 -177 -117 -178 q -115 -175 -115 -176 q -115 -175 -115 -175 q -115 -173 -115 -174 q -114 -172 -114 -172 q -107 -165 -111 -169 q -103 -160 -104 -162 q -101 -158 -101 -158 q -100 -157 -101 -158 q -57 -103 -83 -136 q -53 -97 -56 -100 q -8 -40 -29 -67 q -6 -36 -7 -37 q 21 -4 13 -12 q 33 10 28 4 q 49 29 53 26 q 13 29 46 32 q -65 29 -46 25 q 38 50 -50 39 q 75 59 63 53 q 106 88 88 65 q 254 249 172 161 q 403 394 338 336 q 456 435 433 422 q 476 443 467 442 q 479 444 478 444 l 479 444 q 482 444 481 444 m 460 406 q 460 406 460 406 q 445 396 457 404 q 419 375 433 388 q 272 228 356 317 q 211 167 242 196 q 125 76 165 119 q 118 63 115 65 q 132 63 121 61 q 139 63 135 63 q 226 71 183 67 q 233 71 231 71 q 263 75 253 72 q 281 88 274 78 q 299 118 289 97 q 315 146 307 133 q 332 174 324 158 q 390 274 364 228 q 431 344 413 311 q 438 354 433 350 q 449 378 443 367 q 459 397 456 389 q 460 406 463 404 m 439 313 q 425 289 432 301 q 351 160 392 229 q 326 113 339 136 q 342 126 333 119 q 343 128 343 128 q 372 151 361 143 q 399 171 383 160 q 449 206 415 182 q 451 207 450 206 q 519 256 493 236 q 546 282 544 276 q 527 294 547 288 q 476 304 507 301 q 453 309 464 307 q 439 313 442 311 q 439 313 439 313 q 439 313 439 313 z "},"":{"ha":447,"x_min":-54,"x_max":642,"o":"m 414 465 q 493 421 469 465 q 478 243 526 356 q 419 159 451 182 q 374 168 386 136 q 404 276 363 199 q 413 295 408 283 q 421 317 418 307 q 431 342 426 336 q 443 344 436 347 q 450 342 447 342 q 457 344 453 342 q 468 348 464 349 q 476 340 472 347 l 482 333 l 483 340 q 484 367 485 350 q 479 394 483 383 q 419 433 467 432 q 398 434 407 435 q 376 429 389 433 q 104 199 219 375 q 33 26 44 100 q 33 -11 31 8 q 39 -43 35 -31 q 174 -140 72 -117 q 349 -132 260 -151 q 394 -125 372 -129 q 557 -86 497 -103 q 632 -69 611 -72 l 642 -68 l 635 -72 q 604 -83 626 -75 q 535 -106 582 -90 q 442 -133 472 -125 q 378 -150 411 -142 q 349 -158 363 -154 q 331 -162 336 -161 q 288 -170 308 -168 q 235 -174 267 -172 q 169 -171 185 -175 q 72 -125 115 -160 q 75 199 -54 -26 q 289 422 160 343 q 414 465 361 465 m 456 317 q 447 301 449 307 q 447 294 444 294 q 451 298 449 293 q 456 317 454 303 m 472 293 q 463 279 471 293 q 442 253 450 260 q 426 247 435 246 q 419 247 421 249 q 414 239 417 246 q 401 214 407 228 q 394 190 396 200 q 393 184 393 186 q 394 181 393 182 q 396 181 394 181 q 400 182 397 181 q 406 186 403 183 q 464 268 438 208 q 472 293 474 293 z "},"":{"ha":188,"x_min":-42,"x_max":607,"o":"m 51 -174 q -37 -118 -21 -164 q -41 -108 -40 -112 q -42 -97 -42 -103 q -42 -79 -42 -90 q -36 -44 -40 -58 q -21 -6 -32 -29 q 94 128 13 61 q 96 129 96 129 q 125 152 114 143 q 152 172 136 161 q 201 207 168 183 q 204 208 203 207 q 272 258 246 238 q 299 283 297 278 q 279 296 299 289 q 229 306 260 303 q 206 310 217 307 q 192 314 194 313 q 182 326 185 318 q 182 340 179 333 q 201 363 186 353 q 256 389 215 372 q 428 443 368 436 q 456 442 447 444 q 468 428 464 439 q 468 397 476 411 q 431 361 460 382 q 419 351 424 356 q 413 344 414 346 q 408 342 410 339 q 406 354 406 344 q 413 370 406 361 q 431 389 421 379 q 436 394 433 392 q 442 406 444 401 q 432 413 439 411 q 419 413 425 414 q 415 411 417 413 q 382 404 397 408 q 331 388 360 399 q 278 367 301 376 q 264 361 269 364 q 258 358 261 360 q 239 348 247 353 q 232 338 231 343 q 249 329 233 333 q 276 322 263 325 q 318 311 306 318 q 328 301 325 306 q 329 286 331 296 q 279 232 315 254 q 243 204 263 221 l 163 146 q -1 -24 38 56 q -18 -94 -25 -69 q 31 -137 -11 -119 q 143 -153 74 -156 q 192 -148 165 -151 q 260 -139 218 -144 q 410 -117 313 -131 q 515 -101 461 -110 q 581 -91 556 -94 q 601 -90 607 -87 q 519 -112 581 -97 q 393 -140 457 -126 q 51 -174 154 -189 m 381 508 q 373 513 378 510 q 363 518 368 515 q 354 524 358 521 q 347 526 350 526 q 344 529 346 528 q 339 533 342 531 q 334 547 331 540 q 349 553 338 554 q 365 544 354 551 q 386 529 376 538 q 397 518 393 524 q 399 510 400 513 q 392 507 397 507 q 381 508 388 507 z "},"":{"ha":344,"x_min":-42,"x_max":607,"o":"m 51 -174 q -37 -118 -21 -164 q -41 -108 -40 -112 q -42 -97 -42 -103 q -42 -79 -42 -90 q -36 -44 -40 -58 q -21 -6 -32 -29 q 94 128 13 61 q 96 129 96 129 q 125 152 114 143 q 152 172 136 161 q 201 207 168 183 q 204 208 203 207 q 272 258 246 238 q 299 283 297 278 q 279 296 299 289 q 229 306 260 303 q 206 310 217 307 q 192 314 194 313 q 182 326 185 318 q 182 340 179 333 q 201 363 186 353 q 256 389 215 372 q 428 443 368 436 q 456 442 447 444 q 468 428 464 439 q 468 397 476 411 q 431 361 460 382 q 419 351 424 356 q 413 344 414 346 q 408 342 410 339 q 406 354 406 344 q 413 370 406 361 q 431 389 421 379 q 436 394 433 392 q 442 406 444 401 q 432 413 439 411 q 419 413 425 414 q 415 411 417 413 q 382 404 397 408 q 331 388 360 399 q 278 367 301 376 q 264 361 269 364 q 258 358 261 360 q 239 348 247 353 q 232 338 231 343 q 249 329 233 333 q 276 322 263 325 q 318 311 306 318 q 328 301 325 306 q 329 286 331 296 q 279 232 315 254 q 243 204 263 221 l 163 146 q -1 -24 38 56 q -18 -94 -25 -69 q 31 -137 -11 -119 q 143 -153 74 -156 q 192 -148 165 -151 q 260 -139 218 -144 q 410 -117 313 -131 q 515 -101 461 -110 q 581 -91 556 -94 q 601 -90 607 -87 q 519 -112 581 -97 q 393 -140 457 -126 q 51 -174 154 -189 z "},"":{"ha":344,"x_min":-42,"x_max":607,"o":"m 51 -174 q -37 -118 -21 -164 q -41 -108 -40 -112 q -42 -97 -42 -103 q -42 -79 -42 -90 q -36 -44 -40 -58 q -21 -6 -32 -29 q 94 128 13 61 q 96 129 96 129 q 125 152 114 143 q 152 172 136 161 q 201 207 168 183 q 204 208 203 207 q 272 258 246 238 q 299 283 297 278 q 279 296 299 289 q 229 306 260 303 q 206 310 217 307 q 192 314 194 313 q 182 326 185 318 q 182 340 179 333 q 201 363 186 353 q 256 389 215 372 q 428 443 368 436 q 456 442 447 444 q 468 428 464 439 q 468 397 476 411 q 431 361 460 382 q 419 351 424 356 q 413 344 414 346 q 408 342 410 339 q 406 354 406 344 q 413 370 406 361 q 431 389 421 379 q 436 394 433 392 q 442 406 444 401 q 432 413 439 411 q 419 413 425 414 q 415 411 417 413 q 382 404 397 408 q 331 388 360 399 q 278 367 301 376 q 264 361 269 364 q 258 358 261 360 q 239 348 247 353 q 232 338 231 343 q 249 329 233 333 q 276 322 263 325 q 318 311 306 318 q 328 301 325 306 q 329 286 331 296 q 279 232 315 254 q 243 204 263 221 l 163 146 q -1 -24 38 56 q -18 -94 -25 -69 q 31 -137 -11 -119 q 143 -153 74 -156 q 192 -148 165 -151 q 260 -139 218 -144 q 410 -117 313 -131 q 515 -101 461 -110 q 581 -91 556 -94 q 601 -90 607 -87 q 519 -112 581 -97 q 393 -140 457 -126 q 51 -174 154 -189 m 342 496 q 336 513 322 496 q 353 524 344 519 q 361 529 357 526 q 373 535 367 532 q 382 539 379 539 q 391 543 386 542 q 399 543 396 544 q 408 538 404 542 q 418 529 413 532 q 421 528 419 529 q 433 522 426 525 q 443 515 439 518 q 451 509 449 511 q 453 506 453 507 q 450 501 453 504 q 450 500 450 500 q 414 508 442 489 q 399 524 403 518 q 394 527 396 526 q 390 526 393 528 q 382 519 388 525 q 360 504 371 511 q 344 496 350 497 q 342 496 343 496 z "},"":{"ha":344,"x_min":-42,"x_max":607,"o":"m 51 -174 q -37 -118 -21 -164 q -41 -108 -40 -112 q -42 -97 -42 -103 q -42 -79 -42 -90 q -36 -44 -40 -58 q -21 -6 -32 -29 q 94 128 13 61 q 96 129 96 129 q 125 152 114 143 q 152 172 136 161 q 201 207 168 183 q 204 208 203 207 q 272 258 246 238 q 299 283 297 278 q 279 296 299 289 q 229 306 260 303 q 206 310 217 307 q 192 314 194 313 q 182 326 185 318 q 182 340 179 333 q 201 363 186 353 q 256 389 215 372 q 428 443 368 436 q 456 442 447 444 q 468 428 464 439 q 468 397 476 411 q 431 361 460 382 q 419 351 424 356 q 413 344 414 346 q 408 342 410 339 q 406 354 406 344 q 413 370 406 361 q 431 389 421 379 q 436 394 433 392 q 442 406 444 401 q 432 413 439 411 q 419 413 425 414 q 415 411 417 413 q 382 404 397 408 q 331 388 360 399 q 278 367 301 376 q 264 361 269 364 q 258 358 261 360 q 239 348 247 353 q 232 338 231 343 q 249 329 233 333 q 276 322 263 325 q 318 311 306 318 q 328 301 325 306 q 329 286 331 296 q 279 232 315 254 q 243 204 263 221 l 163 146 q -1 -24 38 56 q -18 -94 -25 -69 q 31 -137 -11 -119 q 143 -153 74 -156 q 192 -148 165 -151 q 260 -139 218 -144 q 410 -117 313 -131 q 515 -101 461 -110 q 581 -91 556 -94 q 601 -90 607 -87 q 519 -112 581 -97 q 393 -140 457 -126 q 51 -174 154 -189 z "},"":{"ha":218,"x_min":0,"x_max":322,"o":"m 0 -203 q 6 -160 0 -193 q 18 -89 11 -126 q 29 -32 25 -51 q 171 274 64 108 q 195 313 186 299 q 210 335 204 326 q 222 354 215 344 q 233 372 232 369 q 228 367 233 374 q 205 342 218 357 q 178 312 192 326 q 160 289 165 297 q 122 222 125 244 q 115 219 121 207 q 179 344 99 249 q 244 420 214 386 q 278 458 274 454 q 299 464 289 468 q 304 444 310 457 q 285 408 303 438 q 219 308 267 379 q 112 124 150 201 q 53 -35 74 46 q 44 -65 49 -46 q 33 -100 39 -83 q 25 -131 29 -117 q 19 -149 21 -144 q 15 -167 18 -156 q 8 -190 11 -179 q 1 -204 4 -200 q 1 -207 1 -207 q 0 -203 0 -207 z "},"":{"ha":218,"x_min":0,"x_max":317,"o":"m 0 -203 q 6 -160 0 -193 q 18 -89 11 -126 q 29 -32 25 -51 q 171 274 64 108 q 195 313 186 299 q 210 335 204 326 q 222 354 215 344 q 233 372 232 369 q 228 367 233 374 q 205 342 218 357 q 178 312 192 326 q 160 289 165 297 q 122 222 125 244 q 115 219 121 207 q 179 344 99 249 q 244 420 214 386 q 278 458 274 454 q 299 464 289 468 q 304 444 310 457 q 285 408 303 438 q 219 308 267 379 q 112 124 150 201 q 53 -35 74 46 q 44 -65 49 -46 q 33 -100 39 -83 q 25 -131 29 -117 q 19 -149 21 -144 q 15 -167 18 -156 q 8 -190 11 -179 q 1 -204 4 -200 q 1 -207 1 -207 q 0 -203 0 -207 z "},"":{"ha":218,"x_min":0,"x_max":369,"o":"m 0 -203 q 6 -160 0 -193 q 18 -89 11 -126 q 29 -32 25 -51 q 171 274 64 108 q 195 313 186 299 q 210 335 204 326 q 222 354 215 344 q 233 372 232 369 q 228 367 233 374 q 205 342 218 357 q 178 312 192 326 q 160 289 165 297 q 122 222 125 244 q 115 219 121 207 q 179 344 99 249 q 244 420 214 386 q 278 458 274 454 q 299 464 289 468 q 304 444 310 457 q 285 408 303 438 q 219 308 267 379 q 112 124 150 201 q 53 -35 74 46 q 44 -65 49 -46 q 33 -100 39 -83 q 25 -131 29 -117 q 19 -149 21 -144 q 15 -167 18 -156 q 8 -190 11 -179 q 1 -204 4 -200 q 1 -207 1 -207 q 0 -203 0 -207 m 258 501 q 253 518 239 501 q 269 529 261 525 q 278 535 274 532 q 290 541 283 538 q 299 544 296 544 q 308 549 303 547 q 315 549 313 550 q 325 543 321 547 q 335 535 329 538 q 338 533 336 535 q 349 527 343 531 q 360 521 356 524 q 367 515 365 517 q 369 511 369 513 q 367 507 369 510 q 367 506 367 506 q 331 514 358 494 q 315 529 319 524 q 311 533 313 532 q 307 532 310 533 q 299 525 304 531 q 277 510 288 517 q 261 501 267 503 q 258 501 260 501 z "},"":{"ha":218,"x_min":0,"x_max":351,"o":"m 0 -203 q 6 -160 0 -193 q 18 -89 11 -126 q 29 -32 25 -51 q 171 274 64 108 q 195 313 186 299 q 210 335 204 326 q 222 354 215 344 q 233 372 232 369 q 228 367 233 374 q 205 342 218 357 q 178 312 192 326 q 160 289 165 297 q 122 222 125 244 q 115 219 121 207 q 179 344 99 249 q 244 420 214 386 q 278 458 274 454 q 299 464 289 468 q 304 444 310 457 q 285 408 303 438 q 219 308 267 379 q 112 124 150 201 q 53 -35 74 46 q 44 -65 49 -46 q 33 -100 39 -83 q 25 -131 29 -117 q 19 -149 21 -144 q 15 -167 18 -156 q 8 -190 11 -179 q 1 -204 4 -200 q 1 -207 1 -207 q 0 -203 0 -207 z "},"":{"ha":504,"x_min":-7,"x_max":524,"o":"m 454 454 q 463 454 458 454 q 514 399 500 447 q 504 294 524 354 q 449 164 485 233 q 393 64 422 113 q 358 13 374 33 q 321 -46 339 -12 q 300 -74 310 -61 q 186 -178 231 -164 q 144 -175 163 -186 q 126 -142 128 -162 q 146 -99 126 -117 q 188 -67 163 -81 q 263 -28 228 -43 q 281 -18 272 -22 q 347 40 321 -1 q 426 176 389 104 q 479 301 461 243 q 493 390 499 360 q 465 432 483 429 q 437 430 454 433 q 400 414 419 426 q 235 236 325 360 q 214 201 224 221 q 199 161 204 181 q 146 26 172 92 q 69 -144 104 -79 q 42 -190 54 -175 q 42 -190 42 -190 q 35 -197 39 -194 q 26 -203 32 -200 q 19 -203 24 -203 q 13 -200 15 -203 q 4 -192 7 -196 q 8 -117 -7 -162 q 51 -10 22 -69 q 169 185 99 85 q 203 251 192 214 q 206 261 204 257 q 261 431 242 360 q 235 422 250 431 q 208 406 221 414 q 198 399 203 401 q 192 396 193 396 q 192 398 192 396 q 195 403 193 400 q 201 412 197 407 q 214 424 206 417 q 257 451 238 447 q 268 451 263 451 q 278 447 274 451 q 285 436 283 442 q 285 425 286 431 q 250 313 272 378 q 244 287 242 288 q 258 303 246 286 q 263 307 261 306 q 386 428 328 388 q 454 454 422 454 m 146 101 q 144 101 144 101 q 139 97 143 101 q 129 83 135 93 q 115 61 122 72 q 68 -22 88 17 q 26 -125 39 -81 q 24 -142 25 -133 q 26 -154 24 -150 q 34 -154 29 -158 q 47 -132 39 -150 q 122 36 79 -69 q 136 74 129 54 q 146 101 147 103 m 282 -49 q 282 -49 282 -49 q 274 -47 279 -47 q 261 -49 268 -46 q 199 -82 229 -64 q 160 -112 174 -97 q 151 -129 153 -121 q 149 -142 149 -137 q 151 -149 149 -147 q 157 -153 154 -151 q 158 -153 157 -153 q 165 -155 161 -154 q 178 -153 169 -156 q 216 -129 193 -149 q 274 -65 239 -110 q 282 -52 279 -56 q 282 -49 285 -49 m 283 242 q 318 241 299 242 q 347 238 338 240 l 358 236 l 349 233 q 302 224 335 229 q 238 215 269 218 q 147 213 199 211 q 69 219 96 214 q 38 232 40 225 q 37 236 36 235 q 42 238 38 238 q 60 239 47 239 q 96 238 74 239 q 213 239 151 236 q 258 241 239 240 q 283 242 278 242 z "},"":{"ha":438,"x_min":-46,"x_max":507,"o":"m 497 481 q 497 481 497 481 q 503 479 501 481 q 504 475 504 478 q 506 456 507 465 q 499 429 504 443 q 472 354 490 399 q 381 147 436 264 q 328 40 365 114 q 250 -107 292 -33 q 182 -211 208 -181 q 219 -124 185 -193 q 292 19 253 -56 q 333 103 315 67 q 357 153 351 139 q 449 358 413 269 q 475 431 467 403 q 474 453 481 450 q 447 450 468 456 q 354 393 407 438 q 183 217 269 322 q 56 43 110 125 q 43 18 49 32 q 28 -11 35 1 q -8 -74 6 -50 q -19 -90 -15 -83 q -19 -90 -19 -90 q -22 -93 -21 -92 q -25 -96 -22 -94 q -25 -97 -25 -96 q -29 -99 -26 -99 q -37 -100 -32 -100 q -42 -98 -40 -100 q -44 -94 -44 -96 q -46 -92 -46 -93 q -46 -89 -46 -90 q -46 -89 -46 -89 q -40 -69 -44 -79 q -26 -43 -35 -58 q 18 32 -10 -11 q 26 43 22 38 q 35 53 31 49 q 43 69 39 61 q 97 181 72 124 q 144 343 143 286 q 132 372 144 368 q 111 376 121 376 q 85 372 101 375 q 82 371 82 371 q 138 395 110 393 q 171 350 165 397 q 144 235 171 303 q 128 188 126 194 q 165 229 131 182 q 340 411 251 336 q 497 481 428 489 m 292 494 q 294 514 290 501 q 307 538 299 526 q 324 554 315 549 q 340 550 332 560 q 380 530 360 531 q 415 536 400 529 q 440 547 429 543 q 453 550 451 551 q 450 543 454 549 q 439 531 446 538 q 426 519 432 525 q 376 507 401 504 q 335 528 351 510 q 331 532 333 531 q 328 533 329 533 q 318 525 325 533 q 304 507 311 517 q 297 494 297 497 q 295 490 297 490 q 292 494 293 490 z "},"":{"ha":486,"x_min":-50,"x_max":483,"o":"m 244 529 q 258 522 254 529 q 264 494 263 515 q 265 468 264 482 q 265 443 265 454 l 264 415 l 276 415 q 315 411 290 415 q 357 403 340 407 q 433 361 404 389 q 463 218 483 304 q 352 12 432 115 q 186 -139 272 -92 q 57 -164 113 -178 q 6 -135 26 -157 q -19 56 -50 -81 q 15 168 -8 106 q 67 285 38 231 q 69 292 68 289 q 78 313 75 303 q 76 328 82 322 q 69 347 69 336 q 74 368 68 358 q 117 396 83 385 q 141 412 132 401 q 158 436 150 422 q 213 509 194 489 q 244 529 232 529 m 244 499 q 204 451 238 499 q 194 438 199 443 q 183 416 179 421 q 222 415 188 411 l 257 417 l 257 431 q 254 447 256 436 q 251 469 253 458 q 248 489 250 481 q 246 499 246 497 q 244 499 244 499 m 251 388 q 243 388 249 388 q 228 386 238 388 q 201 385 215 386 q 176 381 186 383 q 175 381 175 381 q 156 375 164 379 q 142 358 149 371 q 142 357 142 357 q 130 333 132 343 q 146 315 128 322 q 226 288 169 307 q 270 273 247 281 q 310 258 293 265 q 331 249 328 251 q 332 248 332 247 q 328 249 332 249 q 315 249 325 249 q 211 266 265 253 q 124 296 157 279 q 106 297 111 301 q 97 283 100 293 q 90 268 94 276 q 18 88 43 176 q -1 -54 -7 0 q 22 -114 3 -94 q 67 -135 39 -131 q 125 -133 96 -140 q 350 46 238 -111 q 439 268 442 179 q 435 309 440 292 q 415 340 431 326 q 285 386 376 379 q 267 387 272 388 q 263 383 261 386 q 263 385 261 385 q 258 387 261 386 q 251 388 256 388 z "},"":{"ha":486,"x_min":-50,"x_max":483,"o":"m 244 529 q 258 522 254 529 q 264 494 263 515 q 265 468 264 482 q 265 443 265 454 l 264 415 l 276 415 q 315 411 290 415 q 357 403 340 407 q 433 361 404 389 q 463 218 483 304 q 352 12 432 115 q 186 -139 272 -92 q 57 -164 113 -178 q 6 -135 26 -157 q -19 56 -50 -81 q 15 168 -8 106 q 67 285 38 231 q 69 292 68 289 q 78 313 75 303 q 76 328 82 322 q 69 347 69 336 q 74 368 68 358 q 117 396 83 385 q 141 412 132 401 q 158 436 150 422 q 213 509 194 489 q 244 529 232 529 m 244 499 q 204 451 238 499 q 194 438 199 443 q 183 416 179 421 q 222 415 188 411 l 257 417 l 257 431 q 254 447 256 436 q 251 469 253 458 q 248 489 250 481 q 246 499 246 497 q 244 499 244 499 m 251 388 q 243 388 249 388 q 228 386 238 388 q 201 385 215 386 q 176 381 186 383 q 175 381 175 381 q 156 375 164 379 q 142 358 149 371 q 142 357 142 357 q 130 333 132 343 q 146 315 128 322 q 226 288 169 307 q 270 273 247 281 q 310 258 293 265 q 331 249 328 251 q 332 248 332 247 q 328 249 332 249 q 315 249 325 249 q 211 266 265 253 q 124 296 157 279 q 106 297 111 301 q 97 283 100 293 q 90 268 94 276 q 18 88 43 176 q -1 -54 -7 0 q 22 -114 3 -94 q 67 -135 39 -131 q 125 -133 96 -140 q 350 46 238 -111 q 439 268 442 179 q 435 309 440 292 q 415 340 431 326 q 285 386 376 379 q 267 387 272 388 q 263 383 261 386 q 263 385 261 385 q 258 387 261 386 q 251 388 256 388 z "},"":{"ha":486,"x_min":-50,"x_max":483,"o":"m 244 529 q 258 522 254 529 q 264 494 263 515 q 265 468 264 482 q 265 443 265 454 l 264 415 l 276 415 q 315 411 290 415 q 357 403 340 407 q 433 361 404 389 q 463 218 483 304 q 352 12 432 115 q 186 -139 272 -92 q 57 -164 113 -178 q 6 -135 26 -157 q -19 56 -50 -81 q 15 168 -8 106 q 67 285 38 231 q 69 292 68 289 q 78 313 75 303 q 76 328 82 322 q 69 347 69 336 q 74 368 68 358 q 117 396 83 385 q 141 412 132 401 q 158 436 150 422 q 213 509 194 489 q 244 529 232 529 m 244 499 q 204 451 238 499 q 194 438 199 443 q 183 416 179 421 q 222 415 188 411 l 257 417 l 257 431 q 254 447 256 436 q 251 469 253 458 q 248 489 250 481 q 246 499 246 497 q 244 499 244 499 m 251 388 q 243 388 249 388 q 228 386 238 388 q 201 385 215 386 q 176 381 186 383 q 175 381 175 381 q 156 375 164 379 q 142 358 149 371 q 142 357 142 357 q 130 333 132 343 q 146 315 128 322 q 226 288 169 307 q 270 273 247 281 q 310 258 293 265 q 331 249 328 251 q 332 248 332 247 q 328 249 332 249 q 315 249 325 249 q 211 266 265 253 q 124 296 157 279 q 106 297 111 301 q 97 283 100 293 q 90 268 94 276 q 18 88 43 176 q -1 -54 -7 0 q 22 -114 3 -94 q 67 -135 39 -131 q 125 -133 96 -140 q 350 46 238 -111 q 439 268 442 179 q 435 309 440 292 q 415 340 431 326 q 285 386 376 379 q 267 387 272 388 q 263 383 261 386 q 263 385 261 385 q 258 387 261 386 q 251 388 256 388 m 307 511 q 301 528 288 511 q 318 539 310 535 q 326 544 322 542 q 338 551 332 547 q 347 554 344 554 q 356 558 351 557 q 364 558 361 560 q 374 553 369 557 q 383 544 378 547 q 386 543 385 544 q 398 537 392 540 q 408 531 404 533 q 416 524 414 526 q 418 521 418 522 q 415 517 418 519 q 415 515 415 515 q 379 524 407 504 q 364 539 368 533 q 360 542 361 542 q 356 542 358 543 q 347 535 353 540 q 326 519 336 526 q 310 511 315 513 q 307 511 308 511 z "},"":{"ha":486,"x_min":-50,"x_max":483,"o":"m 244 529 q 258 522 254 529 q 264 494 263 515 q 265 468 264 482 q 265 443 265 454 l 264 415 l 276 415 q 315 411 290 415 q 357 403 340 407 q 433 361 404 389 q 463 218 483 304 q 352 12 432 115 q 186 -139 272 -92 q 57 -164 113 -178 q 6 -135 26 -157 q -19 56 -50 -81 q 15 168 -8 106 q 67 285 38 231 q 69 292 68 289 q 78 313 75 303 q 76 328 82 322 q 69 347 69 336 q 74 368 68 358 q 117 396 83 385 q 141 412 132 401 q 158 436 150 422 q 213 509 194 489 q 244 529 232 529 m 244 499 q 204 451 238 499 q 194 438 199 443 q 183 416 179 421 q 222 415 188 411 l 257 417 l 257 431 q 254 447 256 436 q 251 469 253 458 q 248 489 250 481 q 246 499 246 497 q 244 499 244 499 m 251 388 q 243 388 249 388 q 228 386 238 388 q 201 385 215 386 q 176 381 186 383 q 175 381 175 381 q 156 375 164 379 q 142 358 149 371 q 142 357 142 357 q 130 333 132 343 q 146 315 128 322 q 226 288 169 307 q 270 273 247 281 q 310 258 293 265 q 331 249 328 251 q 332 248 332 247 q 328 249 332 249 q 315 249 325 249 q 211 266 265 253 q 124 296 157 279 q 106 297 111 301 q 97 283 100 293 q 90 268 94 276 q 18 88 43 176 q -1 -54 -7 0 q 22 -114 3 -94 q 67 -135 39 -131 q 125 -133 96 -140 q 350 46 238 -111 q 439 268 442 179 q 435 309 440 292 q 415 340 431 326 q 285 386 376 379 q 267 387 272 388 q 263 383 261 386 q 263 385 261 385 q 258 387 261 386 q 251 388 256 388 m 289 493 q 292 513 288 500 q 304 536 296 525 q 321 553 313 547 q 338 549 329 558 q 377 528 357 529 q 413 535 397 528 q 438 546 426 542 q 450 549 449 550 q 447 542 451 547 q 436 530 443 536 q 424 518 429 524 q 374 506 399 503 q 332 526 349 508 q 328 531 331 529 q 325 532 326 532 q 315 524 322 532 q 301 506 308 515 q 294 493 294 496 q 292 489 294 489 q 289 493 290 489 z "},"":{"ha":486,"x_min":-50,"x_max":483,"o":"m 244 529 q 258 522 254 529 q 264 494 263 515 q 265 468 264 482 q 265 443 265 454 l 264 415 l 276 415 q 315 411 290 415 q 357 403 340 407 q 433 361 404 389 q 463 218 483 304 q 352 12 432 115 q 186 -139 272 -92 q 57 -164 113 -178 q 6 -135 26 -157 q -19 56 -50 -81 q 15 168 -8 106 q 67 285 38 231 q 69 292 68 289 q 78 313 75 303 q 76 328 82 322 q 69 347 69 336 q 74 368 68 358 q 117 396 83 385 q 141 412 132 401 q 158 436 150 422 q 213 509 194 489 q 244 529 232 529 m 244 499 q 204 451 238 499 q 194 438 199 443 q 183 416 179 421 q 222 415 188 411 l 257 417 l 257 431 q 254 447 256 436 q 251 469 253 458 q 248 489 250 481 q 246 499 246 497 q 244 499 244 499 m 251 388 q 243 388 249 388 q 228 386 238 388 q 201 385 215 386 q 176 381 186 383 q 175 381 175 381 q 156 375 164 379 q 142 358 149 371 q 142 357 142 357 q 130 333 132 343 q 146 315 128 322 q 226 288 169 307 q 270 273 247 281 q 310 258 293 265 q 331 249 328 251 q 332 248 332 247 q 328 249 332 249 q 315 249 325 249 q 211 266 265 253 q 124 296 157 279 q 106 297 111 301 q 97 283 100 293 q 90 268 94 276 q 18 88 43 176 q -1 -54 -7 0 q 22 -114 3 -94 q 67 -135 39 -131 q 125 -133 96 -140 q 350 46 238 -111 q 439 268 442 179 q 435 309 440 292 q 415 340 431 326 q 285 386 376 379 q 267 387 272 388 q 263 383 261 386 q 263 385 261 385 q 258 387 261 386 q 251 388 256 388 z "},"":{"ha":296,"x_min":53,"x_max":239,"o":"m 61 32 q 56 28 58 29 q 53 28 54 28 q 56 35 53 29 q 65 49 60 40 q 76 65 71 57 q 129 128 99 96 q 143 147 142 140 q 136 168 144 153 q 125 197 131 182 q 116 224 119 213 q 113 239 113 236 q 117 237 114 242 q 129 219 121 232 q 157 172 144 197 q 165 166 161 164 q 175 175 169 168 q 182 182 179 178 q 238 226 232 232 q 238 223 239 225 q 235 217 238 221 q 226 208 232 214 q 220 200 224 204 q 215 194 217 196 q 203 181 210 189 q 189 164 196 172 q 186 161 188 163 q 174 144 176 151 q 183 119 172 136 q 202 81 196 94 q 209 63 208 68 q 207 56 210 57 q 203 53 206 54 q 201 54 201 53 q 193 63 199 54 q 181 82 188 71 q 168 103 174 93 q 164 110 167 107 q 160 120 163 117 q 152 122 157 124 q 139 111 147 119 q 125 96 133 106 q 108 78 117 86 q 61 32 75 42 z "},"":{"ha":533,"x_min":-128,"x_max":633,"o":"m 249 535 q 264 527 260 535 q 269 497 268 519 q 271 472 271 486 q 271 446 271 457 l 271 421 l 282 421 q 321 417 296 421 q 363 407 346 413 q 439 365 410 393 q 457 342 449 354 q 618 463 522 393 q 628 470 624 468 q 633 472 632 472 q 633 470 633 471 q 633 469 633 469 q 626 463 632 469 q 610 449 619 457 q 467 319 554 396 q 468 221 482 274 q 358 14 438 118 q 192 -137 278 -90 q 61 -162 117 -176 q 8 -133 31 -156 q -7 -114 0 -125 q -61 -165 -44 -150 q -90 -187 -78 -181 q -106 -197 -101 -194 q -114 -199 -110 -199 l -114 -199 q -108 -179 -128 -197 q -18 -89 -86 -160 q -17 58 -37 -35 q 18 172 -6 110 q 69 289 42 233 q 74 296 71 292 q 82 316 79 307 q 79 329 85 325 q 72 351 74 339 q 76 371 71 363 q 121 401 88 389 q 145 417 136 407 q 161 440 154 426 q 217 514 197 493 q 249 535 236 535 m 249 500 q 210 453 243 500 q 200 440 204 446 q 190 419 186 424 q 226 419 193 415 l 261 421 l 260 433 q 258 450 260 439 q 255 472 257 461 q 251 492 253 483 q 249 500 250 500 q 249 500 249 500 l 249 500 m 256 389 q 249 389 253 389 q 233 389 242 389 q 205 386 219 388 q 182 383 190 385 q 179 382 181 383 q 161 377 168 381 q 147 360 154 374 q 147 360 147 360 q 135 336 138 346 q 151 319 133 326 q 231 293 174 311 q 276 278 253 286 q 315 263 299 269 q 336 253 332 256 q 339 251 339 251 q 334 250 339 250 q 319 251 329 250 q 216 267 271 254 q 126 297 161 281 q 111 299 115 303 q 103 286 107 296 q 96 271 101 279 q 24 91 49 179 q 6 -51 -1 3 q 7 -64 6 -58 q 10 -60 8 -61 q 14 -56 13 -58 q 217 140 125 58 q 433 324 322 238 q 418 343 428 333 q 289 389 379 382 q 272 389 276 389 q 268 386 268 389 q 265 386 268 382 q 263 388 265 388 q 256 389 260 389 l 256 389 m 442 297 q 346 215 396 258 q 104 -4 207 97 q 15 -93 50 -60 q 28 -110 21 -101 q 73 -131 44 -126 q 129 -129 101 -136 q 353 50 240 -106 q 443 271 446 183 q 442 297 443 286 z "},"":{"ha":414,"x_min":-94,"x_max":522,"o":"m 299 -187 q 290 -183 293 -185 q 283 -180 286 -182 q 274 -174 279 -178 q 247 -129 254 -157 q 244 -51 240 -101 q 307 179 250 43 q 315 197 314 193 q 312 199 315 201 q 303 190 308 196 q 293 176 299 183 q 200 63 243 113 q -11 -111 51 -112 q -35 -108 -25 -112 q -56 -94 -46 -104 q -89 4 -86 -65 q 7 361 -94 146 q 69 474 50 451 q 78 481 75 478 q 83 483 81 483 q 88 483 85 483 q 101 467 101 481 q 95 442 101 461 q 78 396 89 422 q 49 311 54 340 q 47 298 47 303 q 44 293 46 293 q 43 297 44 292 q 42 309 42 301 q 42 324 42 317 q 58 394 46 349 q 64 413 63 406 q 65 419 65 419 q 60 410 65 419 q 47 385 54 400 q -64 6 -69 153 q -36 -79 -60 -58 q -27 -84 -31 -83 q -14 -85 -24 -85 q 34 -66 6 -86 q 108 0 63 -46 q 165 61 139 32 q 232 140 190 90 q 426 413 344 278 q 448 445 439 432 q 460 460 457 458 q 473 457 467 463 q 476 444 479 451 q 467 427 476 442 q 444 392 458 413 q 336 181 376 278 q 328 164 332 172 q 322 151 325 156 q 302 95 314 131 q 283 32 290 60 q 274 -11 276 10 q 269 -58 271 -32 q 271 -119 267 -99 q 288 -151 275 -139 q 324 -171 301 -165 q 389 -165 346 -176 q 453 -144 425 -157 q 521 -122 485 -128 q 508 -131 522 -124 q 473 -149 494 -139 q 431 -169 451 -160 q 394 -185 410 -179 q 299 -187 329 -203 z "},"":{"ha":414,"x_min":-94,"x_max":522,"o":"m 299 -187 q 290 -183 293 -185 q 283 -180 286 -182 q 274 -174 279 -178 q 247 -129 254 -157 q 244 -51 240 -101 q 307 179 250 43 q 315 197 314 193 q 312 199 315 201 q 303 190 308 196 q 293 176 299 183 q 200 63 243 113 q -11 -111 51 -112 q -35 -108 -25 -112 q -56 -94 -46 -104 q -89 4 -86 -65 q 7 361 -94 146 q 69 474 50 451 q 78 481 75 478 q 83 483 81 483 q 88 483 85 483 q 101 467 101 481 q 95 442 101 461 q 78 396 89 422 q 49 311 54 340 q 47 298 47 303 q 44 293 46 293 q 43 297 44 292 q 42 309 42 301 q 42 324 42 317 q 58 394 46 349 q 64 413 63 406 q 65 419 65 419 q 60 410 65 419 q 47 385 54 400 q -64 6 -69 153 q -36 -79 -60 -58 q -27 -84 -31 -83 q -14 -85 -24 -85 q 34 -66 6 -86 q 108 0 63 -46 q 165 61 139 32 q 232 140 190 90 q 426 413 344 278 q 448 445 439 432 q 460 460 457 458 q 473 457 467 463 q 476 444 479 451 q 467 427 476 442 q 444 392 458 413 q 336 181 376 278 q 328 164 332 172 q 322 151 325 156 q 302 95 314 131 q 283 32 290 60 q 274 -11 276 10 q 269 -58 271 -32 q 271 -119 267 -99 q 288 -151 275 -139 q 324 -171 301 -165 q 389 -165 346 -176 q 453 -144 425 -157 q 521 -122 485 -128 q 508 -131 522 -124 q 473 -149 494 -139 q 431 -169 451 -160 q 394 -185 410 -179 q 299 -187 329 -203 z "},"":{"ha":414,"x_min":-94,"x_max":522,"o":"m 299 -187 q 290 -183 293 -185 q 283 -180 286 -182 q 274 -174 279 -178 q 247 -129 254 -157 q 244 -51 240 -101 q 307 179 250 43 q 315 197 314 193 q 312 199 315 201 q 303 190 308 196 q 293 176 299 183 q 200 63 243 113 q -11 -111 51 -112 q -35 -108 -25 -112 q -56 -94 -46 -104 q -89 4 -86 -65 q 7 361 -94 146 q 69 474 50 451 q 78 481 75 478 q 83 483 81 483 q 88 483 85 483 q 101 467 101 481 q 95 442 101 461 q 78 396 89 422 q 49 311 54 340 q 47 298 47 303 q 44 293 46 293 q 43 297 44 292 q 42 309 42 301 q 42 324 42 317 q 58 394 46 349 q 64 413 63 406 q 65 419 65 419 q 60 410 65 419 q 47 385 54 400 q -64 6 -69 153 q -36 -79 -60 -58 q -27 -84 -31 -83 q -14 -85 -24 -85 q 34 -66 6 -86 q 108 0 63 -46 q 165 61 139 32 q 232 140 190 90 q 426 413 344 278 q 448 445 439 432 q 460 460 457 458 q 473 457 467 463 q 476 444 479 451 q 467 427 476 442 q 444 392 458 413 q 336 181 376 278 q 328 164 332 172 q 322 151 325 156 q 302 95 314 131 q 283 32 290 60 q 274 -11 276 10 q 269 -58 271 -32 q 271 -119 267 -99 q 288 -151 275 -139 q 324 -171 301 -165 q 389 -165 346 -176 q 453 -144 425 -157 q 521 -122 485 -128 q 508 -131 522 -124 q 473 -149 494 -139 q 431 -169 451 -160 q 394 -185 410 -179 q 299 -187 329 -203 m 188 511 q 182 528 168 511 q 199 539 190 535 q 207 544 203 542 q 219 551 213 547 q 228 554 225 554 q 237 558 232 557 q 244 558 242 560 q 254 553 250 557 q 264 544 258 547 q 267 543 265 544 q 278 537 272 540 q 289 531 285 533 q 297 524 294 526 q 299 521 299 522 q 296 517 299 519 q 296 515 296 515 q 260 524 288 504 q 244 539 249 533 q 240 542 242 542 q 236 542 239 543 q 228 535 233 540 q 206 519 217 526 q 190 511 196 513 q 188 511 189 511 z "},"":{"ha":414,"x_min":-94,"x_max":522,"o":"m 299 -187 q 290 -183 293 -185 q 283 -180 286 -182 q 274 -174 279 -178 q 247 -129 254 -157 q 244 -51 240 -101 q 307 179 250 43 q 315 197 314 193 q 312 199 315 201 q 303 190 308 196 q 293 176 299 183 q 200 63 243 113 q -11 -111 51 -112 q -35 -108 -25 -112 q -56 -94 -46 -104 q -89 4 -86 -65 q 7 361 -94 146 q 69 474 50 451 q 78 481 75 478 q 83 483 81 483 q 88 483 85 483 q 101 467 101 481 q 95 442 101 461 q 78 396 89 422 q 49 311 54 340 q 47 298 47 303 q 44 293 46 293 q 43 297 44 292 q 42 309 42 301 q 42 324 42 317 q 58 394 46 349 q 64 413 63 406 q 65 419 65 419 q 60 410 65 419 q 47 385 54 400 q -64 6 -69 153 q -36 -79 -60 -58 q -27 -84 -31 -83 q -14 -85 -24 -85 q 34 -66 6 -86 q 108 0 63 -46 q 165 61 139 32 q 232 140 190 90 q 426 413 344 278 q 448 445 439 432 q 460 460 457 458 q 473 457 467 463 q 476 444 479 451 q 467 427 476 442 q 444 392 458 413 q 336 181 376 278 q 328 164 332 172 q 322 151 325 156 q 302 95 314 131 q 283 32 290 60 q 274 -11 276 10 q 269 -58 271 -32 q 271 -119 267 -99 q 288 -151 275 -139 q 324 -171 301 -165 q 389 -165 346 -176 q 453 -144 425 -157 q 521 -122 485 -128 q 508 -131 522 -124 q 473 -149 494 -139 q 431 -169 451 -160 q 394 -185 410 -179 q 299 -187 329 -203 z "},"":{"ha":349,"x_min":-68,"x_max":386,"o":"m 35 432 q 46 437 39 435 q 58 436 53 439 q 64 428 63 433 q 65 417 65 422 q 60 388 64 406 q 25 207 22 261 q 33 167 26 179 q 51 153 40 154 q 115 174 74 147 q 204 247 158 201 q 319 388 272 318 q 342 418 332 406 q 354 435 349 428 q 356 439 356 438 q 359 442 357 440 q 364 449 361 444 q 365 449 364 449 q 367 451 365 450 q 375 454 369 453 q 381 453 378 454 q 385 449 385 451 q 386 445 386 447 q 386 442 386 443 q 385 438 386 439 q 385 435 385 436 q 383 433 385 435 l 383 433 l 383 433 q 303 244 342 343 q 257 135 279 189 q 251 122 254 128 q 241 84 236 93 q 279 65 246 75 q 300 7 306 49 q 261 39 288 31 q 219 44 232 51 q 193 3 207 36 q 118 -114 158 -67 l 118 -114 l 118 -114 q 7 -190 54 -183 q -56 -158 -40 -197 q -44 -67 -68 -121 q 46 35 -19 -12 q 165 76 96 68 q 183 78 176 78 q 197 79 192 78 q 206 88 201 81 q 218 110 211 94 q 232 139 225 124 q 279 251 256 194 q 286 269 283 260 q 296 290 292 281 q 278 294 332 364 q 261 274 271 285 q 221 231 242 251 q 124 150 172 181 q 38 124 75 118 q -3 197 -1 133 q 26 368 -6 254 q 29 378 28 372 q 33 390 32 385 q 34 398 35 396 q 30 396 33 400 q 18 379 26 392 q 3 345 8 365 q -3 317 -3 325 l -7 325 q -6 338 -7 331 q 1 379 -4 358 q 18 417 6 400 q 35 432 26 425 m 119 39 q 56 13 79 28 q -19 -72 0 -29 q -28 -142 -37 -115 q 11 -162 -19 -167 q 100 -99 43 -158 q 100 -99 100 -99 q 161 -6 132 -61 q 174 18 168 8 q 183 44 186 38 q 147 44 181 51 q 119 39 133 43 z "},"":{"ha":567,"x_min":94,"x_max":544,"o":"m 449 433 q 485 463 478 461 q 464 422 492 465 q 240 74 333 260 q 219 33 233 60 q 186 -26 204 6 q 153 -85 168 -58 q 133 -124 139 -111 q 101 -157 108 -154 q 117 -114 94 -160 q 135 -78 122 -103 q 165 -24 149 -53 q 169 -17 168 -21 q 202 42 188 15 q 224 82 217 69 q 449 433 317 269 m 383 383 q 496 351 458 383 q 539 267 533 317 q 492 65 544 160 q 431 -3 474 32 q 333 -65 389 -39 q 224 -93 279 -90 q 124 -58 167 -94 q 106 -33 110 -40 q 106 -27 101 -26 q 118 -33 110 -28 q 136 -44 126 -37 q 222 -74 174 -75 q 326 -47 274 -72 q 419 12 378 -22 q 475 74 460 46 q 511 167 497 117 q 521 264 525 218 q 485 336 515 308 q 383 365 453 364 q 356 363 368 364 q 341 364 344 363 q 347 370 338 365 q 383 383 357 375 z "},"":{"ha":325,"x_min":-22,"x_max":333,"o":"m -22 -54 q -14 -44 -14 -47 q 0 -19 -7 -29 q 118 179 61 46 q 271 406 197 367 q 301 414 285 414 q 319 407 311 414 q 333 361 333 392 q 311 254 333 322 q 235 206 292 206 q 193 193 193 200 l 193 192 q 208 167 193 185 q 263 89 263 111 q 258 72 263 81 q 158 19 229 26 l 131 17 q 106 24 119 17 q 96 31 96 29 q 101 33 96 33 l 110 33 l 157 39 q 236 76 219 46 q 208 138 254 88 q 172 190 172 172 q 233 225 172 218 q 313 361 313 231 q 297 394 313 394 q 281 389 292 394 q 136 169 211 347 q 15 -35 79 38 q -11 -49 3 -44 l -22 -54 z "},"":{"ha":174,"x_min":-47,"x_max":219,"o":"m 99 161 q 122 142 115 160 q 125 133 124 139 q 127 121 126 126 q 128 111 128 115 q 128 107 128 107 q 124 112 126 108 q 118 121 121 115 q 97 139 107 140 q 83 133 89 138 q 69 124 76 129 q 68 122 69 122 q 67 121 68 121 q 32 90 50 107 q 3 61 14 74 q -3 54 0 57 q -6 48 -4 51 q -9 43 -8 44 q -8 42 -10 42 q 0 47 -6 43 q 4 51 1 49 q 21 67 8 56 q 47 93 33 79 q 71 117 60 106 q 86 131 82 128 q 101 133 94 138 q 110 118 107 129 q 101 97 110 113 q 78 60 92 81 q 72 49 75 54 q 67 36 67 39 q 82 39 68 33 q 122 58 99 46 q 164 81 146 72 l 175 86 q 201 99 189 93 q 217 106 213 104 q 218 105 219 107 q 211 97 217 103 q 201 88 206 93 q 193 81 196 83 q 186 76 189 78 q 183 72 183 74 q 122 32 153 49 q 72 13 100 21 q 69 11 71 11 q 57 8 64 10 q 44 8 50 6 q 38 18 39 10 q 47 47 39 35 q 56 60 51 53 q 57 63 56 61 q 61 71 60 68 q 60 73 63 74 q 53 67 58 72 q 46 60 50 64 q 26 40 33 47 q 13 28 18 32 q 0 18 7 24 q -35 17 -25 3 q -11 79 -47 35 q 41 131 13 107 q 89 160 69 154 q 94 161 92 161 q 99 161 96 161 l 99 161 z "},"":{"ha":174,"x_min":-47,"x_max":219,"o":"m 99 161 q 122 142 115 160 q 125 133 124 139 q 127 121 126 126 q 128 111 128 115 q 128 107 128 107 q 124 112 126 108 q 118 121 121 115 q 97 139 107 140 q 83 133 89 138 q 69 124 76 129 q 68 122 69 122 q 67 121 68 121 q 32 90 50 107 q 3 61 14 74 q -3 54 0 57 q -6 48 -4 51 q -9 43 -8 44 q -8 42 -10 42 q 0 47 -6 43 q 4 51 1 49 q 21 67 8 56 q 47 93 33 79 q 71 117 60 106 q 86 131 82 128 q 101 133 94 138 q 110 118 107 129 q 101 97 110 113 q 78 60 92 81 q 72 49 75 54 q 67 36 67 39 q 82 39 68 33 q 122 58 99 46 q 164 81 146 72 l 175 86 q 201 99 189 93 q 217 106 213 104 q 218 105 219 107 q 211 97 217 103 q 201 88 206 93 q 193 81 196 83 q 186 76 189 78 q 183 72 183 74 q 122 32 153 49 q 72 13 100 21 q 69 11 71 11 q 57 8 64 10 q 44 8 50 6 q 38 18 39 10 q 47 47 39 35 q 56 60 51 53 q 57 63 56 61 q 61 71 60 68 q 60 73 63 74 q 53 67 58 72 q 46 60 50 64 q 26 40 33 47 q 13 28 18 32 q 0 18 7 24 q -35 17 -25 3 q -11 79 -47 35 q 41 131 13 107 q 89 160 69 154 q 94 161 92 161 q 99 161 96 161 l 99 161 z "},"":{"ha":174,"x_min":-47,"x_max":219,"o":"m 99 161 q 122 142 115 160 q 125 133 124 139 q 127 121 126 126 q 128 111 128 115 q 128 107 128 107 q 124 112 126 108 q 118 121 121 115 q 97 139 107 140 q 83 133 89 138 q 69 124 76 129 q 68 122 69 122 q 67 121 68 121 q 32 90 50 107 q 3 61 14 74 q -3 54 0 57 q -6 48 -4 51 q -9 43 -8 44 q -8 42 -10 42 q 0 47 -6 43 q 4 51 1 49 q 21 67 8 56 q 47 93 33 79 q 71 117 60 106 q 86 131 82 128 q 101 133 94 138 q 110 118 107 129 q 101 97 110 113 q 78 60 92 81 q 72 49 75 54 q 67 36 67 39 q 82 39 68 33 q 122 58 99 46 q 164 81 146 72 l 175 86 q 201 99 189 93 q 217 106 213 104 q 218 105 219 107 q 211 97 217 103 q 201 88 206 93 q 193 81 196 83 q 186 76 189 78 q 183 72 183 74 q 122 32 153 49 q 72 13 100 21 q 69 11 71 11 q 57 8 64 10 q 44 8 50 6 q 38 18 39 10 q 47 47 39 35 q 56 60 51 53 q 57 63 56 61 q 61 71 60 68 q 60 73 63 74 q 53 67 58 72 q 46 60 50 64 q 26 40 33 47 q 13 28 18 32 q 0 18 7 24 q -35 17 -25 3 q -11 79 -47 35 q 41 131 13 107 q 89 160 69 154 q 94 161 92 161 q 99 161 96 161 l 99 161 m 43 208 q 38 225 24 208 q 54 236 46 232 q 63 242 58 239 q 74 248 68 244 q 83 251 81 251 q 92 256 88 254 q 100 256 97 257 q 110 250 106 254 q 119 242 114 244 q 122 240 121 242 q 134 234 128 238 q 144 228 140 231 q 152 222 150 224 q 154 218 154 219 q 151 214 154 217 q 151 213 151 213 q 115 221 143 201 q 100 236 104 231 q 96 240 97 239 q 92 239 94 240 q 83 232 89 238 q 62 217 72 224 q 46 208 51 210 q 43 208 44 208 z "},"":{"ha":174,"x_min":-47,"x_max":219,"o":"m 99 161 q 122 142 115 160 q 125 133 124 139 q 127 121 126 126 q 128 111 128 115 q 128 107 128 107 q 124 112 126 108 q 118 121 121 115 q 97 139 107 140 q 83 133 89 138 q 69 124 76 129 q 68 122 69 122 q 67 121 68 121 q 32 90 50 107 q 3 61 14 74 q -3 54 0 57 q -6 48 -4 51 q -9 43 -8 44 q -8 42 -10 42 q 0 47 -6 43 q 4 51 1 49 q 21 67 8 56 q 47 93 33 79 q 71 117 60 106 q 86 131 82 128 q 101 133 94 138 q 110 118 107 129 q 101 97 110 113 q 78 60 92 81 q 72 49 75 54 q 67 36 67 39 q 82 39 68 33 q 122 58 99 46 q 164 81 146 72 l 175 86 q 201 99 189 93 q 217 106 213 104 q 218 105 219 107 q 211 97 217 103 q 201 88 206 93 q 193 81 196 83 q 186 76 189 78 q 183 72 183 74 q 122 32 153 49 q 72 13 100 21 q 69 11 71 11 q 57 8 64 10 q 44 8 50 6 q 38 18 39 10 q 47 47 39 35 q 56 60 51 53 q 57 63 56 61 q 61 71 60 68 q 60 73 63 74 q 53 67 58 72 q 46 60 50 64 q 26 40 33 47 q 13 28 18 32 q 0 18 7 24 q -35 17 -25 3 q -11 79 -47 35 q 41 131 13 107 q 89 160 69 154 q 94 161 92 161 q 99 161 96 161 l 99 161 m 15 197 q 18 217 14 204 q 31 240 22 229 q 47 257 39 251 q 64 253 56 263 q 103 233 83 233 q 139 239 124 232 q 164 250 153 246 q 176 253 175 254 q 174 246 178 251 q 163 234 169 240 q 150 222 156 228 q 100 210 125 207 q 58 231 75 213 q 55 235 57 233 q 51 236 53 236 q 42 228 49 236 q 28 210 35 219 q 21 197 21 200 q 19 193 21 193 q 15 197 17 193 z "},"":{"ha":174,"x_min":-47,"x_max":219,"o":"m 99 161 q 122 142 115 160 q 125 133 124 139 q 127 121 126 126 q 128 111 128 115 q 128 107 128 107 q 124 112 126 108 q 118 121 121 115 q 97 139 107 140 q 83 133 89 138 q 69 124 76 129 q 68 122 69 122 q 67 121 68 121 q 32 90 50 107 q 3 61 14 74 q -3 54 0 57 q -6 48 -4 51 q -9 43 -8 44 q -8 42 -10 42 q 0 47 -6 43 q 4 51 1 49 q 21 67 8 56 q 47 93 33 79 q 71 117 60 106 q 86 131 82 128 q 101 133 94 138 q 110 118 107 129 q 101 97 110 113 q 78 60 92 81 q 72 49 75 54 q 67 36 67 39 q 82 39 68 33 q 122 58 99 46 q 164 81 146 72 l 175 86 q 201 99 189 93 q 217 106 213 104 q 218 105 219 107 q 211 97 217 103 q 201 88 206 93 q 193 81 196 83 q 186 76 189 78 q 183 72 183 74 q 122 32 153 49 q 72 13 100 21 q 69 11 71 11 q 57 8 64 10 q 44 8 50 6 q 38 18 39 10 q 47 47 39 35 q 56 60 51 53 q 57 63 56 61 q 61 71 60 68 q 60 73 63 74 q 53 67 58 72 q 46 60 50 64 q 26 40 33 47 q 13 28 18 32 q 0 18 7 24 q -35 17 -25 3 q -11 79 -47 35 q 41 131 13 107 q 89 160 69 154 q 94 161 92 161 q 99 161 96 161 l 99 161 z "},"":{"ha":174,"x_min":-47,"x_max":219,"o":"m 99 161 q 122 142 115 160 q 125 133 124 139 q 127 121 126 126 q 128 111 128 115 q 128 107 128 107 q 124 112 126 108 q 118 121 121 115 q 97 139 107 140 q 83 133 89 138 q 69 124 76 129 q 68 122 69 122 q 67 121 68 121 q 32 90 50 107 q 3 61 14 74 q -3 54 0 57 q -6 48 -4 51 q -9 43 -8 44 q -8 42 -10 42 q 0 47 -6 43 q 4 51 1 49 q 21 67 8 56 q 47 93 33 79 q 71 117 60 106 q 86 131 82 128 q 101 133 94 138 q 110 118 107 129 q 101 97 110 113 q 78 60 92 81 q 72 49 75 54 q 67 36 67 39 q 82 39 68 33 q 122 58 99 46 q 164 81 146 72 l 175 86 q 201 99 189 93 q 217 106 213 104 q 218 105 219 107 q 211 97 217 103 q 201 88 206 93 q 193 81 196 83 q 186 76 189 78 q 183 72 183 74 q 122 32 153 49 q 72 13 100 21 q 69 11 71 11 q 57 8 64 10 q 44 8 50 6 q 38 18 39 10 q 47 47 39 35 q 56 60 51 53 q 57 63 56 61 q 61 71 60 68 q 60 73 63 74 q 53 67 58 72 q 46 60 50 64 q 26 40 33 47 q 13 28 18 32 q 0 18 7 24 q -35 17 -25 3 q -11 79 -47 35 q 41 131 13 107 q 89 160 69 154 q 94 161 92 161 q 99 161 96 161 l 99 161 m 99 156 q 76 169 85 157 q 68 197 67 181 q 74 214 69 206 q 83 226 78 222 q 97 231 89 231 q 110 226 104 231 q 119 215 115 222 q 122 203 122 208 q 123 199 122 201 q 125 194 124 196 q 126 181 128 189 q 118 165 124 172 q 106 157 113 158 q 99 156 101 156 m 97 174 q 101 176 99 174 q 107 181 104 178 q 111 183 110 183 q 113 192 114 186 q 110 203 113 197 q 103 210 107 208 q 94 209 100 213 q 85 201 89 206 q 85 192 82 196 q 87 185 85 189 q 92 177 89 181 q 97 174 94 174 z "},"":{"ha":221,"x_min":-37,"x_max":265,"o":"m -22 10 q -37 28 -37 10 q 42 131 -37 65 q 94 161 78 161 q 128 107 125 161 q 118 121 122 113 q 99 139 108 139 q 69 124 88 139 q 67 121 69 121 q 3 61 25 86 q -2 54 0 57 q -6 48 -4 51 q -8 43 -8 44 q 71 117 -1 44 q 96 135 89 135 q 110 118 106 135 q 78 60 110 108 l 56 60 l 63 74 q 46 60 58 72 q 13 28 18 32 q 0 18 7 24 q -22 10 -12 10 m 96 7 q 71 10 76 7 q 51 53 51 29 q 66 98 51 68 q 119 150 81 128 q 165 164 147 164 q 190 154 181 164 q 196 143 196 149 q 192 131 196 139 q 100 74 188 124 q 74 49 74 58 q 104 31 74 31 q 222 88 135 31 l 265 107 l 265 104 l 257 97 q 113 8 194 35 q 96 7 108 7 m 103 100 q 113 106 106 100 q 142 122 128 115 q 155 131 149 126 q 164 138 161 135 q 167 142 167 140 q 164 144 167 144 q 132 132 151 144 q 100 103 100 114 q 103 100 100 101 z "},"":{"ha":168,"x_min":-28,"x_max":219,"o":"m 103 158 q 124 132 128 157 q 113 109 121 122 q 96 88 104 96 q 89 81 92 82 q 82 79 86 79 q 65 88 68 79 q 64 92 64 90 q 65 97 64 94 q 72 102 68 100 q 81 103 76 104 q 84 105 82 103 q 90 113 86 107 q 101 133 101 128 q 94 135 101 139 q 75 126 86 132 q 48 104 63 118 q 22 75 33 90 q -4 26 -6 39 q 15 15 -3 13 q 56 28 33 17 q 101 49 83 42 q 124 60 113 54 q 165 81 146 72 l 176 86 q 201 99 190 93 q 217 106 213 104 q 218 105 219 107 q 211 97 217 103 q 201 88 207 92 q 193 81 196 83 q 188 76 190 78 q 183 72 185 74 q 138 44 165 60 q 79 17 110 29 q 42 3 67 11 q -4 -2 17 -4 q -28 22 -25 0 q 3 84 -25 47 q 65 143 31 121 q 86 155 78 151 q 103 158 94 158 z "},"":{"ha":136,"x_min":-46,"x_max":182,"o":"m 35 150 q 72 163 51 158 q 106 154 92 167 q 110 137 114 146 q 97 122 106 128 q 57 99 81 111 q 21 76 36 86 q 15 74 18 75 q -6 58 3 67 q -4 36 -15 49 q 13 30 3 31 q 33 33 24 29 q 47 39 42 36 q 138 88 93 58 q 163 100 151 94 q 179 107 175 106 q 181 105 182 107 q 172 97 179 103 q 163 89 168 93 q 154 82 158 85 q 149 77 151 79 q 144 74 146 75 q 28 8 93 29 q 15 6 24 7 q -1 6 7 6 q -14 10 -10 7 q -25 85 -46 42 q 35 150 -4 128 m 71 131 q 80 138 76 135 q 82 143 83 142 q 72 143 81 144 q 47 132 61 140 q 21 113 31 122 q 16 101 14 104 q 28 106 18 99 q 57 122 43 115 q 71 131 64 126 z "},"":{"ha":136,"x_min":-46,"x_max":182,"o":"m 35 150 q 72 163 51 158 q 106 154 92 167 q 110 137 114 146 q 97 122 106 128 q 57 99 81 111 q 21 76 36 86 q 15 74 18 75 q -6 58 3 67 q -4 36 -15 49 q 13 30 3 31 q 33 33 24 29 q 47 39 42 36 q 138 88 93 58 q 163 100 151 94 q 179 107 175 106 q 181 105 182 107 q 172 97 179 103 q 163 89 168 93 q 154 82 158 85 q 149 77 151 79 q 144 74 146 75 q 28 8 93 29 q 15 6 24 7 q -1 6 7 6 q -14 10 -10 7 q -25 85 -46 42 q 35 150 -4 128 m 71 131 q 80 138 76 135 q 82 143 83 142 q 72 143 81 144 q 47 132 61 140 q 21 113 31 122 q 16 101 14 104 q 28 106 18 99 q 57 122 43 115 q 71 131 64 126 z "},"":{"ha":136,"x_min":-46,"x_max":182,"o":"m 35 150 q 72 163 51 158 q 106 154 92 167 q 110 137 114 146 q 97 122 106 128 q 57 99 81 111 q 21 76 36 86 q 15 74 18 75 q -6 58 3 67 q -4 36 -15 49 q 13 30 3 31 q 33 33 24 29 q 47 39 42 36 q 138 88 93 58 q 163 100 151 94 q 179 107 175 106 q 181 105 182 107 q 172 97 179 103 q 163 89 168 93 q 154 82 158 85 q 149 77 151 79 q 144 74 146 75 q 28 8 93 29 q 15 6 24 7 q -1 6 7 6 q -14 10 -10 7 q -25 85 -46 42 q 35 150 -4 128 m 71 131 q 80 138 76 135 q 82 143 83 142 q 72 143 81 144 q 47 132 61 140 q 21 113 31 122 q 16 101 14 104 q 28 106 18 99 q 57 122 43 115 q 71 131 64 126 m 11 224 q 6 240 -8 224 q 22 251 14 247 q 31 257 26 254 q 42 263 36 260 q 51 267 49 267 q 60 271 56 269 q 68 271 65 272 q 78 265 74 269 q 88 257 82 260 q 90 256 89 257 q 102 249 96 253 q 113 243 108 246 q 120 237 118 239 q 122 233 122 235 q 119 229 122 232 q 119 228 119 228 q 83 236 111 217 q 68 251 72 246 q 64 255 65 254 q 60 254 63 256 q 51 247 57 253 q 30 232 40 239 q 14 224 19 225 q 11 224 13 224 z "},"":{"ha":136,"x_min":-46,"x_max":182,"o":"m 35 150 q 72 163 51 158 q 106 154 92 167 q 110 137 114 146 q 97 122 106 128 q 57 99 81 111 q 21 76 36 86 q 15 74 18 75 q -6 58 3 67 q -4 36 -15 49 q 13 30 3 31 q 33 33 24 29 q 47 39 42 36 q 138 88 93 58 q 163 100 151 94 q 179 107 175 106 q 181 105 182 107 q 172 97 179 103 q 163 89 168 93 q 154 82 158 85 q 149 77 151 79 q 144 74 146 75 q 28 8 93 29 q 15 6 24 7 q -1 6 7 6 q -14 10 -10 7 q -25 85 -46 42 q 35 150 -4 128 m 71 131 q 80 138 76 135 q 82 143 83 142 q 72 143 81 144 q 47 132 61 140 q 21 113 31 122 q 16 101 14 104 q 28 106 18 99 q 57 122 43 115 q 71 131 64 126 z "},"":{"ha":121,"x_min":-46,"x_max":167,"o":"m 64 146 q 66 146 65 146 q 68 144 67 146 q 72 139 72 142 q 66 128 71 136 q 53 110 61 119 q 28 74 38 88 q 13 46 19 60 q 16 37 8 36 q 39 44 24 38 q 72 61 54 51 q 113 82 94 72 l 124 88 q 149 100 138 94 q 165 106 161 106 q 166 105 167 107 q 158 97 165 103 q 149 88 154 93 q 140 81 144 83 q 135 76 138 78 q 131 74 132 74 q 7 8 76 29 q -12 40 -25 0 q -4 56 -8 50 q -3 58 -3 57 q 0 63 -1 61 q 3 67 3 67 q 0 65 3 68 q -12 58 -4 63 q -35 47 -25 50 q -46 47 -46 43 q -31 68 -46 51 l -7 88 q 6 99 -4 90 q 27 117 15 107 q 48 135 39 128 q 58 144 57 143 q 64 146 63 146 z "},"":{"ha":121,"x_min":-46,"x_max":167,"o":"m 64 146 q 66 146 65 146 q 68 144 67 146 q 72 139 72 142 q 66 128 71 136 q 53 110 61 119 q 28 74 38 88 q 13 46 19 60 q 16 37 8 36 q 39 44 24 38 q 72 61 54 51 q 113 82 94 72 l 124 88 q 149 100 138 94 q 165 106 161 106 q 166 105 167 107 q 158 97 165 103 q 149 88 154 93 q 140 81 144 83 q 135 76 138 78 q 131 74 132 74 q 7 8 76 29 q -12 40 -25 0 q -4 56 -8 50 q -3 58 -3 57 q 0 63 -1 61 q 3 67 3 67 q 0 65 3 68 q -12 58 -4 63 q -35 47 -25 50 q -46 47 -46 43 q -31 68 -46 51 l -7 88 q 6 99 -4 90 q 27 117 15 107 q 48 135 39 128 q 58 144 57 143 q 64 146 63 146 z "},"":{"ha":121,"x_min":-46,"x_max":167,"o":"m 64 146 q 66 146 65 146 q 68 144 67 146 q 72 139 72 142 q 66 128 71 136 q 53 110 61 119 q 28 74 38 88 q 13 46 19 60 q 16 37 8 36 q 39 44 24 38 q 72 61 54 51 q 113 82 94 72 l 124 88 q 149 100 138 94 q 165 106 161 106 q 166 105 167 107 q 158 97 165 103 q 149 88 154 93 q 140 81 144 83 q 135 76 138 78 q 131 74 132 74 q 7 8 76 29 q -12 40 -25 0 q -4 56 -8 50 q -3 58 -3 57 q 0 63 -1 61 q 3 67 3 67 q 0 65 3 68 q -12 58 -4 63 q -35 47 -25 50 q -46 47 -46 43 q -31 68 -46 51 l -7 88 q 6 99 -4 90 q 27 117 15 107 q 48 135 39 128 q 58 144 57 143 q 64 146 63 146 m 21 214 q 15 231 1 214 q 32 242 24 238 q 40 247 36 244 q 52 253 46 250 q 61 257 58 257 q 70 261 65 260 q 78 261 75 263 q 88 256 83 260 q 97 247 92 250 q 100 246 99 247 q 112 240 106 243 q 122 233 118 236 q 130 227 128 229 q 132 224 132 225 q 129 219 132 222 q 129 218 129 218 q 93 226 121 207 q 78 242 82 236 q 74 245 75 244 q 69 244 72 246 q 61 238 67 243 q 40 222 50 229 q 24 214 29 215 q 21 214 22 214 z "},"":{"ha":121,"x_min":-46,"x_max":167,"o":"m 64 146 q 66 146 65 146 q 68 144 67 146 q 72 139 72 142 q 66 128 71 136 q 53 110 61 119 q 28 74 38 88 q 13 46 19 60 q 16 37 8 36 q 39 44 24 38 q 72 61 54 51 q 113 82 94 72 l 124 88 q 149 100 138 94 q 165 106 161 106 q 166 105 167 107 q 158 97 165 103 q 149 88 154 93 q 140 81 144 83 q 135 76 138 78 q 131 74 132 74 q 7 8 76 29 q -12 40 -25 0 q -4 56 -8 50 q -3 58 -3 57 q 0 63 -1 61 q 3 67 3 67 q 0 65 3 68 q -12 58 -4 63 q -35 47 -25 50 q -46 47 -46 43 q -31 68 -46 51 l -7 88 q 6 99 -4 90 q 27 117 15 107 q 48 135 39 128 q 58 144 57 143 q 64 146 63 146 z "},"":{"ha":349,"x_min":56,"x_max":435,"o":"m 275 453 q 285 451 279 453 l 285 451 q 319 424 304 446 q 332 386 328 408 q 333 382 333 383 q 336 372 335 375 q 340 369 338 369 q 346 371 342 369 q 360 375 351 374 q 413 388 382 381 l 435 390 q 432 389 433 390 q 424 383 429 386 q 413 378 419 379 q 360 365 381 371 q 351 363 354 364 q 340 359 343 361 q 338 352 338 357 q 338 336 338 347 q 314 192 339 267 q 311 175 310 181 q 318 165 313 169 q 321 160 319 163 q 326 152 324 156 q 328 147 328 149 q 324 142 328 143 q 308 143 319 142 q 298 144 301 146 q 292 135 294 142 q 292 135 292 135 q 124 3 224 11 q 109 3 115 3 q 94 8 103 4 q 60 38 71 15 q 56 67 56 49 q 63 100 57 85 q 181 189 94 169 q 210 191 192 190 q 246 190 228 192 q 267 188 258 190 q 280 186 275 185 q 288 199 285 188 q 310 331 311 263 q 306 344 308 342 q 296 343 304 346 q 283 340 290 342 q 219 322 261 333 q 219 322 219 322 q 218 322 219 322 q 212 326 211 324 q 218 333 213 329 q 231 341 224 338 q 243 347 239 344 q 249 349 247 349 q 251 350 251 350 q 249 347 250 349 q 244 344 246 346 q 244 342 243 343 q 285 353 267 347 q 294 356 290 354 q 305 360 303 357 q 303 376 307 364 q 294 403 300 390 q 285 417 292 411 q 274 426 279 422 q 267 428 268 429 q 266 424 267 426 q 267 417 265 421 q 267 410 267 413 q 266 408 267 408 q 264 408 265 408 q 253 415 258 410 q 246 425 247 421 q 247 430 246 426 q 249 436 247 433 q 252 442 250 440 q 258 447 254 444 q 266 451 263 450 q 272 453 269 453 q 275 453 274 453 m 201 168 q 197 168 199 168 q 104 124 135 165 q 89 60 85 92 q 131 22 93 28 q 201 53 165 22 q 261 133 236 83 q 268 151 269 146 q 260 157 267 156 q 232 165 247 161 q 201 168 217 168 z "},"":{"ha":211,"x_min":-51,"x_max":253,"o":"m 60 144 q 62 144 61 144 q 64 143 63 143 q 68 136 68 140 q 60 124 67 133 q 56 115 54 117 q 63 121 57 114 q 81 136 71 129 q 99 144 90 143 q 108 140 104 144 q 113 135 111 138 q 114 126 114 132 q 115 118 115 122 q 112 106 114 114 q 106 81 110 97 q 115 49 101 54 q 152 54 129 44 q 199 79 175 64 l 210 85 q 234 97 222 92 q 250 104 246 103 q 251 103 253 106 q 244 96 250 101 q 235 87 240 92 q 226 79 229 82 q 221 74 224 76 q 217 71 218 72 q 213 68 215 69 q 166 36 189 49 q 111 24 143 24 q 85 47 90 25 q 88 97 79 69 q 92 113 90 106 q 93 119 93 119 q 75 106 90 121 q 40 71 60 92 q 6 29 21 50 q -6 15 -1 21 q -12 7 -11 8 q -25 10 -19 3 q -29 17 -29 13 q -25 28 -29 21 q -10 50 -21 36 q -1 64 -3 63 q -1 64 0 65 q -17 56 -4 63 q -31 49 -22 51 q -45 46 -39 46 q -50 51 -51 46 q -35 67 -49 56 q -25 72 -31 69 q -6 86 -17 79 q 12 101 0 90 q 35 124 24 113 q 49 136 43 131 q 54 142 54 142 q 60 144 58 144 m 0 215 q 3 235 -1 222 q 15 258 7 247 q 32 275 24 269 q 49 271 40 281 q 88 251 68 251 q 124 257 108 250 q 149 268 138 264 q 161 271 160 272 q 158 264 163 269 q 147 252 154 258 q 135 240 140 246 q 85 228 110 225 q 43 249 60 231 q 40 253 42 251 q 36 254 38 254 q 26 246 33 254 q 13 228 19 238 q 6 215 6 218 q 3 211 6 211 q 0 215 1 211 z "},"":{"ha":215,"x_min":-42,"x_max":257,"o":"m 82 132 q 119 160 94 153 q 161 143 143 167 q 161 114 167 131 q 143 81 157 99 q 140 75 142 79 q 138 68 138 71 q 142 62 138 64 q 154 61 147 60 q 181 69 167 63 q 207 83 194 75 q 214 86 211 85 q 240 99 228 93 q 256 106 251 104 q 256 105 257 107 q 249 97 256 103 q 240 88 244 93 q 231 81 235 83 q 224 74 225 76 q 189 51 208 60 q 154 40 169 42 q 136 43 144 40 q 126 44 131 44 q 117 42 121 44 q 63 -3 92 13 q 29 -11 46 -11 q -1 4 11 -11 q -8 39 -12 18 q -6 47 -7 43 q -3 58 -4 54 q -8 57 -3 61 q -31 46 -21 50 q -42 47 -42 42 q -26 68 -42 51 l -3 86 q 10 99 0 90 q 34 119 21 108 q 58 138 47 131 q 69 147 68 146 q 78 149 74 150 q 83 142 82 147 q 75 133 83 140 q 63 122 69 128 q 51 108 57 115 q 51 107 51 108 q 31 77 44 99 q 15 36 18 56 q 36 11 13 17 q 65 22 51 11 q 92 44 79 32 q 100 53 96 49 q 100 67 108 60 q 82 132 69 103 m 133 139 q 116 137 124 140 q 100 124 108 133 q 110 86 93 111 q 111 85 110 86 q 117 79 114 81 q 122 83 119 78 q 143 119 138 104 q 143 135 144 131 q 140 138 142 136 q 133 139 139 139 z "},"":{"ha":215,"x_min":-42,"x_max":257,"o":"m 82 132 q 119 160 94 153 q 161 143 143 167 q 161 114 167 131 q 143 81 157 99 q 140 75 142 79 q 138 68 138 71 q 142 62 138 64 q 154 61 147 60 q 181 69 167 63 q 207 83 194 75 q 214 86 211 85 q 240 99 228 93 q 256 106 251 104 q 256 105 257 107 q 249 97 256 103 q 240 88 244 93 q 231 81 235 83 q 224 74 225 76 q 189 51 208 60 q 154 40 169 42 q 136 43 144 40 q 126 44 131 44 q 117 42 121 44 q 63 -3 92 13 q 29 -11 46 -11 q -1 4 11 -11 q -8 39 -12 18 q -6 47 -7 43 q -3 58 -4 54 q -8 57 -3 61 q -31 46 -21 50 q -42 47 -42 42 q -26 68 -42 51 l -3 86 q 10 99 0 90 q 34 119 21 108 q 58 138 47 131 q 69 147 68 146 q 78 149 74 150 q 83 142 82 147 q 75 133 83 140 q 63 122 69 128 q 51 108 57 115 q 51 107 51 108 q 31 77 44 99 q 15 36 18 56 q 36 11 13 17 q 65 22 51 11 q 92 44 79 32 q 100 53 96 49 q 100 67 108 60 q 82 132 69 103 m 133 139 q 116 137 124 140 q 100 124 108 133 q 110 86 93 111 q 111 85 110 86 q 117 79 114 81 q 122 83 119 78 q 143 119 138 104 q 143 135 144 131 q 140 138 142 136 q 133 139 139 139 z "},"":{"ha":215,"x_min":-42,"x_max":257,"o":"m 82 132 q 119 160 94 153 q 161 143 143 167 q 161 114 167 131 q 143 81 157 99 q 140 75 142 79 q 138 68 138 71 q 142 62 138 64 q 154 61 147 60 q 181 69 167 63 q 207 83 194 75 q 214 86 211 85 q 240 99 228 93 q 256 106 251 104 q 256 105 257 107 q 249 97 256 103 q 240 88 244 93 q 231 81 235 83 q 224 74 225 76 q 189 51 208 60 q 154 40 169 42 q 136 43 144 40 q 126 44 131 44 q 117 42 121 44 q 63 -3 92 13 q 29 -11 46 -11 q -1 4 11 -11 q -8 39 -12 18 q -6 47 -7 43 q -3 58 -4 54 q -8 57 -3 61 q -31 46 -21 50 q -42 47 -42 42 q -26 68 -42 51 l -3 86 q 10 99 0 90 q 34 119 21 108 q 58 138 47 131 q 69 147 68 146 q 78 149 74 150 q 83 142 82 147 q 75 133 83 140 q 63 122 69 128 q 51 108 57 115 q 51 107 51 108 q 31 77 44 99 q 15 36 18 56 q 36 11 13 17 q 65 22 51 11 q 92 44 79 32 q 100 53 96 49 q 100 67 108 60 q 82 132 69 103 m 133 139 q 116 137 124 140 q 100 124 108 133 q 110 86 93 111 q 111 85 110 86 q 117 79 114 81 q 122 83 119 78 q 143 119 138 104 q 143 135 144 131 q 140 138 142 136 q 133 139 139 139 m 43 224 q 38 240 24 224 q 54 251 46 247 q 63 257 58 254 q 74 263 68 260 q 83 267 81 267 q 92 271 88 269 q 100 271 97 272 q 110 265 106 269 q 119 257 114 260 q 122 256 121 257 q 134 249 128 253 q 144 243 140 246 q 152 237 150 239 q 154 233 154 235 q 151 229 154 232 q 151 228 151 228 q 115 236 143 217 q 100 251 104 246 q 96 255 97 254 q 92 254 94 256 q 83 247 89 253 q 62 232 72 239 q 46 224 51 225 q 43 224 44 224 z "},"":{"ha":215,"x_min":-42,"x_max":257,"o":"m 82 132 q 119 160 94 153 q 161 143 143 167 q 161 114 167 131 q 143 81 157 99 q 140 75 142 79 q 138 68 138 71 q 142 62 138 64 q 154 61 147 60 q 181 69 167 63 q 207 83 194 75 q 214 86 211 85 q 240 99 228 93 q 256 106 251 104 q 256 105 257 107 q 249 97 256 103 q 240 88 244 93 q 231 81 235 83 q 224 74 225 76 q 189 51 208 60 q 154 40 169 42 q 136 43 144 40 q 126 44 131 44 q 117 42 121 44 q 63 -3 92 13 q 29 -11 46 -11 q -1 4 11 -11 q -8 39 -12 18 q -6 47 -7 43 q -3 58 -4 54 q -8 57 -3 61 q -31 46 -21 50 q -42 47 -42 42 q -26 68 -42 51 l -3 86 q 10 99 0 90 q 34 119 21 108 q 58 138 47 131 q 69 147 68 146 q 78 149 74 150 q 83 142 82 147 q 75 133 83 140 q 63 122 69 128 q 51 108 57 115 q 51 107 51 108 q 31 77 44 99 q 15 36 18 56 q 36 11 13 17 q 65 22 51 11 q 92 44 79 32 q 100 53 96 49 q 100 67 108 60 q 82 132 69 103 m 133 139 q 116 137 124 140 q 100 124 108 133 q 110 86 93 111 q 111 85 110 86 q 117 79 114 81 q 122 83 119 78 q 143 119 138 104 q 143 135 144 131 q 140 138 142 136 q 133 139 139 139 m 38 219 q 40 239 36 226 q 53 263 44 251 q 69 279 61 274 q 86 275 78 285 q 126 255 106 256 q 161 261 146 254 q 186 272 175 268 q 199 275 197 276 q 196 268 200 274 q 185 256 192 263 q 172 244 178 250 q 122 232 147 229 q 81 253 97 235 q 77 257 79 256 q 74 258 75 258 q 64 250 71 258 q 50 232 57 242 q 43 219 43 222 q 41 215 43 215 q 38 219 39 215 z "},"":{"ha":215,"x_min":-42,"x_max":257,"o":"m 82 132 q 119 160 94 153 q 161 143 143 167 q 161 114 167 131 q 143 81 157 99 q 140 75 142 79 q 138 68 138 71 q 142 62 138 64 q 154 61 147 60 q 181 69 167 63 q 207 83 194 75 q 214 86 211 85 q 240 99 228 93 q 256 106 251 104 q 256 105 257 107 q 249 97 256 103 q 240 88 244 93 q 231 81 235 83 q 224 74 225 76 q 189 51 208 60 q 154 40 169 42 q 136 43 144 40 q 126 44 131 44 q 117 42 121 44 q 63 -3 92 13 q 29 -11 46 -11 q -1 4 11 -11 q -8 39 -12 18 q -6 47 -7 43 q -3 58 -4 54 q -8 57 -3 61 q -31 46 -21 50 q -42 47 -42 42 q -26 68 -42 51 l -3 86 q 10 99 0 90 q 34 119 21 108 q 58 138 47 131 q 69 147 68 146 q 78 149 74 150 q 83 142 82 147 q 75 133 83 140 q 63 122 69 128 q 51 108 57 115 q 51 107 51 108 q 31 77 44 99 q 15 36 18 56 q 36 11 13 17 q 65 22 51 11 q 92 44 79 32 q 100 53 96 49 q 100 67 108 60 q 82 132 69 103 m 133 139 q 116 137 124 140 q 100 124 108 133 q 110 86 93 111 q 111 85 110 86 q 117 79 114 81 q 122 83 119 78 q 143 119 138 104 q 143 135 144 131 q 140 138 142 136 q 133 139 139 139 z "},"":{"ha":283,"x_min":54,"x_max":243,"o":"m 68 133 q 56 144 54 138 q 63 150 56 149 q 93 151 71 151 q 119 152 104 151 q 146 153 135 153 q 190 153 168 154 q 228 149 213 151 q 242 146 243 147 q 232 142 242 144 q 208 136 222 139 q 181 132 194 133 q 153 129 165 129 q 115 131 140 129 q 85 132 99 131 q 68 133 71 133 m 90 43 q 88 47 89 44 q 86 51 86 50 q 93 63 86 58 q 108 70 100 68 q 121 68 115 72 q 123 56 125 63 q 114 44 121 50 q 99 39 107 39 q 94 40 97 39 q 90 43 92 42 m 182 228 q 179 232 181 229 q 178 236 178 235 q 185 248 178 243 q 200 254 192 253 q 213 251 208 256 q 216 240 218 247 q 207 228 214 233 q 192 224 200 224 q 187 225 189 224 q 182 228 185 226 z "},"":{"ha":213,"x_min":-42,"x_max":257,"o":"m 131 161 q 161 143 147 161 q 163 139 161 142 q 184 152 178 149 q 190 154 190 156 q 184 146 192 153 q 164 128 176 139 q 161 114 164 121 q 143 81 157 99 q 140 75 142 79 q 138 68 138 71 q 142 62 138 64 q 154 61 147 60 q 181 69 167 63 q 207 83 194 75 q 214 86 211 85 q 240 99 228 93 q 256 106 251 104 q 256 105 257 107 q 249 97 256 103 q 240 88 244 93 q 231 81 235 83 q 224 74 225 76 q 189 51 208 60 q 154 40 169 42 q 136 43 144 40 q 126 44 131 44 q 117 42 121 44 q 63 -3 92 13 q 29 -11 46 -11 q -1 4 11 -11 q -3 7 -1 6 q -6 6 -4 6 q -8 3 -7 4 q -11 1 -10 1 l -11 1 q -32 -7 -28 -7 q -34 -6 -33 -7 q -33 -4 -35 -6 q -33 -1 -33 -3 q -29 2 -32 0 q -21 8 -26 4 q -12 14 -17 11 q -8 18 -10 17 q -8 39 -11 28 q -6 47 -7 43 q -3 58 -4 54 q -8 57 -3 61 q -31 46 -21 50 q -42 47 -42 42 q -26 68 -42 51 l -3 86 q 10 99 0 90 q 34 119 21 108 q 58 138 47 131 q 69 147 68 146 q 78 149 74 150 q 83 142 82 147 q 75 133 83 140 q 63 122 69 128 q 51 108 57 115 q 51 107 51 108 q 31 76 43 99 q 15 35 18 54 q 86 86 51 61 q 82 132 74 111 q 102 153 89 144 q 131 161 115 161 m 133 139 q 116 137 124 140 q 100 124 108 133 q 103 97 96 114 q 143 126 126 115 q 143 135 144 132 q 140 138 142 136 q 133 139 139 139 m 138 107 q 136 106 136 106 q 133 104 135 104 q 110 86 122 96 q 110 85 110 86 q 117 79 114 81 q 122 83 119 78 q 138 107 131 96 m 94 75 q 26 26 60 49 q 21 24 24 25 q 18 21 19 22 q 36 11 22 14 q 65 22 51 11 q 92 44 79 32 q 100 53 96 49 q 100 67 108 60 q 94 75 97 71 z "},"":{"ha":210,"x_min":-36,"x_max":258,"o":"m 64 143 q 71 146 67 144 q 79 144 75 147 q 83 135 85 142 q 79 127 83 133 q 71 115 75 121 q 43 72 58 96 q 24 42 33 57 q 23 29 18 31 q 38 32 28 28 q 56 40 47 36 q 92 71 72 50 q 128 111 111 92 q 139 124 135 118 q 143 129 142 126 q 153 140 149 136 q 164 144 158 144 q 169 126 182 144 q 161 117 165 122 q 153 106 157 111 q 146 97 151 104 q 130 78 139 89 q 114 58 121 68 q 106 41 107 47 q 115 36 106 35 q 167 61 136 43 q 204 82 188 74 l 215 88 q 240 100 229 94 q 256 107 251 106 q 257 105 258 107 q 250 97 256 103 q 240 88 246 93 q 232 81 235 83 q 226 76 229 79 q 222 74 224 74 q 114 13 174 35 q 100 8 107 10 q 88 10 93 7 q 83 25 83 14 q 83 31 85 31 q 79 31 82 32 q 74 28 76 29 q 56 18 64 21 q 53 17 54 17 q 14 7 29 6 q -1 13 6 7 q -7 31 -8 18 q 3 53 -7 38 q 8 61 6 58 q 12 67 13 67 q 4 64 11 68 q -6 58 0 63 q -27 49 -18 51 q -36 51 -36 46 q -19 74 -36 57 l 33 114 q 43 124 36 117 q 56 136 50 131 q 64 143 63 142 z "},"":{"ha":210,"x_min":-36,"x_max":258,"o":"m 64 143 q 71 146 67 144 q 79 144 75 147 q 83 135 85 142 q 79 127 83 133 q 71 115 75 121 q 43 72 58 96 q 24 42 33 57 q 23 29 18 31 q 38 32 28 28 q 56 40 47 36 q 92 71 72 50 q 128 111 111 92 q 139 124 135 118 q 143 129 142 126 q 153 140 149 136 q 164 144 158 144 q 169 126 182 144 q 161 117 165 122 q 153 106 157 111 q 146 97 151 104 q 130 78 139 89 q 114 58 121 68 q 106 41 107 47 q 115 36 106 35 q 167 61 136 43 q 204 82 188 74 l 215 88 q 240 100 229 94 q 256 107 251 106 q 257 105 258 107 q 250 97 256 103 q 240 88 246 93 q 232 81 235 83 q 226 76 229 79 q 222 74 224 74 q 114 13 174 35 q 100 8 107 10 q 88 10 93 7 q 83 25 83 14 q 83 31 85 31 q 79 31 82 32 q 74 28 76 29 q 56 18 64 21 q 53 17 54 17 q 14 7 29 6 q -1 13 6 7 q -7 31 -8 18 q 3 53 -7 38 q 8 61 6 58 q 12 67 13 67 q 4 64 11 68 q -6 58 0 63 q -27 49 -18 51 q -36 51 -36 46 q -19 74 -36 57 l 33 114 q 43 124 36 117 q 56 136 50 131 q 64 143 63 142 z "},"":{"ha":210,"x_min":-36,"x_max":258,"o":"m 64 143 q 71 146 67 144 q 79 144 75 147 q 83 135 85 142 q 79 127 83 133 q 71 115 75 121 q 43 72 58 96 q 24 42 33 57 q 23 29 18 31 q 38 32 28 28 q 56 40 47 36 q 92 71 72 50 q 128 111 111 92 q 139 124 135 118 q 143 129 142 126 q 153 140 149 136 q 164 144 158 144 q 169 126 182 144 q 161 117 165 122 q 153 106 157 111 q 146 97 151 104 q 130 78 139 89 q 114 58 121 68 q 106 41 107 47 q 115 36 106 35 q 167 61 136 43 q 204 82 188 74 l 215 88 q 240 100 229 94 q 256 107 251 106 q 257 105 258 107 q 250 97 256 103 q 240 88 246 93 q 232 81 235 83 q 226 76 229 79 q 222 74 224 74 q 114 13 174 35 q 100 8 107 10 q 88 10 93 7 q 83 25 83 14 q 83 31 85 31 q 79 31 82 32 q 74 28 76 29 q 56 18 64 21 q 53 17 54 17 q 14 7 29 6 q -1 13 6 7 q -7 31 -8 18 q 3 53 -7 38 q 8 61 6 58 q 12 67 13 67 q 4 64 11 68 q -6 58 0 63 q -27 49 -18 51 q -36 51 -36 46 q -19 74 -36 57 l 33 114 q 43 124 36 117 q 56 136 50 131 q 64 143 63 142 m 83 219 q 78 236 64 219 q 94 247 86 243 q 103 253 99 250 q 115 259 108 256 q 124 263 121 263 q 133 267 128 265 q 140 267 138 268 q 150 261 146 265 q 160 253 154 256 q 163 251 161 253 q 174 245 168 249 q 185 239 181 242 q 192 233 190 235 q 194 229 194 231 q 192 225 194 228 q 192 224 192 224 q 156 232 183 213 q 140 247 144 242 q 136 251 138 250 q 132 250 135 251 q 124 243 129 249 q 102 228 113 235 q 86 219 92 221 q 83 219 85 219 z "}}}
